%TF.GenerationSoftware,KiCad,Pcbnew,7.0.9*%
%TF.CreationDate,2024-09-12T17:06:43+08:00*%
%TF.ProjectId,FlyingStone-clone-01,466c7969-6e67-4537-946f-6e652d636c6f,rev?*%
%TF.SameCoordinates,Original*%
%TF.FileFunction,Soldermask,Top*%
%TF.FilePolarity,Negative*%
%FSLAX46Y46*%
G04 Gerber Fmt 4.6, Leading zero omitted, Abs format (unit mm)*
G04 Created by KiCad (PCBNEW 7.0.9) date 2024-09-12 17:06:43*
%MOMM*%
%LPD*%
G01*
G04 APERTURE LIST*
G04 Aperture macros list*
%AMRoundRect*
0 Rectangle with rounded corners*
0 $1 Rounding radius*
0 $2 $3 $4 $5 $6 $7 $8 $9 X,Y pos of 4 corners*
0 Add a 4 corners polygon primitive as box body*
4,1,4,$2,$3,$4,$5,$6,$7,$8,$9,$2,$3,0*
0 Add four circle primitives for the rounded corners*
1,1,$1+$1,$2,$3*
1,1,$1+$1,$4,$5*
1,1,$1+$1,$6,$7*
1,1,$1+$1,$8,$9*
0 Add four rect primitives between the rounded corners*
20,1,$1+$1,$2,$3,$4,$5,0*
20,1,$1+$1,$4,$5,$6,$7,0*
20,1,$1+$1,$6,$7,$8,$9,0*
20,1,$1+$1,$8,$9,$2,$3,0*%
G04 Aperture macros list end*
%ADD10C,1.100000*%
%ADD11RoundRect,0.175000X-0.725000X0.175000X-0.725000X-0.175000X0.725000X-0.175000X0.725000X0.175000X0*%
%ADD12RoundRect,0.175000X0.725000X0.175000X-0.725000X0.175000X-0.725000X-0.175000X0.725000X-0.175000X0*%
%ADD13O,4.000000X1.600000*%
%ADD14RoundRect,0.160000X0.197500X0.160000X-0.197500X0.160000X-0.197500X-0.160000X0.197500X-0.160000X0*%
%ADD15RoundRect,0.160000X0.222500X0.160000X-0.222500X0.160000X-0.222500X-0.160000X0.222500X-0.160000X0*%
%ADD16RoundRect,0.155000X-0.212500X-0.155000X0.212500X-0.155000X0.212500X0.155000X-0.212500X0.155000X0*%
%ADD17RoundRect,0.160000X-0.197500X-0.160000X0.197500X-0.160000X0.197500X0.160000X-0.197500X0.160000X0*%
%ADD18R,1.700000X1.700000*%
%ADD19O,1.700000X1.700000*%
%ADD20RoundRect,0.150000X-0.512500X-0.150000X0.512500X-0.150000X0.512500X0.150000X-0.512500X0.150000X0*%
%ADD21RoundRect,0.155000X0.212500X0.155000X-0.212500X0.155000X-0.212500X-0.155000X0.212500X-0.155000X0*%
%ADD22C,1.400000*%
%ADD23RoundRect,0.150000X0.200000X-0.150000X0.200000X0.150000X-0.200000X0.150000X-0.200000X-0.150000X0*%
%ADD24RoundRect,0.075000X0.662500X0.075000X-0.662500X0.075000X-0.662500X-0.075000X0.662500X-0.075000X0*%
%ADD25RoundRect,0.075000X0.075000X0.662500X-0.075000X0.662500X-0.075000X-0.662500X0.075000X-0.662500X0*%
%ADD26RoundRect,0.150000X0.512500X0.150000X-0.512500X0.150000X-0.512500X-0.150000X0.512500X-0.150000X0*%
%ADD27RoundRect,0.155000X0.155000X-0.212500X0.155000X0.212500X-0.155000X0.212500X-0.155000X-0.212500X0*%
G04 APERTURE END LIST*
D10*
%TO.C,J1*%
X102600000Y-109000000D03*
X102600000Y-104500000D03*
D11*
X105050000Y-109750000D03*
X105050000Y-107750000D03*
X105050000Y-105750000D03*
X105050000Y-103750000D03*
X105050000Y-102750000D03*
X105050000Y-104750000D03*
X105050000Y-106750000D03*
X105050000Y-108750000D03*
D12*
X105050000Y-110750000D03*
D13*
X102600000Y-112600000D03*
X102600000Y-100900000D03*
%TD*%
D14*
%TO.C,R8*%
X124315000Y-108520000D03*
X123120000Y-108520000D03*
%TD*%
%TO.C,R7*%
X124315000Y-109520000D03*
X123120000Y-109520000D03*
%TD*%
D15*
%TO.C,D2*%
X111562500Y-101800000D03*
X110417500Y-101800000D03*
%TD*%
D16*
%TO.C,C9*%
X123135000Y-107510000D03*
X124270000Y-107510000D03*
%TD*%
D17*
%TO.C,R5*%
X123100000Y-103490000D03*
X124295000Y-103490000D03*
%TD*%
D18*
%TO.C,J2*%
X128580000Y-101670000D03*
D19*
X128580000Y-104210000D03*
X128580000Y-106750000D03*
X128580000Y-109290000D03*
X128580000Y-111830000D03*
%TD*%
D20*
%TO.C,U3*%
X108175000Y-104360000D03*
X108175000Y-105310000D03*
X108175000Y-106260000D03*
X110450000Y-106260000D03*
X110450000Y-104360000D03*
%TD*%
D21*
%TO.C,C2*%
X110970000Y-103080000D03*
X109835000Y-103080000D03*
%TD*%
D22*
%TO.C,SW1*%
X124970000Y-101240000D03*
X122430000Y-101240000D03*
%TD*%
D17*
%TO.C,R12*%
X110395000Y-100800000D03*
X111590000Y-100800000D03*
%TD*%
D23*
%TO.C,D1*%
X107150000Y-111107500D03*
X107150000Y-112507500D03*
%TD*%
D17*
%TO.C,R10*%
X123115000Y-106510000D03*
X124310000Y-106510000D03*
%TD*%
D16*
%TO.C,C5*%
X120985000Y-111280000D03*
X122120000Y-111280000D03*
%TD*%
D21*
%TO.C,C4*%
X124260000Y-105500000D03*
X123125000Y-105500000D03*
%TD*%
D24*
%TO.C,U1*%
X121162500Y-109500000D03*
X121162500Y-109000000D03*
X121162500Y-108500000D03*
X121162500Y-108000000D03*
X121162500Y-107500000D03*
X121162500Y-107000000D03*
X121162500Y-106500000D03*
X121162500Y-106000000D03*
X121162500Y-105500000D03*
X121162500Y-105000000D03*
X121162500Y-104500000D03*
X121162500Y-104000000D03*
D25*
X119750000Y-102587500D03*
X119250000Y-102587500D03*
X118750000Y-102587500D03*
X118250000Y-102587500D03*
X117750000Y-102587500D03*
X117250000Y-102587500D03*
X116750000Y-102587500D03*
X116250000Y-102587500D03*
X115750000Y-102587500D03*
X115250000Y-102587500D03*
X114750000Y-102587500D03*
X114250000Y-102587500D03*
D24*
X112837500Y-104000000D03*
X112837500Y-104500000D03*
X112837500Y-105000000D03*
X112837500Y-105500000D03*
X112837500Y-106000000D03*
X112837500Y-106500000D03*
X112837500Y-107000000D03*
X112837500Y-107500000D03*
X112837500Y-108000000D03*
X112837500Y-108500000D03*
X112837500Y-109000000D03*
X112837500Y-109500000D03*
D25*
X114250000Y-110912500D03*
X114750000Y-110912500D03*
X115250000Y-110912500D03*
X115750000Y-110912500D03*
X116250000Y-110912500D03*
X116750000Y-110912500D03*
X117250000Y-110912500D03*
X117750000Y-110912500D03*
X118250000Y-110912500D03*
X118750000Y-110912500D03*
X119250000Y-110912500D03*
X119750000Y-110912500D03*
%TD*%
D26*
%TO.C,U2*%
X110447500Y-109690000D03*
X110447500Y-108740000D03*
X110447500Y-107790000D03*
X108172500Y-107790000D03*
X108172500Y-108740000D03*
X108172500Y-109690000D03*
%TD*%
D27*
%TO.C,C3*%
X113330000Y-101950000D03*
X113330000Y-100815000D03*
%TD*%
D14*
%TO.C,R9*%
X122140000Y-112480000D03*
X120945000Y-112480000D03*
%TD*%
D21*
%TO.C,C6*%
X112237500Y-110970000D03*
X111102500Y-110970000D03*
%TD*%
D14*
%TO.C,R6*%
X124295000Y-104500000D03*
X123100000Y-104500000D03*
%TD*%
D16*
%TO.C,C1*%
X107612500Y-103080000D03*
X108747500Y-103080000D03*
%TD*%
M02*
