%TF.GenerationSoftware,KiCad,Pcbnew,7.0.9*%
%TF.CreationDate,2024-09-12T17:06:43+08:00*%
%TF.ProjectId,FlyingStone-clone-01,466c7969-6e67-4537-946f-6e652d636c6f,rev?*%
%TF.SameCoordinates,Original*%
%TF.FileFunction,Copper,L2,Bot*%
%TF.FilePolarity,Positive*%
%FSLAX46Y46*%
G04 Gerber Fmt 4.6, Leading zero omitted, Abs format (unit mm)*
G04 Created by KiCad (PCBNEW 7.0.9) date 2024-09-12 17:06:43*
%MOMM*%
%LPD*%
G01*
G04 APERTURE LIST*
G04 Aperture macros list*
%AMRoundRect*
0 Rectangle with rounded corners*
0 $1 Rounding radius*
0 $2 $3 $4 $5 $6 $7 $8 $9 X,Y pos of 4 corners*
0 Add a 4 corners polygon primitive as box body*
4,1,4,$2,$3,$4,$5,$6,$7,$8,$9,$2,$3,0*
0 Add four circle primitives for the rounded corners*
1,1,$1+$1,$2,$3*
1,1,$1+$1,$4,$5*
1,1,$1+$1,$6,$7*
1,1,$1+$1,$8,$9*
0 Add four rect primitives between the rounded corners*
20,1,$1+$1,$2,$3,$4,$5,0*
20,1,$1+$1,$4,$5,$6,$7,0*
20,1,$1+$1,$6,$7,$8,$9,0*
20,1,$1+$1,$8,$9,$2,$3,0*%
G04 Aperture macros list end*
%TA.AperFunction,ComponentPad*%
%ADD10O,4.000000X1.600000*%
%TD*%
%TA.AperFunction,ComponentPad*%
%ADD11R,1.700000X1.700000*%
%TD*%
%TA.AperFunction,ComponentPad*%
%ADD12O,1.700000X1.700000*%
%TD*%
%TA.AperFunction,ComponentPad*%
%ADD13C,1.400000*%
%TD*%
%TA.AperFunction,SMDPad,CuDef*%
%ADD14RoundRect,0.150000X0.587500X0.150000X-0.587500X0.150000X-0.587500X-0.150000X0.587500X-0.150000X0*%
%TD*%
%TA.AperFunction,SMDPad,CuDef*%
%ADD15RoundRect,0.155000X0.155000X-0.212500X0.155000X0.212500X-0.155000X0.212500X-0.155000X-0.212500X0*%
%TD*%
%TA.AperFunction,SMDPad,CuDef*%
%ADD16C,1.000000*%
%TD*%
%TA.AperFunction,SMDPad,CuDef*%
%ADD17RoundRect,0.160000X0.160000X-0.197500X0.160000X0.197500X-0.160000X0.197500X-0.160000X-0.197500X0*%
%TD*%
%TA.AperFunction,SMDPad,CuDef*%
%ADD18RoundRect,0.160000X-0.160000X0.197500X-0.160000X-0.197500X0.160000X-0.197500X0.160000X0.197500X0*%
%TD*%
%TA.AperFunction,SMDPad,CuDef*%
%ADD19R,2.100000X1.800000*%
%TD*%
%TA.AperFunction,SMDPad,CuDef*%
%ADD20RoundRect,0.155000X-0.155000X0.212500X-0.155000X-0.212500X0.155000X-0.212500X0.155000X0.212500X0*%
%TD*%
%TA.AperFunction,SMDPad,CuDef*%
%ADD21RoundRect,0.160000X0.197500X0.160000X-0.197500X0.160000X-0.197500X-0.160000X0.197500X-0.160000X0*%
%TD*%
%TA.AperFunction,SMDPad,CuDef*%
%ADD22RoundRect,0.160000X-0.197500X-0.160000X0.197500X-0.160000X0.197500X0.160000X-0.197500X0.160000X0*%
%TD*%
%TA.AperFunction,ViaPad*%
%ADD23C,0.450000*%
%TD*%
%TA.AperFunction,Conductor*%
%ADD24C,0.250000*%
%TD*%
%TA.AperFunction,Conductor*%
%ADD25C,0.150000*%
%TD*%
G04 APERTURE END LIST*
D10*
%TO.P,J1,10,SHIELD*%
%TO.N,GND*%
X102600000Y-112600000D03*
X102600000Y-100900000D03*
%TD*%
D11*
%TO.P,J2,1,Pin_1*%
%TO.N,STLK_JTCK*%
X128580000Y-101670000D03*
D12*
%TO.P,J2,2,Pin_2*%
%TO.N,STLK_JTMS*%
X128580000Y-104210000D03*
%TO.P,J2,3,Pin_3*%
%TO.N,T_NRST*%
X128580000Y-106750000D03*
%TO.P,J2,4,Pin_4*%
%TO.N,STLK_RX*%
X128580000Y-109290000D03*
%TO.P,J2,5,Pin_5*%
%TO.N,STLK_TX*%
X128580000Y-111830000D03*
%TD*%
D13*
%TO.P,SW1,1,1*%
%TO.N,GND*%
X124970000Y-101240000D03*
%TO.P,SW1,2,2*%
%TO.N,PA5*%
X122430000Y-101240000D03*
%TD*%
D14*
%TO.P,Q1,1,C*%
%TO.N,+3.3V*%
X110430000Y-105080000D03*
%TO.P,Q1,2,B*%
%TO.N,Net-(Q1-B)*%
X110430000Y-106980000D03*
%TO.P,Q1,3,E*%
%TO.N,Net-(Q1-E)*%
X108555000Y-106030000D03*
%TD*%
D15*
%TO.P,C8,1*%
%TO.N,Net-(U1-PD1)*%
X116030000Y-106270000D03*
%TO.P,C8,2*%
%TO.N,GND*%
X116030000Y-105135000D03*
%TD*%
D16*
%TO.P,TP2,1,1*%
%TO.N,SWDIO*%
X113990000Y-112660000D03*
%TD*%
D17*
%TO.P,R4,1*%
%TO.N,USB_RENUM*%
X113530000Y-110903750D03*
%TO.P,R4,2*%
%TO.N,Net-(Q1-B)*%
X113530000Y-109708750D03*
%TD*%
D16*
%TO.P,TP3,1,1*%
%TO.N,SWCLK*%
X116530000Y-112660000D03*
%TD*%
%TO.P,TP1,1,1*%
%TO.N,+3.3V*%
X111450000Y-112660000D03*
%TD*%
D18*
%TO.P,R11,1*%
%TO.N,Net-(U1-PB12)*%
X114530000Y-104450000D03*
%TO.P,R11,2*%
%TO.N,STLK_JTMS*%
X114530000Y-105645000D03*
%TD*%
D19*
%TO.P,Y1,1,1*%
%TO.N,Net-(U1-PD0)*%
X118360000Y-110370000D03*
%TO.P,Y1,2,2*%
%TO.N,GND*%
X115460000Y-110370000D03*
%TO.P,Y1,3,3*%
%TO.N,Net-(U1-PD1)*%
X115460000Y-108070000D03*
%TO.P,Y1,4*%
%TO.N,N/C*%
X118360000Y-108070000D03*
%TD*%
D20*
%TO.P,C7,1*%
%TO.N,Net-(U1-PD0)*%
X120380000Y-110342500D03*
%TO.P,C7,2*%
%TO.N,GND*%
X120380000Y-111477500D03*
%TD*%
D21*
%TO.P,R1,1*%
%TO.N,Net-(J1-D+)*%
X109307500Y-108380000D03*
%TO.P,R1,2*%
%TO.N,Net-(Q1-E)*%
X108112500Y-108380000D03*
%TD*%
%TO.P,R2,1*%
%TO.N,Net-(Q1-B)*%
X112425000Y-109700000D03*
%TO.P,R2,2*%
%TO.N,+5V*%
X111230000Y-109700000D03*
%TD*%
D16*
%TO.P,TP4,1,1*%
%TO.N,GND*%
X119070000Y-112660000D03*
%TD*%
D22*
%TO.P,R3,1*%
%TO.N,GND*%
X111235000Y-110740000D03*
%TO.P,R3,2*%
%TO.N,Net-(Q1-B)*%
X112430000Y-110740000D03*
%TD*%
D23*
%TO.N,+5V*%
X107020000Y-110340000D03*
X107550000Y-103760000D03*
%TO.N,GND*%
X122120000Y-111880000D03*
X109290000Y-103070000D03*
X106180000Y-103750000D03*
X111440000Y-102370000D03*
X124950000Y-104700000D03*
X108610000Y-105310000D03*
X109990000Y-108750000D03*
X124980000Y-109520000D03*
X110467500Y-110970000D03*
X113930000Y-100810000D03*
X119240000Y-111910000D03*
X120170000Y-106000000D03*
X113850000Y-109000000D03*
%TO.N,+3.3V*%
X110440000Y-105360000D03*
X112090000Y-112030000D03*
%TO.N,Net-(U1-PD0)*%
X120090000Y-107600000D03*
%TO.N,Net-(U1-PD1)*%
X120090000Y-106950000D03*
%TO.N,Net-(J1-D+)*%
X109310000Y-108740000D03*
%TO.N,STLK_JTCK*%
X119260000Y-104500000D03*
%TO.N,STLK_JTMS*%
X114270000Y-105370000D03*
%TO.N,USB_RENUM*%
X113530000Y-111530000D03*
%TO.N,Net-(U1-PB12)*%
X114530000Y-104000000D03*
%TO.N,PA5*%
X118750000Y-103700000D03*
%TO.N,SWDIO*%
X113090000Y-112660000D03*
%TO.N,SWCLK*%
X115620000Y-112660000D03*
%TD*%
D24*
%TO.N,+5V*%
X110000000Y-110350000D02*
X107030000Y-110350000D01*
X111230000Y-109700000D02*
X110650000Y-109700000D01*
X107550000Y-103730000D02*
X107010000Y-104270000D01*
X107010000Y-104270000D02*
X107010000Y-110340000D01*
X110650000Y-109700000D02*
X110000000Y-110350000D01*
D25*
%TO.N,+3.3V*%
X111450000Y-112660000D02*
X111460000Y-112660000D01*
X111460000Y-112660000D02*
X112090000Y-112030000D01*
%TO.N,Net-(U1-PD0)*%
X120380000Y-109880000D02*
X120380000Y-110342500D01*
X120090000Y-107530000D02*
X120090000Y-109590000D01*
X120380000Y-110342500D02*
X118387500Y-110342500D01*
X118387500Y-110342500D02*
X118360000Y-110370000D01*
X120090000Y-109590000D02*
X120380000Y-109880000D01*
%TO.N,Net-(U1-PD1)*%
X115460000Y-106840000D02*
X116030000Y-106270000D01*
X115460000Y-108070000D02*
X115460000Y-106840000D01*
X120090000Y-106950000D02*
X119410000Y-106270000D01*
X119410000Y-106270000D02*
X116030000Y-106270000D01*
%TO.N,STLK_JTCK*%
X119485000Y-104275000D02*
X125975000Y-104275000D01*
X125975000Y-104275000D02*
X128580000Y-101670000D01*
X119260000Y-104500000D02*
X119485000Y-104275000D01*
%TO.N,STLK_JTMS*%
X127665000Y-105125000D02*
X128580000Y-104210000D01*
X118340000Y-104420000D02*
X119045000Y-105125000D01*
X114530000Y-105645000D02*
X115755000Y-104420000D01*
X115755000Y-104420000D02*
X118340000Y-104420000D01*
X119045000Y-105125000D02*
X127665000Y-105125000D01*
%TO.N,Net-(Q1-E)*%
X108280000Y-108212500D02*
X108280000Y-106305000D01*
X108112500Y-108380000D02*
X108280000Y-108212500D01*
X108280000Y-106305000D02*
X108555000Y-106030000D01*
%TO.N,Net-(Q1-B)*%
X112425000Y-110735000D02*
X112430000Y-110740000D01*
X112425000Y-109700000D02*
X112425000Y-110735000D01*
X110430000Y-106980000D02*
X111390000Y-106980000D01*
X113530000Y-109708750D02*
X112433750Y-109708750D01*
X111390000Y-106980000D02*
X112425000Y-108015000D01*
X112433750Y-109708750D02*
X112425000Y-109700000D01*
X112425000Y-108015000D02*
X112425000Y-109700000D01*
%TO.N,USB_RENUM*%
X113530000Y-110903750D02*
X113530000Y-111476250D01*
%TO.N,Net-(U1-PB12)*%
X114530000Y-104450000D02*
X114530000Y-104000000D01*
%TO.N,PA5*%
X122430000Y-101240000D02*
X119970000Y-103700000D01*
X119970000Y-103700000D02*
X118750000Y-103700000D01*
%TO.N,SWDIO*%
X113990000Y-112660000D02*
X113090000Y-112660000D01*
%TO.N,SWCLK*%
X116530000Y-112660000D02*
X115620000Y-112660000D01*
%TD*%
%TA.AperFunction,Conductor*%
%TO.N,GND*%
G36*
X100549788Y-100117781D02*
G01*
X100567069Y-100159500D01*
X100552658Y-100198137D01*
X100499891Y-100259032D01*
X100499889Y-100259035D01*
X100394853Y-100440962D01*
X100326143Y-100639486D01*
X100310255Y-100750000D01*
X101372935Y-100750000D01*
X101350000Y-100828111D01*
X101350000Y-100971889D01*
X101372935Y-101050000D01*
X100305897Y-101050000D01*
X100306243Y-101057256D01*
X100355770Y-101261412D01*
X100355773Y-101261419D01*
X100443035Y-101452497D01*
X100443037Y-101452500D01*
X100564892Y-101623622D01*
X100564893Y-101623623D01*
X100716927Y-101768588D01*
X100893656Y-101882165D01*
X100893662Y-101882168D01*
X101088683Y-101960243D01*
X101088687Y-101960244D01*
X101294963Y-102000000D01*
X102450000Y-102000000D01*
X102450000Y-101400000D01*
X102750000Y-101400000D01*
X102750000Y-102000000D01*
X103852397Y-102000000D01*
X103852400Y-101999999D01*
X104009119Y-101985035D01*
X104009128Y-101985033D01*
X104210685Y-101925851D01*
X104210695Y-101925847D01*
X104397402Y-101829592D01*
X104397417Y-101829583D01*
X104562537Y-101699731D01*
X104562539Y-101699729D01*
X104700108Y-101540967D01*
X104700110Y-101540964D01*
X104805146Y-101359037D01*
X104873856Y-101160513D01*
X104889745Y-101050000D01*
X103827065Y-101050000D01*
X103850000Y-100971889D01*
X103850000Y-100828111D01*
X103827065Y-100750000D01*
X104894102Y-100750000D01*
X104893756Y-100742743D01*
X104844229Y-100538587D01*
X104844226Y-100538580D01*
X104756964Y-100347502D01*
X104756962Y-100347499D01*
X104647459Y-100193723D01*
X104637336Y-100149716D01*
X104661296Y-100111440D01*
X104695519Y-100100500D01*
X107840500Y-100100500D01*
X107882219Y-100117781D01*
X107899500Y-100159500D01*
X107899500Y-101589391D01*
X107936671Y-101764270D01*
X107936672Y-101764271D01*
X108009383Y-101927584D01*
X108009386Y-101927590D01*
X108009387Y-101927592D01*
X108009388Y-101927593D01*
X108114474Y-102072230D01*
X108114475Y-102072231D01*
X108114476Y-102072232D01*
X108118099Y-102075494D01*
X108247335Y-102191859D01*
X108247338Y-102191861D01*
X108247341Y-102191863D01*
X108339097Y-102244838D01*
X108402165Y-102281250D01*
X108479710Y-102306446D01*
X108572196Y-102336497D01*
X108589106Y-102338274D01*
X108750000Y-102355185D01*
X108927803Y-102336497D01*
X109097835Y-102281250D01*
X109252665Y-102191859D01*
X109385526Y-102072230D01*
X109490612Y-101927593D01*
X109563329Y-101764267D01*
X109600500Y-101589391D01*
X109600500Y-101500000D01*
X109600500Y-101473071D01*
X109600500Y-100159500D01*
X109617781Y-100117781D01*
X109659500Y-100100500D01*
X129840500Y-100100500D01*
X129882219Y-100117781D01*
X129899500Y-100159500D01*
X129899500Y-113340500D01*
X129882219Y-113382219D01*
X129840500Y-113399500D01*
X119577257Y-113399500D01*
X119535538Y-113382219D01*
X119518257Y-113340500D01*
X119518628Y-113333894D01*
X119519957Y-113322089D01*
X119070001Y-112872132D01*
X119069999Y-112872132D01*
X118620041Y-113322089D01*
X118621371Y-113333894D01*
X118608870Y-113377286D01*
X118569348Y-113399129D01*
X118562742Y-113399500D01*
X116867722Y-113399500D01*
X116826003Y-113382219D01*
X116808722Y-113340500D01*
X116826003Y-113298781D01*
X116840301Y-113288259D01*
X116930852Y-113240734D01*
X117058183Y-113127929D01*
X117154818Y-112987930D01*
X117215140Y-112828872D01*
X117235645Y-112660000D01*
X118264938Y-112660000D01*
X118285123Y-112839142D01*
X118344662Y-113009300D01*
X118407909Y-113109957D01*
X118857868Y-112660000D01*
X119282132Y-112660000D01*
X119732089Y-113109957D01*
X119795337Y-113009300D01*
X119854876Y-112839142D01*
X119875061Y-112660000D01*
X119854876Y-112480857D01*
X119795337Y-112310699D01*
X119732089Y-112210041D01*
X119282132Y-112659999D01*
X119282132Y-112660000D01*
X118857868Y-112660000D01*
X118857868Y-112659999D01*
X118407908Y-112210040D01*
X118344663Y-112310696D01*
X118344663Y-112310697D01*
X118285123Y-112480857D01*
X118264938Y-112660000D01*
X117235645Y-112660000D01*
X117215140Y-112491128D01*
X117154818Y-112332070D01*
X117058183Y-112192071D01*
X117038968Y-112175048D01*
X116930855Y-112079268D01*
X116930853Y-112079267D01*
X116930852Y-112079266D01*
X116780225Y-112000210D01*
X116780224Y-112000209D01*
X116780223Y-112000209D01*
X116780220Y-112000208D01*
X116770888Y-111997908D01*
X118620040Y-111997908D01*
X119069999Y-112447868D01*
X119070001Y-112447868D01*
X119519957Y-111997909D01*
X119419300Y-111934662D01*
X119249142Y-111875123D01*
X119070000Y-111854938D01*
X118890857Y-111875123D01*
X118720697Y-111934663D01*
X118720696Y-111934663D01*
X118620040Y-111997908D01*
X116770888Y-111997908D01*
X116615056Y-111959500D01*
X116444944Y-111959500D01*
X116279779Y-112000208D01*
X116279776Y-112000209D01*
X116129144Y-112079268D01*
X116001819Y-112192068D01*
X116001814Y-112192073D01*
X115936717Y-112286383D01*
X115898796Y-112310901D01*
X115861376Y-112305437D01*
X115817766Y-112283217D01*
X115753126Y-112250281D01*
X115620000Y-112229196D01*
X115486874Y-112250281D01*
X115486869Y-112250282D01*
X115366782Y-112311470D01*
X115366775Y-112311475D01*
X115271475Y-112406775D01*
X115271470Y-112406782D01*
X115210282Y-112526869D01*
X115210281Y-112526874D01*
X115189196Y-112660000D01*
X115210281Y-112793125D01*
X115210282Y-112793130D01*
X115271470Y-112913217D01*
X115271475Y-112913224D01*
X115366775Y-113008524D01*
X115366778Y-113008526D01*
X115366780Y-113008528D01*
X115366782Y-113008529D01*
X115486869Y-113069717D01*
X115486870Y-113069717D01*
X115486874Y-113069719D01*
X115620000Y-113090804D01*
X115753126Y-113069719D01*
X115861376Y-113014563D01*
X115906393Y-113011020D01*
X115936717Y-113033616D01*
X116001815Y-113127926D01*
X116001819Y-113127931D01*
X116129144Y-113240731D01*
X116129145Y-113240731D01*
X116129148Y-113240734D01*
X116219697Y-113288258D01*
X116248607Y-113322948D01*
X116244520Y-113367919D01*
X116209830Y-113396829D01*
X116192278Y-113399500D01*
X114327722Y-113399500D01*
X114286003Y-113382219D01*
X114268722Y-113340500D01*
X114286003Y-113298781D01*
X114300301Y-113288259D01*
X114390852Y-113240734D01*
X114518183Y-113127929D01*
X114614818Y-112987930D01*
X114675140Y-112828872D01*
X114695645Y-112660000D01*
X114675140Y-112491128D01*
X114614818Y-112332070D01*
X114518183Y-112192071D01*
X114498968Y-112175048D01*
X114390855Y-112079268D01*
X114390853Y-112079267D01*
X114390852Y-112079266D01*
X114240225Y-112000210D01*
X114240224Y-112000209D01*
X114240223Y-112000209D01*
X114240220Y-112000208D01*
X114075056Y-111959500D01*
X113904944Y-111959500D01*
X113841439Y-111975152D01*
X113796797Y-111968357D01*
X113770034Y-111931985D01*
X113776829Y-111887343D01*
X113785597Y-111876150D01*
X113878528Y-111783220D01*
X113939719Y-111663126D01*
X113945362Y-111627500D01*
X119770001Y-111627500D01*
X119770001Y-111744803D01*
X119772882Y-111775540D01*
X119772884Y-111775550D01*
X119818182Y-111905006D01*
X119818184Y-111905009D01*
X119899632Y-112015367D01*
X120009990Y-112096815D01*
X120009993Y-112096817D01*
X120139453Y-112142117D01*
X120170197Y-112144999D01*
X120229999Y-112144999D01*
X120230000Y-112144998D01*
X120230000Y-111627500D01*
X120530000Y-111627500D01*
X120530000Y-112144999D01*
X120589803Y-112144999D01*
X120620540Y-112142117D01*
X120620550Y-112142115D01*
X120750006Y-112096817D01*
X120750009Y-112096815D01*
X120860367Y-112015367D01*
X120941815Y-111905009D01*
X120941817Y-111905006D01*
X120968063Y-111830000D01*
X127524417Y-111830000D01*
X127544699Y-112035930D01*
X127544699Y-112035932D01*
X127544700Y-112035934D01*
X127604768Y-112233954D01*
X127604769Y-112233957D01*
X127604770Y-112233958D01*
X127702313Y-112416448D01*
X127833589Y-112576410D01*
X127993551Y-112707686D01*
X128072715Y-112750000D01*
X128176046Y-112805232D01*
X128374066Y-112865300D01*
X128580000Y-112885583D01*
X128785934Y-112865300D01*
X128983954Y-112805232D01*
X129166450Y-112707685D01*
X129326410Y-112576410D01*
X129457685Y-112416450D01*
X129555232Y-112233954D01*
X129615300Y-112035934D01*
X129635583Y-111830000D01*
X129615300Y-111624066D01*
X129555232Y-111426046D01*
X129502558Y-111327500D01*
X129457686Y-111243551D01*
X129326410Y-111083589D01*
X129166448Y-110952313D01*
X128983958Y-110854770D01*
X128983957Y-110854769D01*
X128983954Y-110854768D01*
X128785934Y-110794700D01*
X128785932Y-110794699D01*
X128785930Y-110794699D01*
X128580000Y-110774417D01*
X128374069Y-110794699D01*
X128374066Y-110794700D01*
X128176046Y-110854768D01*
X128176043Y-110854769D01*
X128176041Y-110854770D01*
X127993551Y-110952313D01*
X127833589Y-111083589D01*
X127702313Y-111243551D01*
X127604770Y-111426041D01*
X127604769Y-111426043D01*
X127604768Y-111426046D01*
X127573235Y-111529999D01*
X127544699Y-111624069D01*
X127524417Y-111830000D01*
X120968063Y-111830000D01*
X120987117Y-111775546D01*
X120990000Y-111744802D01*
X120990000Y-111627500D01*
X120530000Y-111627500D01*
X120230000Y-111627500D01*
X119770001Y-111627500D01*
X113945362Y-111627500D01*
X113960804Y-111530000D01*
X113939719Y-111396874D01*
X113939717Y-111396870D01*
X113939564Y-111395903D01*
X113950106Y-111351994D01*
X113956120Y-111344953D01*
X113961196Y-111339878D01*
X113987449Y-111313625D01*
X113998072Y-111291896D01*
X114031919Y-111262005D01*
X114076989Y-111264803D01*
X114106880Y-111298650D01*
X114109725Y-111313110D01*
X114109805Y-111313101D01*
X114109922Y-111314113D01*
X114109978Y-111314396D01*
X114110000Y-111314789D01*
X114112909Y-111339874D01*
X114158211Y-111442474D01*
X114158215Y-111442480D01*
X114237519Y-111521784D01*
X114237525Y-111521788D01*
X114340121Y-111567088D01*
X114340126Y-111567089D01*
X114365210Y-111569999D01*
X115310000Y-111569999D01*
X115310000Y-110520000D01*
X115610000Y-110520000D01*
X115610000Y-111569999D01*
X116554791Y-111569999D01*
X116579874Y-111567090D01*
X116682474Y-111521788D01*
X116682480Y-111521784D01*
X116761784Y-111442480D01*
X116761788Y-111442474D01*
X116807088Y-111339878D01*
X116807089Y-111339873D01*
X116810000Y-111314789D01*
X116810000Y-110520000D01*
X115610000Y-110520000D01*
X115310000Y-110520000D01*
X114110000Y-110520000D01*
X114094698Y-110535302D01*
X114052978Y-110552582D01*
X114011259Y-110535301D01*
X113999974Y-110519495D01*
X113987450Y-110493877D01*
X113987449Y-110493876D01*
X113987449Y-110493875D01*
X113902375Y-110408801D01*
X113902374Y-110408800D01*
X113902372Y-110408799D01*
X113849769Y-110383083D01*
X113801026Y-110359254D01*
X113771137Y-110325407D01*
X113773935Y-110280337D01*
X113801026Y-110253245D01*
X113902375Y-110203699D01*
X113987449Y-110118625D01*
X113997995Y-110097052D01*
X114031842Y-110067162D01*
X114076912Y-110069960D01*
X114106803Y-110103807D01*
X114110000Y-110122965D01*
X114110000Y-110220000D01*
X116809999Y-110220000D01*
X116809999Y-109425208D01*
X116807090Y-109400125D01*
X116761788Y-109297525D01*
X116761784Y-109297519D01*
X116682480Y-109218215D01*
X116682476Y-109218212D01*
X116669985Y-109212697D01*
X116638801Y-109180037D01*
X116639844Y-109134892D01*
X116652101Y-109117002D01*
X116654545Y-109114556D01*
X116654552Y-109114552D01*
X116698867Y-109048231D01*
X116710499Y-108989751D01*
X116710500Y-108989751D01*
X116710500Y-107150249D01*
X116710499Y-107150248D01*
X116698868Y-107091772D01*
X116698866Y-107091767D01*
X116654552Y-107025448D01*
X116654551Y-107025447D01*
X116588232Y-106981133D01*
X116588227Y-106981131D01*
X116529751Y-106969500D01*
X116529748Y-106969500D01*
X115862554Y-106969500D01*
X115820835Y-106952219D01*
X115803554Y-106910500D01*
X115820835Y-106868781D01*
X115834335Y-106855281D01*
X115876054Y-106838000D01*
X116218736Y-106838000D01*
X116218742Y-106838000D01*
X116287840Y-106827933D01*
X116394429Y-106775824D01*
X116478324Y-106691929D01*
X116530433Y-106585340D01*
X116530433Y-106585337D01*
X116532445Y-106581223D01*
X116534085Y-106582024D01*
X116558731Y-106552319D01*
X116586265Y-106545500D01*
X119271446Y-106545500D01*
X119313165Y-106562781D01*
X119643570Y-106893186D01*
X119660851Y-106934905D01*
X119660125Y-106944132D01*
X119659196Y-106950000D01*
X119659848Y-106954116D01*
X119665303Y-106988560D01*
X119654761Y-107032469D01*
X119616258Y-107056063D01*
X119572349Y-107045521D01*
X119557972Y-107030567D01*
X119554551Y-107025447D01*
X119488232Y-106981133D01*
X119488227Y-106981131D01*
X119429751Y-106969500D01*
X119429748Y-106969500D01*
X117290252Y-106969500D01*
X117290249Y-106969500D01*
X117231772Y-106981131D01*
X117231767Y-106981133D01*
X117165448Y-107025447D01*
X117165447Y-107025448D01*
X117121133Y-107091767D01*
X117121131Y-107091772D01*
X117109500Y-107150248D01*
X117109500Y-108989751D01*
X117121131Y-109048227D01*
X117121133Y-109048232D01*
X117165447Y-109114551D01*
X117165448Y-109114552D01*
X117231767Y-109158866D01*
X117231768Y-109158866D01*
X117231769Y-109158867D01*
X117231772Y-109158868D01*
X117248189Y-109162134D01*
X117285736Y-109187221D01*
X117294545Y-109231510D01*
X117269458Y-109269057D01*
X117248189Y-109277866D01*
X117231772Y-109281131D01*
X117231767Y-109281133D01*
X117165448Y-109325447D01*
X117165447Y-109325448D01*
X117121133Y-109391767D01*
X117121131Y-109391772D01*
X117109500Y-109450248D01*
X117109500Y-111289751D01*
X117121131Y-111348227D01*
X117121133Y-111348232D01*
X117165447Y-111414551D01*
X117165448Y-111414552D01*
X117231767Y-111458866D01*
X117231768Y-111458866D01*
X117231769Y-111458867D01*
X117231772Y-111458868D01*
X117270581Y-111466587D01*
X117290248Y-111470499D01*
X117290249Y-111470500D01*
X117290252Y-111470500D01*
X119429751Y-111470500D01*
X119429751Y-111470499D01*
X119468560Y-111462779D01*
X119488227Y-111458868D01*
X119488228Y-111458867D01*
X119488231Y-111458867D01*
X119554552Y-111414552D01*
X119598867Y-111348231D01*
X119610499Y-111289751D01*
X119610500Y-111289751D01*
X119610500Y-110677000D01*
X119627781Y-110635281D01*
X119669500Y-110618000D01*
X119823735Y-110618000D01*
X119865454Y-110635281D01*
X119876798Y-110654093D01*
X119877555Y-110653723D01*
X119879566Y-110657838D01*
X119879567Y-110657840D01*
X119890041Y-110679264D01*
X119931674Y-110764426D01*
X119931675Y-110764427D01*
X119931676Y-110764429D01*
X119961946Y-110794699D01*
X119970396Y-110803149D01*
X119987676Y-110844869D01*
X119970395Y-110886588D01*
X119963712Y-110892339D01*
X119899632Y-110939632D01*
X119818184Y-111049990D01*
X119818182Y-111049993D01*
X119772882Y-111179453D01*
X119770000Y-111210197D01*
X119770000Y-111327500D01*
X120989999Y-111327500D01*
X120989999Y-111210196D01*
X120987117Y-111179459D01*
X120987115Y-111179449D01*
X120941817Y-111049993D01*
X120941815Y-111049990D01*
X120860365Y-110939631D01*
X120796287Y-110892339D01*
X120772981Y-110853662D01*
X120783851Y-110809833D01*
X120789590Y-110803162D01*
X120828324Y-110764429D01*
X120880433Y-110657840D01*
X120890500Y-110588742D01*
X120890500Y-110096258D01*
X120880433Y-110027160D01*
X120828324Y-109920571D01*
X120744429Y-109836676D01*
X120744428Y-109836675D01*
X120744426Y-109836674D01*
X120685981Y-109808102D01*
X120666596Y-109798625D01*
X120643453Y-109778400D01*
X120639515Y-109772506D01*
X120639515Y-109772505D01*
X120578624Y-109681376D01*
X120578622Y-109681375D01*
X120578622Y-109681374D01*
X120560454Y-109669235D01*
X120551514Y-109661898D01*
X120382781Y-109493165D01*
X120365500Y-109451446D01*
X120365500Y-109290000D01*
X127524417Y-109290000D01*
X127544699Y-109495930D01*
X127544699Y-109495932D01*
X127544700Y-109495934D01*
X127604768Y-109693954D01*
X127604769Y-109693957D01*
X127604770Y-109693958D01*
X127702313Y-109876448D01*
X127833589Y-110036410D01*
X127993551Y-110167686D01*
X128080423Y-110214120D01*
X128176046Y-110265232D01*
X128374066Y-110325300D01*
X128580000Y-110345583D01*
X128785934Y-110325300D01*
X128983954Y-110265232D01*
X129166450Y-110167685D01*
X129326410Y-110036410D01*
X129457685Y-109876450D01*
X129555232Y-109693954D01*
X129615300Y-109495934D01*
X129635583Y-109290000D01*
X129615300Y-109084066D01*
X129555232Y-108886046D01*
X129507842Y-108797387D01*
X129457686Y-108703551D01*
X129326410Y-108543589D01*
X129166448Y-108412313D01*
X128983958Y-108314770D01*
X128983957Y-108314769D01*
X128983954Y-108314768D01*
X128785934Y-108254700D01*
X128785932Y-108254699D01*
X128785930Y-108254699D01*
X128580000Y-108234417D01*
X128374069Y-108254699D01*
X128374066Y-108254700D01*
X128176046Y-108314768D01*
X128176043Y-108314769D01*
X128176041Y-108314770D01*
X127993551Y-108412313D01*
X127833589Y-108543589D01*
X127702313Y-108703551D01*
X127604770Y-108886041D01*
X127604769Y-108886043D01*
X127604768Y-108886046D01*
X127572258Y-108993220D01*
X127544699Y-109084069D01*
X127524417Y-109290000D01*
X120365500Y-109290000D01*
X120365500Y-107950686D01*
X120382781Y-107908967D01*
X120438528Y-107853220D01*
X120499719Y-107733126D01*
X120520804Y-107600000D01*
X120499719Y-107466874D01*
X120499717Y-107466870D01*
X120499717Y-107466869D01*
X120438529Y-107346782D01*
X120438527Y-107346779D01*
X120427584Y-107335836D01*
X120408466Y-107316718D01*
X120391186Y-107275001D01*
X120408465Y-107233282D01*
X120438528Y-107203220D01*
X120499719Y-107083126D01*
X120520804Y-106950000D01*
X120499719Y-106816874D01*
X120499717Y-106816870D01*
X120499717Y-106816869D01*
X120465645Y-106750000D01*
X127524417Y-106750000D01*
X127544699Y-106955930D01*
X127544699Y-106955932D01*
X127544700Y-106955934D01*
X127604768Y-107153954D01*
X127604769Y-107153957D01*
X127604770Y-107153958D01*
X127702313Y-107336448D01*
X127833589Y-107496410D01*
X127993551Y-107627686D01*
X128100683Y-107684949D01*
X128176046Y-107725232D01*
X128374066Y-107785300D01*
X128580000Y-107805583D01*
X128785934Y-107785300D01*
X128983954Y-107725232D01*
X129166450Y-107627685D01*
X129326410Y-107496410D01*
X129457685Y-107336450D01*
X129555232Y-107153954D01*
X129615300Y-106955934D01*
X129635583Y-106750000D01*
X129615300Y-106544066D01*
X129555232Y-106346046D01*
X129473315Y-106192791D01*
X129457686Y-106163551D01*
X129326410Y-106003589D01*
X129166448Y-105872313D01*
X128983958Y-105774770D01*
X128983957Y-105774769D01*
X128983954Y-105774768D01*
X128785934Y-105714700D01*
X128785932Y-105714699D01*
X128785930Y-105714699D01*
X128580000Y-105694417D01*
X128374069Y-105714699D01*
X128342989Y-105724126D01*
X128176046Y-105774768D01*
X128176043Y-105774769D01*
X128176041Y-105774770D01*
X127993551Y-105872313D01*
X127833589Y-106003589D01*
X127702313Y-106163551D01*
X127604770Y-106346041D01*
X127604769Y-106346043D01*
X127604768Y-106346046D01*
X127564286Y-106479500D01*
X127544699Y-106544069D01*
X127524417Y-106750000D01*
X120465645Y-106750000D01*
X120438529Y-106696782D01*
X120438524Y-106696775D01*
X120343224Y-106601475D01*
X120343217Y-106601470D01*
X120223130Y-106540282D01*
X120223126Y-106540281D01*
X120090000Y-106519196D01*
X120089998Y-106519196D01*
X120084132Y-106520125D01*
X120040224Y-106509582D01*
X120033186Y-106503570D01*
X119628101Y-106098485D01*
X119620763Y-106089544D01*
X119608624Y-106071376D01*
X119608622Y-106071374D01*
X119598312Y-106064486D01*
X119588033Y-106057617D01*
X119588027Y-106057612D01*
X119546701Y-106030000D01*
X119517495Y-106010485D01*
X119517491Y-106010483D01*
X119435100Y-105994095D01*
X119435071Y-105994090D01*
X119410002Y-105989103D01*
X119409999Y-105989103D01*
X119388569Y-105993366D01*
X119377058Y-105994500D01*
X116586265Y-105994500D01*
X116544546Y-105977219D01*
X116533201Y-105958406D01*
X116532445Y-105958777D01*
X116530433Y-105954661D01*
X116530433Y-105954660D01*
X116478324Y-105848071D01*
X116439603Y-105809350D01*
X116422322Y-105767631D01*
X116439603Y-105725912D01*
X116446287Y-105720159D01*
X116510367Y-105672866D01*
X116591815Y-105562509D01*
X116591817Y-105562506D01*
X116637117Y-105433046D01*
X116640000Y-105402302D01*
X116640000Y-105285000D01*
X115939000Y-105285000D01*
X115897281Y-105267719D01*
X115880000Y-105226000D01*
X115880000Y-105044000D01*
X115897281Y-105002281D01*
X115939000Y-104985000D01*
X116639999Y-104985000D01*
X116639999Y-104867696D01*
X116637117Y-104836959D01*
X116637115Y-104836949D01*
X116615084Y-104773986D01*
X116617616Y-104728900D01*
X116651287Y-104698811D01*
X116670773Y-104695500D01*
X118201446Y-104695500D01*
X118243165Y-104712781D01*
X118826897Y-105296513D01*
X118834235Y-105305454D01*
X118846376Y-105323624D01*
X118869376Y-105338992D01*
X118869378Y-105338994D01*
X118937506Y-105384516D01*
X118937509Y-105384516D01*
X118937510Y-105384517D01*
X119044998Y-105405897D01*
X119045000Y-105405897D01*
X119045001Y-105405897D01*
X119063074Y-105402302D01*
X119066433Y-105401633D01*
X119077943Y-105400500D01*
X127632058Y-105400500D01*
X127643568Y-105401633D01*
X127665000Y-105405897D01*
X127689293Y-105401064D01*
X127689299Y-105401064D01*
X127772491Y-105384516D01*
X127772491Y-105384515D01*
X127772495Y-105384515D01*
X127834306Y-105343214D01*
X127847008Y-105334728D01*
X127847014Y-105334721D01*
X127863624Y-105323624D01*
X127875767Y-105305449D01*
X127883096Y-105296518D01*
X128026721Y-105152893D01*
X128068439Y-105135613D01*
X128096251Y-105142579D01*
X128115547Y-105152894D01*
X128176039Y-105185229D01*
X128176042Y-105185229D01*
X128176046Y-105185232D01*
X128374066Y-105245300D01*
X128580000Y-105265583D01*
X128785934Y-105245300D01*
X128983954Y-105185232D01*
X129166450Y-105087685D01*
X129326410Y-104956410D01*
X129457685Y-104796450D01*
X129555232Y-104613954D01*
X129615300Y-104415934D01*
X129635583Y-104210000D01*
X129615300Y-104004066D01*
X129555232Y-103806046D01*
X129514949Y-103730683D01*
X129457686Y-103623551D01*
X129326410Y-103463589D01*
X129166448Y-103332313D01*
X128983958Y-103234770D01*
X128983957Y-103234769D01*
X128983954Y-103234768D01*
X128785934Y-103174700D01*
X128785932Y-103174699D01*
X128785930Y-103174699D01*
X128580000Y-103154417D01*
X128374069Y-103174699D01*
X128374066Y-103174700D01*
X128176046Y-103234768D01*
X128176043Y-103234769D01*
X128176041Y-103234770D01*
X127993551Y-103332313D01*
X127833589Y-103463589D01*
X127702313Y-103623551D01*
X127604770Y-103806041D01*
X127604769Y-103806043D01*
X127604768Y-103806046D01*
X127568553Y-103925432D01*
X127544699Y-104004069D01*
X127524417Y-104210000D01*
X127544699Y-104415930D01*
X127544699Y-104415932D01*
X127544700Y-104415934D01*
X127604768Y-104613954D01*
X127604769Y-104613957D01*
X127604770Y-104613958D01*
X127647418Y-104693746D01*
X127651845Y-104738686D01*
X127637104Y-104763278D01*
X127568164Y-104832219D01*
X127526447Y-104849500D01*
X119654371Y-104849500D01*
X119612652Y-104832219D01*
X119595371Y-104790500D01*
X119606637Y-104755824D01*
X119608527Y-104753221D01*
X119609259Y-104751786D01*
X119669719Y-104633126D01*
X119672756Y-104613954D01*
X119674924Y-104600269D01*
X119698519Y-104561767D01*
X119733197Y-104550500D01*
X125942058Y-104550500D01*
X125953568Y-104551633D01*
X125975000Y-104555897D01*
X125999293Y-104551064D01*
X125999299Y-104551064D01*
X126082491Y-104534516D01*
X126082491Y-104534515D01*
X126082495Y-104534515D01*
X126134150Y-104500000D01*
X126150622Y-104488994D01*
X126150622Y-104488992D01*
X126157011Y-104484724D01*
X126157011Y-104484723D01*
X126173624Y-104473624D01*
X126185766Y-104455452D01*
X126193098Y-104446517D01*
X127901835Y-102737781D01*
X127943554Y-102720500D01*
X129449751Y-102720500D01*
X129449751Y-102720499D01*
X129488560Y-102712779D01*
X129508227Y-102708868D01*
X129508228Y-102708867D01*
X129508231Y-102708867D01*
X129574552Y-102664552D01*
X129618867Y-102598231D01*
X129630499Y-102539751D01*
X129630500Y-102539751D01*
X129630500Y-100800249D01*
X129630499Y-100800248D01*
X129618868Y-100741772D01*
X129618866Y-100741767D01*
X129574552Y-100675448D01*
X129574551Y-100675447D01*
X129508232Y-100631133D01*
X129508227Y-100631131D01*
X129449751Y-100619500D01*
X129449748Y-100619500D01*
X127710252Y-100619500D01*
X127710249Y-100619500D01*
X127651772Y-100631131D01*
X127651767Y-100631133D01*
X127585448Y-100675447D01*
X127585447Y-100675448D01*
X127541133Y-100741767D01*
X127541131Y-100741772D01*
X127529500Y-100800248D01*
X127529500Y-102306446D01*
X127512219Y-102348165D01*
X125878165Y-103982219D01*
X125836446Y-103999500D01*
X120210187Y-103999500D01*
X120168468Y-103982219D01*
X120151187Y-103940500D01*
X120166283Y-103904053D01*
X120165394Y-103903459D01*
X120168384Y-103898982D01*
X120168468Y-103898781D01*
X120168622Y-103898626D01*
X120168622Y-103898624D01*
X120168624Y-103898624D01*
X120180767Y-103880449D01*
X120188096Y-103871518D01*
X121988863Y-102070751D01*
X122030581Y-102053471D01*
X122054579Y-102058572D01*
X122081936Y-102070752D01*
X122150195Y-102101143D01*
X122150196Y-102101143D01*
X122150197Y-102101144D01*
X122335354Y-102140500D01*
X122524646Y-102140500D01*
X122709803Y-102101144D01*
X122882730Y-102024151D01*
X123035871Y-101912888D01*
X123162533Y-101772216D01*
X123257179Y-101608284D01*
X123295111Y-101491539D01*
X123315674Y-101428257D01*
X123320254Y-101384680D01*
X123335460Y-101240000D01*
X123965161Y-101240000D01*
X123984468Y-101436034D01*
X123984469Y-101436036D01*
X124041648Y-101624530D01*
X124041654Y-101624544D01*
X124134503Y-101798254D01*
X124134505Y-101798256D01*
X124163852Y-101834015D01*
X124600998Y-101396869D01*
X124642359Y-101478045D01*
X124731955Y-101567641D01*
X124813129Y-101609001D01*
X124375983Y-102046146D01*
X124375983Y-102046147D01*
X124411743Y-102075494D01*
X124411745Y-102075496D01*
X124585455Y-102168345D01*
X124585469Y-102168351D01*
X124773963Y-102225530D01*
X124773965Y-102225531D01*
X124970000Y-102244838D01*
X125166034Y-102225531D01*
X125166036Y-102225530D01*
X125354530Y-102168351D01*
X125354544Y-102168345D01*
X125528254Y-102075496D01*
X125528262Y-102075490D01*
X125564014Y-102046147D01*
X125564015Y-102046146D01*
X125126870Y-101609001D01*
X125208045Y-101567641D01*
X125297641Y-101478045D01*
X125339001Y-101396870D01*
X125776146Y-101834015D01*
X125776147Y-101834014D01*
X125805490Y-101798262D01*
X125805496Y-101798254D01*
X125898345Y-101624544D01*
X125898351Y-101624530D01*
X125955530Y-101436036D01*
X125955531Y-101436034D01*
X125974838Y-101240000D01*
X125955531Y-101043965D01*
X125955530Y-101043963D01*
X125898351Y-100855469D01*
X125898345Y-100855455D01*
X125805496Y-100681745D01*
X125805494Y-100681743D01*
X125776146Y-100645983D01*
X125339001Y-101083128D01*
X125297641Y-101001955D01*
X125208045Y-100912359D01*
X125126870Y-100870998D01*
X125564015Y-100433852D01*
X125564015Y-100433851D01*
X125528256Y-100404505D01*
X125528254Y-100404503D01*
X125354544Y-100311654D01*
X125354530Y-100311648D01*
X125166036Y-100254469D01*
X125166034Y-100254468D01*
X124970000Y-100235161D01*
X124773965Y-100254468D01*
X124773963Y-100254469D01*
X124585469Y-100311648D01*
X124585455Y-100311654D01*
X124411745Y-100404503D01*
X124411744Y-100404504D01*
X124375984Y-100433852D01*
X124813129Y-100870998D01*
X124731955Y-100912359D01*
X124642359Y-101001955D01*
X124600998Y-101083129D01*
X124163852Y-100645984D01*
X124134504Y-100681744D01*
X124134503Y-100681745D01*
X124041654Y-100855455D01*
X124041648Y-100855469D01*
X123984469Y-101043963D01*
X123984468Y-101043965D01*
X123965161Y-101240000D01*
X123335460Y-101240000D01*
X123315674Y-101051744D01*
X123315674Y-101051742D01*
X123257181Y-100871723D01*
X123257179Y-100871716D01*
X123162533Y-100707784D01*
X123162530Y-100707781D01*
X123162529Y-100707779D01*
X123035869Y-100567110D01*
X122882735Y-100455852D01*
X122882728Y-100455848D01*
X122709804Y-100378856D01*
X122524646Y-100339500D01*
X122335354Y-100339500D01*
X122150195Y-100378856D01*
X121977271Y-100455848D01*
X121977264Y-100455852D01*
X121824130Y-100567110D01*
X121697470Y-100707779D01*
X121697466Y-100707785D01*
X121602825Y-100871707D01*
X121602818Y-100871723D01*
X121544325Y-101051742D01*
X121524540Y-101240000D01*
X121544325Y-101428257D01*
X121602818Y-101608276D01*
X121602823Y-101608289D01*
X121605544Y-101613002D01*
X121611434Y-101657773D01*
X121596165Y-101684217D01*
X119873165Y-103407219D01*
X119831446Y-103424500D01*
X119100686Y-103424500D01*
X119058967Y-103407219D01*
X119003220Y-103351472D01*
X119003217Y-103351470D01*
X118883130Y-103290282D01*
X118883126Y-103290281D01*
X118750000Y-103269196D01*
X118616874Y-103290281D01*
X118616869Y-103290282D01*
X118496782Y-103351470D01*
X118496775Y-103351475D01*
X118401475Y-103446775D01*
X118401470Y-103446782D01*
X118340282Y-103566869D01*
X118340281Y-103566874D01*
X118319196Y-103700000D01*
X118340281Y-103833125D01*
X118340282Y-103833130D01*
X118401470Y-103953217D01*
X118401475Y-103953224D01*
X118496775Y-104048524D01*
X118496778Y-104048526D01*
X118496780Y-104048528D01*
X118496782Y-104048529D01*
X118616869Y-104109717D01*
X118616870Y-104109717D01*
X118616874Y-104109719D01*
X118750000Y-104130804D01*
X118883126Y-104109719D01*
X118888455Y-104107003D01*
X118933468Y-104103458D01*
X118967808Y-104132783D01*
X118971354Y-104177800D01*
X118956960Y-104201291D01*
X118911472Y-104246779D01*
X118911470Y-104246782D01*
X118850282Y-104366869D01*
X118850279Y-104366880D01*
X118844632Y-104402535D01*
X118821038Y-104441037D01*
X118777129Y-104451578D01*
X118744640Y-104435024D01*
X118558101Y-104248485D01*
X118550763Y-104239544D01*
X118538624Y-104221376D01*
X118538622Y-104221374D01*
X118528312Y-104214486D01*
X118515623Y-104206007D01*
X118515622Y-104206006D01*
X118489465Y-104188528D01*
X118447495Y-104160485D01*
X118447491Y-104160483D01*
X118365100Y-104144095D01*
X118365071Y-104144090D01*
X118340002Y-104139103D01*
X118339999Y-104139103D01*
X118318569Y-104143366D01*
X118307058Y-104144500D01*
X115787943Y-104144500D01*
X115776433Y-104143366D01*
X115767662Y-104141621D01*
X115755001Y-104139103D01*
X115754998Y-104139103D01*
X115647510Y-104160482D01*
X115647504Y-104160485D01*
X115579378Y-104206005D01*
X115556375Y-104221376D01*
X115544232Y-104239548D01*
X115536896Y-104248486D01*
X115151218Y-104634164D01*
X115109499Y-104651445D01*
X115067780Y-104634164D01*
X115050499Y-104592446D01*
X115050499Y-104218286D01*
X115040291Y-104148214D01*
X114987449Y-104040125D01*
X114976896Y-104029572D01*
X114960342Y-103997084D01*
X114939719Y-103866874D01*
X114939717Y-103866870D01*
X114939717Y-103866869D01*
X114878529Y-103746782D01*
X114878524Y-103746775D01*
X114783224Y-103651475D01*
X114783217Y-103651470D01*
X114663130Y-103590282D01*
X114663126Y-103590281D01*
X114530000Y-103569196D01*
X114396874Y-103590281D01*
X114396869Y-103590282D01*
X114276782Y-103651470D01*
X114276775Y-103651475D01*
X114181475Y-103746775D01*
X114181470Y-103746782D01*
X114120282Y-103866869D01*
X114120281Y-103866874D01*
X114099658Y-103997081D01*
X114083106Y-104029567D01*
X114072555Y-104040119D01*
X114072548Y-104040128D01*
X114019709Y-104148213D01*
X114019642Y-104148674D01*
X114009500Y-104218285D01*
X114009500Y-104218286D01*
X114009500Y-104218289D01*
X114009500Y-104681709D01*
X114019709Y-104751787D01*
X114072549Y-104859872D01*
X114072552Y-104859876D01*
X114103356Y-104890680D01*
X114120637Y-104932399D01*
X114103356Y-104974118D01*
X114088423Y-104984968D01*
X114016780Y-105021471D01*
X114016775Y-105021475D01*
X113921475Y-105116775D01*
X113921470Y-105116782D01*
X113860282Y-105236869D01*
X113860281Y-105236874D01*
X113839196Y-105370000D01*
X113859284Y-105496834D01*
X113860281Y-105503125D01*
X113860282Y-105503130D01*
X113921470Y-105623217D01*
X113921472Y-105623220D01*
X113992219Y-105693967D01*
X114009500Y-105735686D01*
X114009500Y-105876709D01*
X114019709Y-105946787D01*
X114072549Y-106054872D01*
X114072550Y-106054874D01*
X114072551Y-106054875D01*
X114157625Y-106139949D01*
X114265714Y-106192791D01*
X114335785Y-106203000D01*
X114724214Y-106202999D01*
X114794286Y-106192791D01*
X114902375Y-106139949D01*
X114987449Y-106054875D01*
X115040291Y-105946786D01*
X115050500Y-105876715D01*
X115050499Y-105538552D01*
X115067779Y-105496835D01*
X115319284Y-105245330D01*
X115361000Y-105228051D01*
X115402719Y-105245332D01*
X115420000Y-105287050D01*
X115420000Y-105402302D01*
X115422882Y-105433040D01*
X115422884Y-105433050D01*
X115468182Y-105562506D01*
X115468184Y-105562509D01*
X115549632Y-105672867D01*
X115613712Y-105720160D01*
X115637017Y-105758838D01*
X115626147Y-105802667D01*
X115620396Y-105809349D01*
X115581678Y-105848068D01*
X115581674Y-105848073D01*
X115533416Y-105946786D01*
X115529567Y-105954660D01*
X115519500Y-106023758D01*
X115519500Y-106023763D01*
X115519500Y-106366445D01*
X115502219Y-106408164D01*
X115288486Y-106621896D01*
X115279548Y-106629232D01*
X115261379Y-106641373D01*
X115261374Y-106641377D01*
X115200486Y-106732502D01*
X115199637Y-106735301D01*
X115199351Y-106738206D01*
X115179103Y-106839998D01*
X115179103Y-106840000D01*
X115183366Y-106861431D01*
X115184500Y-106872942D01*
X115184500Y-106910500D01*
X115167219Y-106952219D01*
X115125500Y-106969500D01*
X114390249Y-106969500D01*
X114331772Y-106981131D01*
X114331767Y-106981133D01*
X114265448Y-107025447D01*
X114265447Y-107025448D01*
X114221133Y-107091767D01*
X114221131Y-107091772D01*
X114209500Y-107150248D01*
X114209500Y-108989751D01*
X114221131Y-109048227D01*
X114221133Y-109048232D01*
X114265447Y-109114551D01*
X114267901Y-109117005D01*
X114285182Y-109158724D01*
X114267901Y-109200443D01*
X114250015Y-109212696D01*
X114237526Y-109218210D01*
X114237519Y-109218215D01*
X114158215Y-109297519D01*
X114158212Y-109297523D01*
X114128111Y-109365696D01*
X114095451Y-109396880D01*
X114050306Y-109395837D01*
X114021133Y-109367776D01*
X113987451Y-109298879D01*
X113987450Y-109298877D01*
X113987449Y-109298875D01*
X113902375Y-109213801D01*
X113902373Y-109213800D01*
X113902370Y-109213798D01*
X113794286Y-109160959D01*
X113724215Y-109150750D01*
X113724210Y-109150750D01*
X113335790Y-109150750D01*
X113265712Y-109160959D01*
X113157627Y-109213799D01*
X113157623Y-109213802D01*
X113072552Y-109298873D01*
X113072549Y-109298877D01*
X113042227Y-109360902D01*
X113008379Y-109390792D01*
X112963309Y-109387994D01*
X112936217Y-109360901D01*
X112919951Y-109327629D01*
X112919950Y-109327627D01*
X112919949Y-109327625D01*
X112834875Y-109242551D01*
X112834874Y-109242550D01*
X112834872Y-109242549D01*
X112753177Y-109202611D01*
X112733586Y-109193033D01*
X112703697Y-109159186D01*
X112700500Y-109140029D01*
X112700500Y-108047942D01*
X112701634Y-108036431D01*
X112705897Y-108015000D01*
X112705897Y-108014999D01*
X112693936Y-107954869D01*
X112693104Y-107950686D01*
X112684515Y-107907505D01*
X112656471Y-107865534D01*
X112638994Y-107839378D01*
X112638992Y-107839376D01*
X112623624Y-107816376D01*
X112605454Y-107804235D01*
X112596513Y-107796897D01*
X111608101Y-106808485D01*
X111600763Y-106799544D01*
X111598892Y-106796744D01*
X111588624Y-106781376D01*
X111588622Y-106781374D01*
X111578312Y-106774486D01*
X111565623Y-106766007D01*
X111565622Y-106766006D01*
X111539465Y-106748528D01*
X111497495Y-106720485D01*
X111497491Y-106720483D01*
X111415100Y-106704095D01*
X111415071Y-106704090D01*
X111390002Y-106699103D01*
X111384189Y-106699103D01*
X111384189Y-106697026D01*
X111348022Y-106689827D01*
X111327803Y-106666687D01*
X111306700Y-106623521D01*
X111306699Y-106623519D01*
X111306698Y-106623517D01*
X111223983Y-106540802D01*
X111223982Y-106540801D01*
X111223980Y-106540800D01*
X111118894Y-106489427D01*
X111107537Y-106487772D01*
X111050760Y-106479500D01*
X109809240Y-106479500D01*
X109760573Y-106486590D01*
X109741105Y-106489427D01*
X109741104Y-106489427D01*
X109636019Y-106540800D01*
X109636015Y-106540803D01*
X109553303Y-106623515D01*
X109553300Y-106623519D01*
X109501927Y-106728604D01*
X109501927Y-106728605D01*
X109498810Y-106750000D01*
X109492000Y-106796740D01*
X109492000Y-107163260D01*
X109497822Y-107203217D01*
X109501927Y-107231394D01*
X109501927Y-107231395D01*
X109553300Y-107336480D01*
X109553301Y-107336482D01*
X109553302Y-107336483D01*
X109636017Y-107419198D01*
X109741107Y-107470573D01*
X109809240Y-107480500D01*
X109809245Y-107480500D01*
X111050755Y-107480500D01*
X111050760Y-107480500D01*
X111118893Y-107470573D01*
X111223983Y-107419198D01*
X111290065Y-107353115D01*
X111331782Y-107335836D01*
X111373499Y-107353115D01*
X111373501Y-107353117D01*
X112132219Y-108111835D01*
X112149500Y-108153554D01*
X112149500Y-109140029D01*
X112132219Y-109181748D01*
X112116413Y-109193034D01*
X112015127Y-109242549D01*
X112015123Y-109242552D01*
X111930052Y-109327623D01*
X111930049Y-109327627D01*
X111880505Y-109428972D01*
X111846657Y-109458862D01*
X111801587Y-109456064D01*
X111774495Y-109428972D01*
X111724950Y-109327627D01*
X111724949Y-109327626D01*
X111724949Y-109327625D01*
X111639875Y-109242551D01*
X111639873Y-109242550D01*
X111639870Y-109242548D01*
X111531786Y-109189709D01*
X111461715Y-109179500D01*
X111461710Y-109179500D01*
X110998290Y-109179500D01*
X110928212Y-109189709D01*
X110820127Y-109242549D01*
X110820123Y-109242552D01*
X110735052Y-109327623D01*
X110735049Y-109327628D01*
X110728310Y-109341413D01*
X110694461Y-109371304D01*
X110675305Y-109374500D01*
X110665497Y-109374500D01*
X110662943Y-109374388D01*
X110621193Y-109370736D01*
X110621189Y-109370736D01*
X110580709Y-109381582D01*
X110578197Y-109382139D01*
X110536957Y-109389411D01*
X110536948Y-109389414D01*
X110531082Y-109392801D01*
X110516862Y-109398691D01*
X110510319Y-109400444D01*
X110510312Y-109400447D01*
X110475997Y-109424474D01*
X110473828Y-109425856D01*
X110437546Y-109446804D01*
X110437544Y-109446806D01*
X110410609Y-109478905D01*
X110408870Y-109480802D01*
X109882455Y-110007219D01*
X109840736Y-110024500D01*
X107394500Y-110024500D01*
X107352781Y-110007219D01*
X107335500Y-109965500D01*
X107335500Y-108574209D01*
X107554500Y-108574209D01*
X107564709Y-108644287D01*
X107617549Y-108752372D01*
X107617550Y-108752374D01*
X107617551Y-108752375D01*
X107702625Y-108837449D01*
X107810714Y-108890291D01*
X107880785Y-108900500D01*
X108344214Y-108900499D01*
X108414286Y-108890291D01*
X108522375Y-108837449D01*
X108607449Y-108752375D01*
X108656995Y-108651026D01*
X108690841Y-108621137D01*
X108735911Y-108623935D01*
X108763004Y-108651027D01*
X108812549Y-108752372D01*
X108812552Y-108752376D01*
X108880510Y-108820334D01*
X108897064Y-108852822D01*
X108900279Y-108873122D01*
X108900281Y-108873127D01*
X108961470Y-108993217D01*
X108961475Y-108993224D01*
X109056775Y-109088524D01*
X109056778Y-109088526D01*
X109056780Y-109088528D01*
X109056782Y-109088529D01*
X109176869Y-109149717D01*
X109176870Y-109149717D01*
X109176874Y-109149719D01*
X109310000Y-109170804D01*
X109443126Y-109149719D01*
X109563220Y-109088528D01*
X109658528Y-108993220D01*
X109719719Y-108873126D01*
X109723875Y-108846882D01*
X109740427Y-108814395D01*
X109802449Y-108752375D01*
X109855291Y-108644286D01*
X109865500Y-108574215D01*
X109865499Y-108185786D01*
X109855291Y-108115714D01*
X109802449Y-108007625D01*
X109717375Y-107922551D01*
X109717373Y-107922550D01*
X109717370Y-107922548D01*
X109609286Y-107869709D01*
X109539215Y-107859500D01*
X109539210Y-107859500D01*
X109075790Y-107859500D01*
X109005712Y-107869709D01*
X108897627Y-107922549D01*
X108897623Y-107922552D01*
X108812552Y-108007623D01*
X108812549Y-108007627D01*
X108763005Y-108108972D01*
X108729157Y-108138862D01*
X108684087Y-108136064D01*
X108656995Y-108108972D01*
X108607450Y-108007627D01*
X108607449Y-108007626D01*
X108607449Y-108007625D01*
X108572781Y-107972957D01*
X108555500Y-107931238D01*
X108555500Y-106589500D01*
X108572781Y-106547781D01*
X108614500Y-106530500D01*
X109175755Y-106530500D01*
X109175760Y-106530500D01*
X109243893Y-106520573D01*
X109348983Y-106469198D01*
X109431698Y-106386483D01*
X109483073Y-106281393D01*
X109493000Y-106213260D01*
X109493000Y-105846740D01*
X109483073Y-105778607D01*
X109481197Y-105774770D01*
X109431699Y-105673519D01*
X109431698Y-105673518D01*
X109431698Y-105673517D01*
X109348983Y-105590802D01*
X109348982Y-105590801D01*
X109348980Y-105590800D01*
X109243894Y-105539427D01*
X109232537Y-105537772D01*
X109175760Y-105529500D01*
X107934240Y-105529500D01*
X107885573Y-105536590D01*
X107866105Y-105539427D01*
X107866104Y-105539427D01*
X107761019Y-105590800D01*
X107761015Y-105590803D01*
X107678303Y-105673515D01*
X107678300Y-105673519D01*
X107626927Y-105778604D01*
X107626927Y-105778605D01*
X107626927Y-105778607D01*
X107617000Y-105846740D01*
X107617000Y-106213260D01*
X107625272Y-106270037D01*
X107626927Y-106281394D01*
X107626927Y-106281395D01*
X107678300Y-106386480D01*
X107678301Y-106386482D01*
X107678302Y-106386483D01*
X107761017Y-106469198D01*
X107866107Y-106520573D01*
X107934240Y-106530500D01*
X107945500Y-106530500D01*
X107987219Y-106547781D01*
X108004500Y-106589500D01*
X108004500Y-107800500D01*
X107987219Y-107842219D01*
X107945501Y-107859500D01*
X107880790Y-107859500D01*
X107810712Y-107869709D01*
X107702627Y-107922549D01*
X107702623Y-107922552D01*
X107617552Y-108007623D01*
X107617548Y-108007629D01*
X107564709Y-108115713D01*
X107564709Y-108115714D01*
X107554500Y-108185785D01*
X107554500Y-108185786D01*
X107554500Y-108185789D01*
X107554500Y-108574209D01*
X107335500Y-108574209D01*
X107335500Y-105263260D01*
X109492000Y-105263260D01*
X109496845Y-105296513D01*
X109501927Y-105331394D01*
X109501927Y-105331395D01*
X109553300Y-105436480D01*
X109553301Y-105436482D01*
X109553302Y-105436483D01*
X109636017Y-105519198D01*
X109741107Y-105570573D01*
X109809240Y-105580500D01*
X110038645Y-105580500D01*
X110080364Y-105597781D01*
X110091213Y-105612712D01*
X110091471Y-105613218D01*
X110091475Y-105613224D01*
X110186775Y-105708524D01*
X110186778Y-105708526D01*
X110186780Y-105708528D01*
X110186782Y-105708529D01*
X110306869Y-105769717D01*
X110306870Y-105769717D01*
X110306874Y-105769719D01*
X110440000Y-105790804D01*
X110573126Y-105769719D01*
X110693220Y-105708528D01*
X110788528Y-105613220D01*
X110788787Y-105612712D01*
X110789076Y-105612464D01*
X110791255Y-105609466D01*
X110791975Y-105609989D01*
X110823126Y-105583387D01*
X110841355Y-105580500D01*
X111050755Y-105580500D01*
X111050760Y-105580500D01*
X111118893Y-105570573D01*
X111223983Y-105519198D01*
X111306698Y-105436483D01*
X111358073Y-105331393D01*
X111368000Y-105263260D01*
X111368000Y-104896740D01*
X111358073Y-104828607D01*
X111333905Y-104779171D01*
X111306699Y-104723519D01*
X111306698Y-104723518D01*
X111306698Y-104723517D01*
X111223983Y-104640802D01*
X111223982Y-104640801D01*
X111223980Y-104640800D01*
X111118894Y-104589427D01*
X111107537Y-104587772D01*
X111050760Y-104579500D01*
X109809240Y-104579500D01*
X109760573Y-104586590D01*
X109741105Y-104589427D01*
X109741104Y-104589427D01*
X109636019Y-104640800D01*
X109636015Y-104640803D01*
X109553303Y-104723515D01*
X109553300Y-104723519D01*
X109501927Y-104828604D01*
X109501927Y-104828605D01*
X109498883Y-104849500D01*
X109492000Y-104896740D01*
X109492000Y-105263260D01*
X107335500Y-105263260D01*
X107335500Y-104429263D01*
X107352780Y-104387545D01*
X107535877Y-104204447D01*
X107568361Y-104187895D01*
X107683126Y-104169719D01*
X107803220Y-104108528D01*
X107898528Y-104013220D01*
X107959719Y-103893126D01*
X107980804Y-103760000D01*
X107959719Y-103626874D01*
X107959717Y-103626870D01*
X107959717Y-103626869D01*
X107898529Y-103506782D01*
X107898524Y-103506775D01*
X107803224Y-103411475D01*
X107803217Y-103411470D01*
X107683130Y-103350282D01*
X107683126Y-103350281D01*
X107550000Y-103329196D01*
X107416874Y-103350281D01*
X107416869Y-103350282D01*
X107296782Y-103411470D01*
X107296775Y-103411475D01*
X107201475Y-103506775D01*
X107201470Y-103506782D01*
X107140282Y-103626869D01*
X107140279Y-103626879D01*
X107133395Y-103670342D01*
X107116841Y-103702830D01*
X106790800Y-104028872D01*
X106788903Y-104030611D01*
X106756806Y-104057544D01*
X106756804Y-104057546D01*
X106735856Y-104093828D01*
X106734474Y-104095997D01*
X106710447Y-104130312D01*
X106710444Y-104130319D01*
X106708691Y-104136862D01*
X106702801Y-104151082D01*
X106699414Y-104156948D01*
X106699411Y-104156957D01*
X106692139Y-104198197D01*
X106691582Y-104200709D01*
X106680736Y-104241189D01*
X106680736Y-104241193D01*
X106684388Y-104282941D01*
X106684500Y-104285497D01*
X106684500Y-110049677D01*
X106673236Y-110084351D01*
X106671471Y-110086780D01*
X106610282Y-110206869D01*
X106610281Y-110206874D01*
X106589196Y-110340000D01*
X106610281Y-110473125D01*
X106610282Y-110473130D01*
X106671470Y-110593217D01*
X106671475Y-110593224D01*
X106766775Y-110688524D01*
X106766778Y-110688526D01*
X106766780Y-110688528D01*
X106766782Y-110688529D01*
X106886869Y-110749717D01*
X106886870Y-110749717D01*
X106886874Y-110749719D01*
X107020000Y-110770804D01*
X107153126Y-110749719D01*
X107273220Y-110688528D01*
X107273221Y-110688526D01*
X107275644Y-110686767D01*
X107310322Y-110675500D01*
X109984503Y-110675500D01*
X109987056Y-110675611D01*
X110028807Y-110679264D01*
X110069293Y-110668415D01*
X110071776Y-110667864D01*
X110113045Y-110660588D01*
X110118911Y-110657200D01*
X110133144Y-110651306D01*
X110133559Y-110651194D01*
X110139684Y-110649554D01*
X110147840Y-110643842D01*
X110174000Y-110625526D01*
X110176171Y-110624142D01*
X110212455Y-110603194D01*
X110239403Y-110571077D01*
X110241107Y-110569217D01*
X110572441Y-110237883D01*
X110614158Y-110220604D01*
X110655877Y-110237885D01*
X110673158Y-110279604D01*
X110661630Y-110314639D01*
X110626212Y-110362629D01*
X110626211Y-110362632D01*
X110580413Y-110493514D01*
X110577500Y-110524587D01*
X110577500Y-110590000D01*
X111326000Y-110590000D01*
X111367719Y-110607281D01*
X111385000Y-110649000D01*
X111385000Y-111360000D01*
X111487913Y-111360000D01*
X111518985Y-111357086D01*
X111649867Y-111311288D01*
X111649874Y-111311284D01*
X111761443Y-111228943D01*
X111843951Y-111117149D01*
X111882628Y-111093843D01*
X111926457Y-111104713D01*
X111933141Y-111110465D01*
X111935051Y-111112375D01*
X112020125Y-111197449D01*
X112128214Y-111250291D01*
X112198285Y-111260500D01*
X112661714Y-111260499D01*
X112731786Y-111250291D01*
X112839875Y-111197449D01*
X112912665Y-111124658D01*
X112954382Y-111107379D01*
X112996101Y-111124659D01*
X113012766Y-111157874D01*
X113019709Y-111205537D01*
X113072549Y-111313622D01*
X113072552Y-111313626D01*
X113103880Y-111344954D01*
X113121161Y-111386673D01*
X113120435Y-111395902D01*
X113120281Y-111396873D01*
X113120281Y-111396874D01*
X113115661Y-111426041D01*
X113103948Y-111500000D01*
X113099196Y-111530000D01*
X113114639Y-111627500D01*
X113120281Y-111663125D01*
X113120282Y-111663130D01*
X113181470Y-111783217D01*
X113181475Y-111783224D01*
X113276775Y-111878524D01*
X113276778Y-111878526D01*
X113276780Y-111878528D01*
X113276782Y-111878529D01*
X113396869Y-111939717D01*
X113396870Y-111939717D01*
X113396874Y-111939719D01*
X113530000Y-111960804D01*
X113583910Y-111952265D01*
X113627817Y-111962807D01*
X113651412Y-112001309D01*
X113640870Y-112045218D01*
X113620558Y-112062780D01*
X113589147Y-112079266D01*
X113589144Y-112079268D01*
X113461819Y-112192068D01*
X113461814Y-112192073D01*
X113399318Y-112282614D01*
X113361396Y-112307132D01*
X113323977Y-112301667D01*
X113223130Y-112250282D01*
X113223126Y-112250281D01*
X113090000Y-112229196D01*
X112956874Y-112250281D01*
X112956869Y-112250282D01*
X112836782Y-112311470D01*
X112836775Y-112311475D01*
X112741475Y-112406775D01*
X112741470Y-112406782D01*
X112680282Y-112526869D01*
X112680281Y-112526874D01*
X112659196Y-112660000D01*
X112680281Y-112793125D01*
X112680282Y-112793130D01*
X112741470Y-112913217D01*
X112741475Y-112913224D01*
X112836775Y-113008524D01*
X112836778Y-113008526D01*
X112836780Y-113008528D01*
X112836782Y-113008529D01*
X112956869Y-113069717D01*
X112956870Y-113069717D01*
X112956874Y-113069719D01*
X113090000Y-113090804D01*
X113223126Y-113069719D01*
X113323978Y-113018331D01*
X113368995Y-113014789D01*
X113399318Y-113037384D01*
X113442539Y-113100000D01*
X113461815Y-113127926D01*
X113461819Y-113127931D01*
X113589144Y-113240731D01*
X113589145Y-113240731D01*
X113589148Y-113240734D01*
X113679697Y-113288258D01*
X113708607Y-113322948D01*
X113704520Y-113367919D01*
X113669830Y-113396829D01*
X113652278Y-113399500D01*
X111787722Y-113399500D01*
X111746003Y-113382219D01*
X111728722Y-113340500D01*
X111746003Y-113298781D01*
X111760301Y-113288259D01*
X111850852Y-113240734D01*
X111978183Y-113127929D01*
X112074818Y-112987930D01*
X112135140Y-112828872D01*
X112155645Y-112660000D01*
X112137534Y-112510844D01*
X112149660Y-112467347D01*
X112186873Y-112445460D01*
X112223126Y-112439719D01*
X112343220Y-112378528D01*
X112438528Y-112283220D01*
X112499719Y-112163126D01*
X112520804Y-112030000D01*
X112499719Y-111896874D01*
X112499717Y-111896870D01*
X112499717Y-111896869D01*
X112438529Y-111776782D01*
X112438524Y-111776775D01*
X112343224Y-111681475D01*
X112343217Y-111681470D01*
X112223130Y-111620282D01*
X112223126Y-111620281D01*
X112090000Y-111599196D01*
X111956874Y-111620281D01*
X111956869Y-111620282D01*
X111836782Y-111681470D01*
X111836775Y-111681475D01*
X111741475Y-111776775D01*
X111741470Y-111776782D01*
X111680282Y-111896869D01*
X111680279Y-111896879D01*
X111675322Y-111928175D01*
X111651727Y-111966676D01*
X111607817Y-111977216D01*
X111602930Y-111976229D01*
X111535056Y-111959500D01*
X111364944Y-111959500D01*
X111199779Y-112000208D01*
X111199776Y-112000209D01*
X111049144Y-112079268D01*
X110921819Y-112192068D01*
X110921815Y-112192073D01*
X110825183Y-112332067D01*
X110825183Y-112332068D01*
X110825182Y-112332070D01*
X110810614Y-112370482D01*
X110764860Y-112491126D01*
X110744355Y-112660000D01*
X110762549Y-112809844D01*
X110764860Y-112828872D01*
X110825182Y-112987930D01*
X110825183Y-112987931D01*
X110825183Y-112987932D01*
X110921815Y-113127926D01*
X110921819Y-113127931D01*
X111049144Y-113240731D01*
X111049145Y-113240731D01*
X111049148Y-113240734D01*
X111139697Y-113288258D01*
X111168607Y-113322948D01*
X111164520Y-113367919D01*
X111129830Y-113396829D01*
X111112278Y-113399500D01*
X109659500Y-113399500D01*
X109617781Y-113382219D01*
X109600500Y-113340500D01*
X109600500Y-111910608D01*
X109577046Y-111800268D01*
X109563329Y-111735733D01*
X109563328Y-111735732D01*
X109563328Y-111735729D01*
X109563327Y-111735728D01*
X109490616Y-111572416D01*
X109490610Y-111572405D01*
X109385528Y-111427771D01*
X109307024Y-111357086D01*
X109252665Y-111308141D01*
X109252662Y-111308139D01*
X109252658Y-111308136D01*
X109097843Y-111218754D01*
X109097838Y-111218752D01*
X109097835Y-111218750D01*
X109097830Y-111218748D01*
X109097827Y-111218747D01*
X108927803Y-111163502D01*
X108750000Y-111144815D01*
X108572196Y-111163502D01*
X108402172Y-111218747D01*
X108402156Y-111218754D01*
X108247341Y-111308136D01*
X108247336Y-111308140D01*
X108114471Y-111427771D01*
X108009389Y-111572405D01*
X108009383Y-111572416D01*
X107936672Y-111735728D01*
X107936671Y-111735729D01*
X107899500Y-111910608D01*
X107899500Y-113340500D01*
X107882219Y-113382219D01*
X107840500Y-113399500D01*
X104691931Y-113399500D01*
X104650212Y-113382219D01*
X104632931Y-113340500D01*
X104647342Y-113301863D01*
X104700108Y-113240967D01*
X104700110Y-113240964D01*
X104805146Y-113059037D01*
X104873856Y-112860513D01*
X104889745Y-112750000D01*
X103827065Y-112750000D01*
X103850000Y-112671889D01*
X103850000Y-112528111D01*
X103827065Y-112450000D01*
X104894102Y-112450000D01*
X104893756Y-112442743D01*
X104844229Y-112238587D01*
X104844226Y-112238580D01*
X104756964Y-112047502D01*
X104756962Y-112047499D01*
X104635107Y-111876377D01*
X104635106Y-111876376D01*
X104483072Y-111731411D01*
X104306343Y-111617834D01*
X104306337Y-111617831D01*
X104111316Y-111539756D01*
X104111312Y-111539755D01*
X103905037Y-111500000D01*
X102750000Y-111500000D01*
X102750000Y-112100000D01*
X102450000Y-112100000D01*
X102450000Y-111500000D01*
X101347599Y-111500000D01*
X101190880Y-111514964D01*
X101190871Y-111514966D01*
X100989314Y-111574148D01*
X100989304Y-111574152D01*
X100802597Y-111670407D01*
X100802582Y-111670416D01*
X100637462Y-111800268D01*
X100637460Y-111800270D01*
X100499891Y-111959032D01*
X100499889Y-111959035D01*
X100394853Y-112140962D01*
X100326143Y-112339486D01*
X100310255Y-112450000D01*
X101372935Y-112450000D01*
X101350000Y-112528111D01*
X101350000Y-112671889D01*
X101372935Y-112750000D01*
X100305897Y-112750000D01*
X100306243Y-112757256D01*
X100355770Y-112961412D01*
X100355773Y-112961419D01*
X100443035Y-113152497D01*
X100443037Y-113152500D01*
X100552541Y-113306277D01*
X100562664Y-113350284D01*
X100538704Y-113388560D01*
X100504481Y-113399500D01*
X100159500Y-113399500D01*
X100117781Y-113382219D01*
X100100500Y-113340500D01*
X100100500Y-110890000D01*
X110577500Y-110890000D01*
X110577500Y-110955412D01*
X110580413Y-110986485D01*
X110626211Y-111117367D01*
X110626215Y-111117374D01*
X110708556Y-111228943D01*
X110820125Y-111311284D01*
X110820132Y-111311288D01*
X110951015Y-111357086D01*
X110951012Y-111357086D01*
X110982087Y-111360000D01*
X111085000Y-111360000D01*
X111085000Y-110890000D01*
X110577500Y-110890000D01*
X100100500Y-110890000D01*
X100100500Y-108958830D01*
X101945624Y-108958830D01*
X101955944Y-109122860D01*
X101955945Y-109122863D01*
X102006730Y-109279167D01*
X102006731Y-109279169D01*
X102006732Y-109279171D01*
X102094798Y-109417940D01*
X102214607Y-109530448D01*
X102358632Y-109609627D01*
X102438227Y-109630063D01*
X102517821Y-109650500D01*
X102517823Y-109650500D01*
X102640923Y-109650500D01*
X102640925Y-109650500D01*
X102763058Y-109635071D01*
X102915871Y-109574568D01*
X103048837Y-109477963D01*
X103153600Y-109351326D01*
X103223579Y-109202613D01*
X103254376Y-109041170D01*
X103244056Y-108877140D01*
X103193268Y-108720829D01*
X103105202Y-108582060D01*
X103064234Y-108543589D01*
X102985394Y-108469553D01*
X102985393Y-108469552D01*
X102841368Y-108390373D01*
X102841365Y-108390372D01*
X102682180Y-108349500D01*
X102682177Y-108349500D01*
X102559075Y-108349500D01*
X102528219Y-108353398D01*
X102436944Y-108364928D01*
X102372680Y-108390372D01*
X102284129Y-108425432D01*
X102284127Y-108425432D01*
X102284123Y-108425435D01*
X102151162Y-108522037D01*
X102046402Y-108648670D01*
X102046399Y-108648675D01*
X102045292Y-108651028D01*
X101976421Y-108797387D01*
X101945624Y-108958830D01*
X100100500Y-108958830D01*
X100100500Y-104458830D01*
X101945624Y-104458830D01*
X101955944Y-104622860D01*
X101955945Y-104622863D01*
X102006730Y-104779167D01*
X102006731Y-104779169D01*
X102006732Y-104779171D01*
X102094798Y-104917940D01*
X102214607Y-105030448D01*
X102358632Y-105109627D01*
X102438227Y-105130063D01*
X102517821Y-105150500D01*
X102517823Y-105150500D01*
X102640923Y-105150500D01*
X102640925Y-105150500D01*
X102763058Y-105135071D01*
X102915871Y-105074568D01*
X103048837Y-104977963D01*
X103153600Y-104851326D01*
X103223579Y-104702613D01*
X103254376Y-104541170D01*
X103244056Y-104377140D01*
X103193268Y-104220829D01*
X103105202Y-104082060D01*
X102985393Y-103969552D01*
X102841368Y-103890373D01*
X102841365Y-103890372D01*
X102682180Y-103849500D01*
X102682177Y-103849500D01*
X102559075Y-103849500D01*
X102528219Y-103853398D01*
X102436944Y-103864928D01*
X102409932Y-103875623D01*
X102284129Y-103925432D01*
X102284127Y-103925432D01*
X102284123Y-103925435D01*
X102151162Y-104022037D01*
X102046402Y-104148670D01*
X102046399Y-104148675D01*
X102019421Y-104206007D01*
X101976421Y-104297387D01*
X101945624Y-104458830D01*
X100100500Y-104458830D01*
X100100500Y-100159500D01*
X100117781Y-100117781D01*
X100159500Y-100100500D01*
X100508069Y-100100500D01*
X100549788Y-100117781D01*
G37*
%TD.AperFunction*%
%TD*%
M02*
