%TF.GenerationSoftware,KiCad,Pcbnew,7.0.9*%
%TF.CreationDate,2024-09-12T17:06:43+08:00*%
%TF.ProjectId,FlyingStone-clone-01,466c7969-6e67-4537-946f-6e652d636c6f,rev?*%
%TF.SameCoordinates,Original*%
%TF.FileFunction,Copper,L1,Top*%
%TF.FilePolarity,Positive*%
%FSLAX46Y46*%
G04 Gerber Fmt 4.6, Leading zero omitted, Abs format (unit mm)*
G04 Created by KiCad (PCBNEW 7.0.9) date 2024-09-12 17:06:43*
%MOMM*%
%LPD*%
G01*
G04 APERTURE LIST*
G04 Aperture macros list*
%AMRoundRect*
0 Rectangle with rounded corners*
0 $1 Rounding radius*
0 $2 $3 $4 $5 $6 $7 $8 $9 X,Y pos of 4 corners*
0 Add a 4 corners polygon primitive as box body*
4,1,4,$2,$3,$4,$5,$6,$7,$8,$9,$2,$3,0*
0 Add four circle primitives for the rounded corners*
1,1,$1+$1,$2,$3*
1,1,$1+$1,$4,$5*
1,1,$1+$1,$6,$7*
1,1,$1+$1,$8,$9*
0 Add four rect primitives between the rounded corners*
20,1,$1+$1,$2,$3,$4,$5,0*
20,1,$1+$1,$4,$5,$6,$7,0*
20,1,$1+$1,$6,$7,$8,$9,0*
20,1,$1+$1,$8,$9,$2,$3,0*%
G04 Aperture macros list end*
%TA.AperFunction,SMDPad,CuDef*%
%ADD10RoundRect,0.175000X-0.725000X0.175000X-0.725000X-0.175000X0.725000X-0.175000X0.725000X0.175000X0*%
%TD*%
%TA.AperFunction,SMDPad,CuDef*%
%ADD11RoundRect,0.175000X0.725000X0.175000X-0.725000X0.175000X-0.725000X-0.175000X0.725000X-0.175000X0*%
%TD*%
%TA.AperFunction,ComponentPad*%
%ADD12O,4.000000X1.600000*%
%TD*%
%TA.AperFunction,SMDPad,CuDef*%
%ADD13RoundRect,0.160000X0.197500X0.160000X-0.197500X0.160000X-0.197500X-0.160000X0.197500X-0.160000X0*%
%TD*%
%TA.AperFunction,SMDPad,CuDef*%
%ADD14RoundRect,0.160000X0.222500X0.160000X-0.222500X0.160000X-0.222500X-0.160000X0.222500X-0.160000X0*%
%TD*%
%TA.AperFunction,SMDPad,CuDef*%
%ADD15RoundRect,0.155000X-0.212500X-0.155000X0.212500X-0.155000X0.212500X0.155000X-0.212500X0.155000X0*%
%TD*%
%TA.AperFunction,SMDPad,CuDef*%
%ADD16RoundRect,0.160000X-0.197500X-0.160000X0.197500X-0.160000X0.197500X0.160000X-0.197500X0.160000X0*%
%TD*%
%TA.AperFunction,ComponentPad*%
%ADD17R,1.700000X1.700000*%
%TD*%
%TA.AperFunction,ComponentPad*%
%ADD18O,1.700000X1.700000*%
%TD*%
%TA.AperFunction,SMDPad,CuDef*%
%ADD19RoundRect,0.150000X-0.512500X-0.150000X0.512500X-0.150000X0.512500X0.150000X-0.512500X0.150000X0*%
%TD*%
%TA.AperFunction,SMDPad,CuDef*%
%ADD20RoundRect,0.155000X0.212500X0.155000X-0.212500X0.155000X-0.212500X-0.155000X0.212500X-0.155000X0*%
%TD*%
%TA.AperFunction,ComponentPad*%
%ADD21C,1.400000*%
%TD*%
%TA.AperFunction,SMDPad,CuDef*%
%ADD22RoundRect,0.150000X0.200000X-0.150000X0.200000X0.150000X-0.200000X0.150000X-0.200000X-0.150000X0*%
%TD*%
%TA.AperFunction,SMDPad,CuDef*%
%ADD23RoundRect,0.075000X0.662500X0.075000X-0.662500X0.075000X-0.662500X-0.075000X0.662500X-0.075000X0*%
%TD*%
%TA.AperFunction,SMDPad,CuDef*%
%ADD24RoundRect,0.075000X0.075000X0.662500X-0.075000X0.662500X-0.075000X-0.662500X0.075000X-0.662500X0*%
%TD*%
%TA.AperFunction,SMDPad,CuDef*%
%ADD25RoundRect,0.150000X0.512500X0.150000X-0.512500X0.150000X-0.512500X-0.150000X0.512500X-0.150000X0*%
%TD*%
%TA.AperFunction,SMDPad,CuDef*%
%ADD26RoundRect,0.155000X0.155000X-0.212500X0.155000X0.212500X-0.155000X0.212500X-0.155000X-0.212500X0*%
%TD*%
%TA.AperFunction,ViaPad*%
%ADD27C,0.450000*%
%TD*%
%TA.AperFunction,Conductor*%
%ADD28C,0.250000*%
%TD*%
%TA.AperFunction,Conductor*%
%ADD29C,0.150000*%
%TD*%
G04 APERTURE END LIST*
D10*
%TO.P,J1,1,VBUS*%
%TO.N,VBUS*%
X105050000Y-109750000D03*
%TO.P,J1,2,D-*%
%TO.N,Net-(J1-D-)*%
X105050000Y-107750000D03*
%TO.P,J1,3,D+*%
%TO.N,Net-(J1-D+)*%
X105050000Y-105750000D03*
%TO.P,J1,4,GND*%
%TO.N,GND*%
X105050000Y-103750000D03*
%TO.P,J1,5,SSRX-*%
%TO.N,unconnected-(J1-SSRX--Pad5)*%
X105050000Y-102750000D03*
%TO.P,J1,6,SSRX+*%
%TO.N,unconnected-(J1-SSRX+-Pad6)*%
X105050000Y-104750000D03*
%TO.P,J1,7,DRAIN*%
%TO.N,unconnected-(J1-DRAIN-Pad7)*%
X105050000Y-106750000D03*
%TO.P,J1,8,SSTX-*%
%TO.N,unconnected-(J1-SSTX--Pad8)*%
X105050000Y-108750000D03*
D11*
%TO.P,J1,9,SSTX+*%
%TO.N,unconnected-(J1-SSTX+-Pad9)*%
X105050000Y-110750000D03*
D12*
%TO.P,J1,10,SHIELD*%
%TO.N,GND*%
X102600000Y-112600000D03*
X102600000Y-100900000D03*
%TD*%
D13*
%TO.P,R8,1*%
%TO.N,GND*%
X124315000Y-108520000D03*
%TO.P,R8,2*%
%TO.N,Net-(U1-PC14)*%
X123120000Y-108520000D03*
%TD*%
%TO.P,R7,1*%
%TO.N,GND*%
X124315000Y-109520000D03*
%TO.P,R7,2*%
%TO.N,Net-(U1-PC13)*%
X123120000Y-109520000D03*
%TD*%
D14*
%TO.P,D2,1,K*%
%TO.N,GND*%
X111562500Y-101800000D03*
%TO.P,D2,2,A*%
%TO.N,Net-(D2-A)*%
X110417500Y-101800000D03*
%TD*%
D15*
%TO.P,C9,1*%
%TO.N,Net-(U1-NRST)*%
X123135000Y-107510000D03*
%TO.P,C9,2*%
%TO.N,GND*%
X124270000Y-107510000D03*
%TD*%
D16*
%TO.P,R5,1*%
%TO.N,Net-(U1-PA0)*%
X123100000Y-103490000D03*
%TO.P,R5,2*%
%TO.N,+3.3V*%
X124295000Y-103490000D03*
%TD*%
D17*
%TO.P,J2,1,Pin_1*%
%TO.N,STLK_JTCK*%
X128580000Y-101670000D03*
D18*
%TO.P,J2,2,Pin_2*%
%TO.N,STLK_JTMS*%
X128580000Y-104210000D03*
%TO.P,J2,3,Pin_3*%
%TO.N,T_NRST*%
X128580000Y-106750000D03*
%TO.P,J2,4,Pin_4*%
%TO.N,STLK_RX*%
X128580000Y-109290000D03*
%TO.P,J2,5,Pin_5*%
%TO.N,STLK_TX*%
X128580000Y-111830000D03*
%TD*%
D19*
%TO.P,U3,1,VIN*%
%TO.N,+5V*%
X108175000Y-104360000D03*
%TO.P,U3,2,GND*%
%TO.N,GND*%
X108175000Y-105310000D03*
%TO.P,U3,3,ON/~{OFF}*%
%TO.N,+5V*%
X108175000Y-106260000D03*
%TO.P,U3,4,BP*%
%TO.N,unconnected-(U3-BP-Pad4)*%
X110450000Y-106260000D03*
%TO.P,U3,5,VOUT*%
%TO.N,+3.3V*%
X110450000Y-104360000D03*
%TD*%
D20*
%TO.P,C2,1*%
%TO.N,+3.3V*%
X110970000Y-103080000D03*
%TO.P,C2,2*%
%TO.N,GND*%
X109835000Y-103080000D03*
%TD*%
D21*
%TO.P,SW1,1,1*%
%TO.N,GND*%
X124970000Y-101240000D03*
%TO.P,SW1,2,2*%
%TO.N,PA5*%
X122430000Y-101240000D03*
%TD*%
D16*
%TO.P,R12,1*%
%TO.N,Net-(D2-A)*%
X110395000Y-100800000D03*
%TO.P,R12,2*%
%TO.N,LED*%
X111590000Y-100800000D03*
%TD*%
D22*
%TO.P,D1,1,K*%
%TO.N,+5V*%
X107150000Y-111107500D03*
%TO.P,D1,2,A*%
%TO.N,VBUS*%
X107150000Y-112507500D03*
%TD*%
D16*
%TO.P,R10,1*%
%TO.N,Net-(U1-NRST)*%
X123115000Y-106510000D03*
%TO.P,R10,2*%
%TO.N,+3.3V*%
X124310000Y-106510000D03*
%TD*%
D15*
%TO.P,C5,1*%
%TO.N,+3.3V*%
X120985000Y-111280000D03*
%TO.P,C5,2*%
%TO.N,GND*%
X122120000Y-111280000D03*
%TD*%
D20*
%TO.P,C4,1*%
%TO.N,+3.3V*%
X124260000Y-105500000D03*
%TO.P,C4,2*%
%TO.N,GND*%
X123125000Y-105500000D03*
%TD*%
D23*
%TO.P,U1,1,VBAT*%
%TO.N,+3.3V*%
X121162500Y-109500000D03*
%TO.P,U1,2,PC13*%
%TO.N,Net-(U1-PC13)*%
X121162500Y-109000000D03*
%TO.P,U1,3,PC14*%
%TO.N,Net-(U1-PC14)*%
X121162500Y-108500000D03*
%TO.P,U1,4,PC15*%
%TO.N,unconnected-(U1-PC15-Pad4)*%
X121162500Y-108000000D03*
%TO.P,U1,5,PD0*%
%TO.N,Net-(U1-PD0)*%
X121162500Y-107500000D03*
%TO.P,U1,6,PD1*%
%TO.N,Net-(U1-PD1)*%
X121162500Y-107000000D03*
%TO.P,U1,7,NRST*%
%TO.N,Net-(U1-NRST)*%
X121162500Y-106500000D03*
%TO.P,U1,8,VSSA*%
%TO.N,GND*%
X121162500Y-106000000D03*
%TO.P,U1,9,VDDA*%
%TO.N,+3.3V*%
X121162500Y-105500000D03*
%TO.P,U1,10,PA0*%
%TO.N,Net-(U1-PA0)*%
X121162500Y-105000000D03*
%TO.P,U1,11,PA1*%
%TO.N,unconnected-(U1-PA1-Pad11)*%
X121162500Y-104500000D03*
%TO.P,U1,12,PA2*%
%TO.N,STLK_TX*%
X121162500Y-104000000D03*
D24*
%TO.P,U1,13,PA3*%
%TO.N,STLK_RX*%
X119750000Y-102587500D03*
%TO.P,U1,14,PA4*%
%TO.N,unconnected-(U1-PA4-Pad14)*%
X119250000Y-102587500D03*
%TO.P,U1,15,PA5*%
%TO.N,PA5*%
X118750000Y-102587500D03*
%TO.P,U1,16,PA6*%
%TO.N,unconnected-(U1-PA6-Pad16)*%
X118250000Y-102587500D03*
%TO.P,U1,17,PA7*%
%TO.N,unconnected-(U1-PA7-Pad17)*%
X117750000Y-102587500D03*
%TO.P,U1,18,PB0*%
%TO.N,T_NRST*%
X117250000Y-102587500D03*
%TO.P,U1,19,PB1*%
%TO.N,unconnected-(U1-PB1-Pad19)*%
X116750000Y-102587500D03*
%TO.P,U1,20,PB2*%
%TO.N,unconnected-(U1-PB2-Pad20)*%
X116250000Y-102587500D03*
%TO.P,U1,21,PB10*%
%TO.N,unconnected-(U1-PB10-Pad21)*%
X115750000Y-102587500D03*
%TO.P,U1,22,PB11*%
%TO.N,unconnected-(U1-PB11-Pad22)*%
X115250000Y-102587500D03*
%TO.P,U1,23,VSS*%
%TO.N,GND*%
X114750000Y-102587500D03*
%TO.P,U1,24,VDD*%
%TO.N,+3.3V*%
X114250000Y-102587500D03*
D23*
%TO.P,U1,25,PB12*%
%TO.N,Net-(U1-PB12)*%
X112837500Y-104000000D03*
%TO.P,U1,26,PB13*%
%TO.N,STLK_JTCK*%
X112837500Y-104500000D03*
%TO.P,U1,27,PB14*%
%TO.N,STLK_JTMS*%
X112837500Y-105000000D03*
%TO.P,U1,28,PB15*%
%TO.N,unconnected-(U1-PB15-Pad28)*%
X112837500Y-105500000D03*
%TO.P,U1,29,PA8*%
%TO.N,unconnected-(U1-PA8-Pad29)*%
X112837500Y-106000000D03*
%TO.P,U1,30,PA9*%
%TO.N,LED*%
X112837500Y-106500000D03*
%TO.P,U1,31,PA10*%
%TO.N,unconnected-(U1-PA10-Pad31)*%
X112837500Y-107000000D03*
%TO.P,U1,32,PA11*%
%TO.N,USB_DM*%
X112837500Y-107500000D03*
%TO.P,U1,33,PA12*%
%TO.N,USB_DP*%
X112837500Y-108000000D03*
%TO.P,U1,34,PA13*%
%TO.N,SWDIO*%
X112837500Y-108500000D03*
%TO.P,U1,35,VSS*%
%TO.N,GND*%
X112837500Y-109000000D03*
%TO.P,U1,36,VDD*%
%TO.N,+3.3V*%
X112837500Y-109500000D03*
D24*
%TO.P,U1,37,PA14*%
%TO.N,SWCLK*%
X114250000Y-110912500D03*
%TO.P,U1,38,PA15*%
%TO.N,USB_RENUM*%
X114750000Y-110912500D03*
%TO.P,U1,39,PB3*%
%TO.N,unconnected-(U1-PB3-Pad39)*%
X115250000Y-110912500D03*
%TO.P,U1,40,PB4*%
%TO.N,unconnected-(U1-PB4-Pad40)*%
X115750000Y-110912500D03*
%TO.P,U1,41,PB5*%
%TO.N,unconnected-(U1-PB5-Pad41)*%
X116250000Y-110912500D03*
%TO.P,U1,42,PB6*%
%TO.N,unconnected-(U1-PB6-Pad42)*%
X116750000Y-110912500D03*
%TO.P,U1,43,PB7*%
%TO.N,unconnected-(U1-PB7-Pad43)*%
X117250000Y-110912500D03*
%TO.P,U1,44,BOOT0*%
%TO.N,Net-(U1-BOOT0)*%
X117750000Y-110912500D03*
%TO.P,U1,45,PB8*%
%TO.N,unconnected-(U1-PB8-Pad45)*%
X118250000Y-110912500D03*
%TO.P,U1,46,PB9*%
%TO.N,unconnected-(U1-PB9-Pad46)*%
X118750000Y-110912500D03*
%TO.P,U1,47,VSS*%
%TO.N,GND*%
X119250000Y-110912500D03*
%TO.P,U1,48,VDD*%
%TO.N,+3.3V*%
X119750000Y-110912500D03*
%TD*%
D25*
%TO.P,U2,1,I/O1*%
%TO.N,USB_DP*%
X110447500Y-109690000D03*
%TO.P,U2,2,GND*%
%TO.N,GND*%
X110447500Y-108740000D03*
%TO.P,U2,3,I/O2*%
%TO.N,USB_DM*%
X110447500Y-107790000D03*
%TO.P,U2,4,I/O2*%
%TO.N,Net-(J1-D-)*%
X108172500Y-107790000D03*
%TO.P,U2,5,VBUS*%
%TO.N,+5V*%
X108172500Y-108740000D03*
%TO.P,U2,6,I/O1*%
%TO.N,Net-(J1-D+)*%
X108172500Y-109690000D03*
%TD*%
D26*
%TO.P,C3,1*%
%TO.N,+3.3V*%
X113330000Y-101950000D03*
%TO.P,C3,2*%
%TO.N,GND*%
X113330000Y-100815000D03*
%TD*%
D13*
%TO.P,R9,1*%
%TO.N,GND*%
X122140000Y-112480000D03*
%TO.P,R9,2*%
%TO.N,Net-(U1-BOOT0)*%
X120945000Y-112480000D03*
%TD*%
D20*
%TO.P,C6,1*%
%TO.N,+3.3V*%
X112237500Y-110970000D03*
%TO.P,C6,2*%
%TO.N,GND*%
X111102500Y-110970000D03*
%TD*%
D13*
%TO.P,R6,1*%
%TO.N,GND*%
X124295000Y-104500000D03*
%TO.P,R6,2*%
%TO.N,Net-(U1-PA0)*%
X123100000Y-104500000D03*
%TD*%
D15*
%TO.P,C1,1*%
%TO.N,+5V*%
X107612500Y-103080000D03*
%TO.P,C1,2*%
%TO.N,GND*%
X108747500Y-103080000D03*
%TD*%
D27*
%TO.N,+5V*%
X107020000Y-110340000D03*
X107550000Y-103760000D03*
%TO.N,GND*%
X122120000Y-111880000D03*
X109290000Y-103070000D03*
X106180000Y-103750000D03*
X111440000Y-102370000D03*
X124950000Y-104700000D03*
X108610000Y-105310000D03*
X109990000Y-108750000D03*
X124980000Y-109520000D03*
X110467500Y-110970000D03*
X113930000Y-100810000D03*
X119240000Y-111910000D03*
X120170000Y-106000000D03*
X113850000Y-109000000D03*
%TO.N,+3.3V*%
X110440000Y-105360000D03*
X112090000Y-112030000D03*
%TO.N,Net-(U1-PD0)*%
X120090000Y-107600000D03*
%TO.N,Net-(U1-PD1)*%
X120090000Y-106950000D03*
%TO.N,Net-(J1-D+)*%
X109310000Y-108740000D03*
%TO.N,STLK_JTCK*%
X119260000Y-104500000D03*
%TO.N,STLK_JTMS*%
X114270000Y-105370000D03*
%TO.N,USB_RENUM*%
X113530000Y-111530000D03*
%TO.N,Net-(U1-PB12)*%
X114530000Y-104000000D03*
%TO.N,PA5*%
X118750000Y-103700000D03*
%TO.N,SWDIO*%
X113090000Y-112660000D03*
%TO.N,SWCLK*%
X115620000Y-112660000D03*
%TD*%
D28*
%TO.N,+5V*%
X107030000Y-110350000D02*
X107020000Y-110350000D01*
X108175000Y-104360000D02*
X108837499Y-104360000D01*
X107550000Y-103760000D02*
X107575000Y-103760000D01*
X107020000Y-110350000D02*
X107010000Y-110340000D01*
X107030000Y-110360000D02*
X107030000Y-110350000D01*
X107030000Y-109090000D02*
X107030000Y-110350000D01*
X107150000Y-110480000D02*
X107030000Y-110360000D01*
X107575000Y-103760000D02*
X107612500Y-103797500D01*
X107645000Y-103830000D02*
X107510000Y-103830000D01*
X107612500Y-103797500D02*
X107612500Y-103080000D01*
X107510000Y-103830000D02*
X107510000Y-103695000D01*
X108172500Y-108740000D02*
X107380000Y-108740000D01*
X107150000Y-111107500D02*
X107150000Y-110480000D01*
X107510000Y-103695000D02*
X107550000Y-103735000D01*
X109140000Y-104662501D02*
X109140000Y-105957499D01*
X107550000Y-103735000D02*
X107550000Y-103760000D01*
X107380000Y-108740000D02*
X107030000Y-109090000D01*
X109140000Y-105957499D02*
X108837499Y-106260000D01*
X108175000Y-104360000D02*
X107645000Y-103830000D01*
X108837499Y-106260000D02*
X108175000Y-106260000D01*
X108837499Y-104360000D02*
X109140000Y-104662501D01*
D29*
%TO.N,GND*%
X119250000Y-110912500D02*
X119250000Y-111900000D01*
D28*
X108747500Y-103080000D02*
X109280000Y-103080000D01*
D29*
X122120000Y-111280000D02*
X122120000Y-112460000D01*
X119250000Y-111900000D02*
X119240000Y-111910000D01*
X124295000Y-104500000D02*
X124750000Y-104500000D01*
D28*
X111562500Y-101800000D02*
X111562500Y-102247500D01*
X111562500Y-102247500D02*
X111440000Y-102370000D01*
X111102500Y-110970000D02*
X110467500Y-110970000D01*
X113775000Y-100815000D02*
X113780000Y-100810000D01*
D29*
X124315000Y-109520000D02*
X124980000Y-109520000D01*
D28*
X109300000Y-103080000D02*
X109835000Y-103080000D01*
D29*
X114240000Y-100810000D02*
X113930000Y-100810000D01*
X123125000Y-105500000D02*
X123727500Y-106102500D01*
D28*
X109280000Y-103080000D02*
X109290000Y-103070000D01*
D29*
X123727500Y-106102500D02*
X123727500Y-106967500D01*
X122120000Y-112460000D02*
X122140000Y-112480000D01*
X121162500Y-106000000D02*
X120170000Y-106000000D01*
X112837500Y-109000000D02*
X113850000Y-109000000D01*
X124270000Y-107510000D02*
X124270000Y-108475000D01*
X124295000Y-104500000D02*
X124125000Y-104500000D01*
X123727500Y-106967500D02*
X124270000Y-107510000D01*
X124270000Y-108475000D02*
X124315000Y-108520000D01*
X124750000Y-104500000D02*
X124950000Y-104700000D01*
D28*
X105050000Y-103750000D02*
X106180000Y-103750000D01*
D29*
X124315000Y-108520000D02*
X124315000Y-109520000D01*
X114750000Y-101320000D02*
X114240000Y-100810000D01*
D28*
X113330000Y-100815000D02*
X113925000Y-100815000D01*
D29*
X114750000Y-102587500D02*
X114750000Y-101320000D01*
X124125000Y-104500000D02*
X123125000Y-105500000D01*
D28*
X109290000Y-103070000D02*
X109300000Y-103080000D01*
%TO.N,+3.3V*%
X110970000Y-103080000D02*
X110970000Y-103460000D01*
X110970000Y-103460000D02*
X110450000Y-103980000D01*
X110450000Y-103980000D02*
X110450000Y-104360000D01*
D29*
%TO.N,Net-(U1-PD0)*%
X120220000Y-107500000D02*
X120090000Y-107530000D01*
X120160000Y-107500000D02*
X120190000Y-107500000D01*
X120090000Y-107530000D02*
X120160000Y-107500000D01*
X121162500Y-107500000D02*
X120220000Y-107500000D01*
%TO.N,Net-(U1-PD1)*%
X120090000Y-107000000D02*
X120190000Y-107000000D01*
X121162500Y-107000000D02*
X120090000Y-107000000D01*
%TO.N,Net-(U1-NRST)*%
X121172500Y-106510000D02*
X121162500Y-106500000D01*
X123115000Y-107490000D02*
X123135000Y-107510000D01*
X123115000Y-106510000D02*
X123115000Y-107490000D01*
X123115000Y-106510000D02*
X121172500Y-106510000D01*
D28*
%TO.N,VBUS*%
X107097500Y-112507500D02*
X107150000Y-112507500D01*
X105050000Y-109750000D02*
X106060000Y-109750000D01*
X106060000Y-109750000D02*
X106370000Y-110060000D01*
X106370000Y-111780000D02*
X107097500Y-112507500D01*
X106370000Y-110060000D02*
X106370000Y-111780000D01*
D29*
%TO.N,Net-(D2-A)*%
X110395000Y-100800000D02*
X110395000Y-101777500D01*
X110395000Y-101777500D02*
X110417500Y-101800000D01*
%TO.N,Net-(J1-D-)*%
X108172500Y-107790000D02*
X105090000Y-107790000D01*
X105090000Y-107790000D02*
X105050000Y-107750000D01*
%TO.N,Net-(J1-D+)*%
X109310000Y-108400000D02*
X109300000Y-108390000D01*
X109300000Y-108390000D02*
X109310000Y-108380000D01*
X108172500Y-109690000D02*
X109000000Y-109690000D01*
X109310000Y-109380000D02*
X109310000Y-108400000D01*
X105650000Y-105750000D02*
X105050000Y-105750000D01*
X109310000Y-107440000D02*
X108890000Y-107020000D01*
X109310000Y-108380000D02*
X109310000Y-107440000D01*
X109000000Y-109690000D02*
X109310000Y-109380000D01*
X106920000Y-107020000D02*
X105650000Y-105750000D01*
X108890000Y-107020000D02*
X106920000Y-107020000D01*
%TO.N,STLK_JTCK*%
X112837500Y-104500000D02*
X119260000Y-104500000D01*
%TO.N,STLK_JTMS*%
X112837500Y-105000000D02*
X113880000Y-105000000D01*
X113880000Y-105000000D02*
X114250000Y-105370000D01*
X114270000Y-105390000D02*
X114250000Y-105370000D01*
X114250000Y-105370000D02*
X114270000Y-105370000D01*
X114270000Y-105370000D02*
X114270000Y-105390000D01*
%TO.N,T_NRST*%
X117510000Y-101480000D02*
X117250000Y-101740000D01*
X121000000Y-102270000D02*
X120210000Y-101480000D01*
X120210000Y-101480000D02*
X117510000Y-101480000D01*
X117250000Y-101740000D02*
X117250000Y-102587500D01*
X126680000Y-103570000D02*
X125380000Y-102270000D01*
X126680000Y-104850000D02*
X126680000Y-103570000D01*
X125380000Y-102270000D02*
X121000000Y-102270000D01*
X128580000Y-106750000D02*
X126680000Y-104850000D01*
%TO.N,STLK_RX*%
X126380000Y-103694264D02*
X126380000Y-107090000D01*
X125273236Y-102587500D02*
X126380000Y-103694264D01*
X119750000Y-102587500D02*
X125273236Y-102587500D01*
X126380000Y-107090000D02*
X128580000Y-109290000D01*
%TO.N,STLK_TX*%
X125148972Y-102887500D02*
X126070000Y-103808528D01*
X126070000Y-103808528D02*
X126070000Y-109320000D01*
X122275000Y-102887500D02*
X125148972Y-102887500D01*
X121162500Y-104000000D02*
X122275000Y-102887500D01*
X126070000Y-109320000D02*
X128580000Y-111830000D01*
%TO.N,USB_RENUM*%
X114750000Y-110248656D02*
X114451344Y-109950000D01*
X114048656Y-109950000D02*
X113530000Y-110468656D01*
X113530000Y-110468656D02*
X113530000Y-111476250D01*
X114451344Y-109950000D02*
X114048656Y-109950000D01*
X114750000Y-110912500D02*
X114750000Y-110248656D01*
%TO.N,Net-(U1-PA0)*%
X122600000Y-105000000D02*
X123100000Y-104500000D01*
X123100000Y-104500000D02*
X123100000Y-103490000D01*
X121162500Y-105000000D02*
X122600000Y-105000000D01*
%TO.N,Net-(U1-PC13)*%
X122600000Y-109000000D02*
X121162500Y-109000000D01*
X123120000Y-109520000D02*
X122600000Y-109000000D01*
%TO.N,Net-(U1-PC14)*%
X123120000Y-108520000D02*
X121182500Y-108520000D01*
X121182500Y-108520000D02*
X121162500Y-108500000D01*
%TO.N,Net-(U1-BOOT0)*%
X120015000Y-109950000D02*
X120392500Y-110327500D01*
X120392500Y-110327500D02*
X120392500Y-111927500D01*
X117750000Y-110912500D02*
X117750000Y-110175001D01*
X120392500Y-111927500D02*
X120945000Y-112480000D01*
X117750000Y-110175001D02*
X117975001Y-109950000D01*
X117975001Y-109950000D02*
X120015000Y-109950000D01*
%TO.N,Net-(U1-PB12)*%
X112837500Y-104000000D02*
X114530000Y-104000000D01*
%TO.N,LED*%
X112837500Y-106500000D02*
X111980000Y-106500000D01*
X112170000Y-102250000D02*
X112170000Y-101380000D01*
X111810000Y-102610000D02*
X112170000Y-102250000D01*
X112170000Y-101380000D02*
X111590000Y-100800000D01*
X111810000Y-106330000D02*
X111810000Y-102610000D01*
X111980000Y-106500000D02*
X111810000Y-106330000D01*
%TO.N,PA5*%
X118750000Y-103700000D02*
X118750000Y-103640000D01*
X118750000Y-102587500D02*
X118750000Y-103700000D01*
%TO.N,SWDIO*%
X113090000Y-112660000D02*
X113000000Y-112570000D01*
X113000000Y-112570000D02*
X113000000Y-110130000D01*
X113000000Y-110130000D02*
X112220000Y-110130000D01*
X112220000Y-110130000D02*
X111750000Y-109660000D01*
X112020000Y-108500000D02*
X112837500Y-108500000D01*
X111750000Y-109660000D02*
X111750000Y-108770000D01*
X111750000Y-108770000D02*
X112020000Y-108500000D01*
%TO.N,SWCLK*%
X114250000Y-110912500D02*
X114250000Y-111870000D01*
X114250000Y-111870000D02*
X115040000Y-112660000D01*
X115040000Y-112660000D02*
X115620000Y-112660000D01*
%TO.N,USB_DM*%
X111800000Y-107500000D02*
X112837500Y-107500000D01*
X110447500Y-107790000D02*
X111510000Y-107790000D01*
X111510000Y-107790000D02*
X111800000Y-107500000D01*
%TO.N,USB_DP*%
X111870000Y-108000000D02*
X111420000Y-108450000D01*
X111250000Y-109690000D02*
X110447500Y-109690000D01*
X112837500Y-108000000D02*
X111870000Y-108000000D01*
X111420000Y-108450000D02*
X111420000Y-109520000D01*
X111420000Y-109520000D02*
X111250000Y-109690000D01*
%TD*%
%TA.AperFunction,Conductor*%
%TO.N,+3.3V*%
G36*
X108205912Y-103399600D02*
G01*
X108233005Y-103426693D01*
X108241673Y-103444424D01*
X108241675Y-103444427D01*
X108241676Y-103444429D01*
X108325571Y-103528324D01*
X108432160Y-103580433D01*
X108501258Y-103590500D01*
X108501264Y-103590500D01*
X108993736Y-103590500D01*
X108993742Y-103590500D01*
X109062840Y-103580433D01*
X109169429Y-103528324D01*
X109188412Y-103509339D01*
X109230130Y-103492057D01*
X109239352Y-103492782D01*
X109290000Y-103500804D01*
X109342793Y-103492442D01*
X109386703Y-103502982D01*
X109393743Y-103508996D01*
X109413071Y-103528324D01*
X109519660Y-103580433D01*
X109588758Y-103590500D01*
X109588764Y-103590500D01*
X110081236Y-103590500D01*
X110081242Y-103590500D01*
X110150340Y-103580433D01*
X110256929Y-103528324D01*
X110295651Y-103489601D01*
X110337367Y-103472322D01*
X110379087Y-103489602D01*
X110384839Y-103496287D01*
X110432131Y-103560365D01*
X110542490Y-103641815D01*
X110542493Y-103641817D01*
X110584012Y-103656345D01*
X110617683Y-103686434D01*
X110620215Y-103731520D01*
X110606246Y-103753752D01*
X110600000Y-103759998D01*
X110600000Y-104210000D01*
X111412499Y-104210000D01*
X111412499Y-104155794D01*
X111409649Y-104125399D01*
X111409647Y-104125389D01*
X111364847Y-103997356D01*
X111364845Y-103997353D01*
X111284292Y-103888207D01*
X111175146Y-103807654D01*
X111175143Y-103807652D01*
X111166671Y-103804688D01*
X111133000Y-103774598D01*
X111130468Y-103729513D01*
X111160558Y-103695842D01*
X111186157Y-103689999D01*
X111237303Y-103689999D01*
X111268040Y-103687117D01*
X111268050Y-103687115D01*
X111397506Y-103641817D01*
X111397509Y-103641815D01*
X111440464Y-103610113D01*
X111484293Y-103599243D01*
X111522971Y-103622548D01*
X111534500Y-103657584D01*
X111534500Y-106297057D01*
X111533366Y-106308568D01*
X111529103Y-106329999D01*
X111529103Y-106330001D01*
X111534090Y-106355071D01*
X111534095Y-106355100D01*
X111550483Y-106437491D01*
X111550486Y-106437497D01*
X111558560Y-106449581D01*
X111569780Y-106466372D01*
X111592099Y-106499775D01*
X111611376Y-106528624D01*
X111611377Y-106528624D01*
X111611378Y-106528626D01*
X111629544Y-106540764D01*
X111638486Y-106548102D01*
X111761896Y-106671512D01*
X111769233Y-106680452D01*
X111781374Y-106698623D01*
X111786448Y-106702013D01*
X111801972Y-106712385D01*
X111801975Y-106712388D01*
X111858264Y-106750000D01*
X111865263Y-106754676D01*
X111872505Y-106759515D01*
X111872507Y-106759515D01*
X111877876Y-106761740D01*
X111876602Y-106764813D01*
X111904590Y-106783471D01*
X111913447Y-106827751D01*
X111913434Y-106827812D01*
X111899500Y-106897863D01*
X111899500Y-107102133D01*
X111899501Y-107102135D01*
X111909815Y-107153990D01*
X111901005Y-107198279D01*
X111863459Y-107223366D01*
X111851949Y-107224500D01*
X111832942Y-107224500D01*
X111821431Y-107223366D01*
X111800001Y-107219103D01*
X111799998Y-107219103D01*
X111774812Y-107224113D01*
X111774806Y-107224114D01*
X111692508Y-107240483D01*
X111692504Y-107240485D01*
X111664024Y-107259515D01*
X111625916Y-107284977D01*
X111625914Y-107284979D01*
X111601375Y-107301375D01*
X111589232Y-107319548D01*
X111581896Y-107328486D01*
X111413164Y-107497219D01*
X111371446Y-107514500D01*
X111325618Y-107514500D01*
X111283899Y-107497219D01*
X111272613Y-107481413D01*
X111249199Y-107433519D01*
X111249198Y-107433518D01*
X111249198Y-107433517D01*
X111166483Y-107350802D01*
X111166482Y-107350801D01*
X111166480Y-107350800D01*
X111061394Y-107299427D01*
X111050037Y-107297772D01*
X110993260Y-107289500D01*
X109901740Y-107289500D01*
X109860560Y-107295500D01*
X109833605Y-107299427D01*
X109833604Y-107299427D01*
X109728519Y-107350800D01*
X109676981Y-107402338D01*
X109635261Y-107419618D01*
X109593542Y-107402337D01*
X109577397Y-107372131D01*
X109569515Y-107332505D01*
X109542263Y-107291719D01*
X109524827Y-107265624D01*
X109523518Y-107263666D01*
X109523513Y-107263659D01*
X109508624Y-107241376D01*
X109490454Y-107229235D01*
X109481513Y-107221897D01*
X109108101Y-106848485D01*
X109100763Y-106839544D01*
X109092924Y-106827812D01*
X109088624Y-106821376D01*
X109088622Y-106821374D01*
X109074174Y-106811721D01*
X109065623Y-106806007D01*
X109065622Y-106806006D01*
X109018149Y-106774286D01*
X109003972Y-106764813D01*
X108997497Y-106760486D01*
X108997491Y-106760483D01*
X108968297Y-106754676D01*
X108930751Y-106729588D01*
X108921942Y-106685299D01*
X108938086Y-106655094D01*
X108976698Y-106616483D01*
X109010332Y-106547678D01*
X109033838Y-106522498D01*
X109039557Y-106519196D01*
X109049954Y-106513194D01*
X109076892Y-106481089D01*
X109078606Y-106479217D01*
X109114563Y-106443260D01*
X109587000Y-106443260D01*
X109595234Y-106499775D01*
X109596927Y-106511394D01*
X109596927Y-106511395D01*
X109648300Y-106616480D01*
X109648301Y-106616482D01*
X109648302Y-106616483D01*
X109731017Y-106699198D01*
X109836107Y-106750573D01*
X109904240Y-106760500D01*
X109904245Y-106760500D01*
X110995755Y-106760500D01*
X110995760Y-106760500D01*
X111063893Y-106750573D01*
X111168983Y-106699198D01*
X111251698Y-106616483D01*
X111303073Y-106511393D01*
X111313000Y-106443260D01*
X111313000Y-106076740D01*
X111303073Y-106008607D01*
X111300620Y-106003590D01*
X111251699Y-105903519D01*
X111251698Y-105903518D01*
X111251698Y-105903517D01*
X111168983Y-105820802D01*
X111168982Y-105820801D01*
X111168980Y-105820800D01*
X111063894Y-105769427D01*
X111052537Y-105767772D01*
X110995760Y-105759500D01*
X109904240Y-105759500D01*
X109855573Y-105766590D01*
X109836105Y-105769427D01*
X109836104Y-105769427D01*
X109731019Y-105820800D01*
X109731015Y-105820803D01*
X109648303Y-105903515D01*
X109648300Y-105903519D01*
X109596927Y-106008604D01*
X109596927Y-106008605D01*
X109595113Y-106021056D01*
X109587000Y-106076740D01*
X109587000Y-106443260D01*
X109114563Y-106443260D01*
X109359219Y-106198604D01*
X109361079Y-106196900D01*
X109393194Y-106169954D01*
X109414143Y-106133668D01*
X109415526Y-106131499D01*
X109439553Y-106097184D01*
X109439552Y-106097184D01*
X109439554Y-106097183D01*
X109441306Y-106090643D01*
X109447200Y-106076410D01*
X109450588Y-106070544D01*
X109457864Y-106029275D01*
X109458415Y-106026792D01*
X109469264Y-105986306D01*
X109465611Y-105944556D01*
X109465500Y-105942001D01*
X109465500Y-104807567D01*
X109482781Y-104765848D01*
X109524500Y-104748567D01*
X109566219Y-104765848D01*
X109571971Y-104772532D01*
X109615706Y-104831790D01*
X109724853Y-104912345D01*
X109724856Y-104912347D01*
X109852893Y-104957149D01*
X109883295Y-104959999D01*
X110300000Y-104959999D01*
X110300000Y-104510000D01*
X110600000Y-104510000D01*
X110600000Y-104959999D01*
X111016705Y-104959999D01*
X111047100Y-104957149D01*
X111047110Y-104957147D01*
X111175143Y-104912347D01*
X111175146Y-104912345D01*
X111284292Y-104831792D01*
X111364845Y-104722646D01*
X111364847Y-104722643D01*
X111409649Y-104594606D01*
X111412500Y-104564204D01*
X111412500Y-104510000D01*
X110600000Y-104510000D01*
X110300000Y-104510000D01*
X109464092Y-104510000D01*
X109462268Y-104510754D01*
X109420560Y-104493446D01*
X109411211Y-104481253D01*
X109393194Y-104450045D01*
X109393192Y-104450044D01*
X109361094Y-104423110D01*
X109359206Y-104421381D01*
X109147825Y-104210000D01*
X109487500Y-104210000D01*
X110300000Y-104210000D01*
X110300000Y-103760000D01*
X109883295Y-103760000D01*
X109852899Y-103762850D01*
X109852889Y-103762852D01*
X109724856Y-103807652D01*
X109724853Y-103807654D01*
X109615707Y-103888207D01*
X109535154Y-103997353D01*
X109535152Y-103997356D01*
X109490350Y-104125393D01*
X109487500Y-104155795D01*
X109487500Y-104210000D01*
X109147825Y-104210000D01*
X109078615Y-104140790D01*
X109076886Y-104138903D01*
X109072039Y-104133127D01*
X109049954Y-104106806D01*
X109049954Y-104106805D01*
X109033837Y-104097501D01*
X109010331Y-104072317D01*
X108976698Y-104003517D01*
X108893983Y-103920802D01*
X108893982Y-103920801D01*
X108893980Y-103920800D01*
X108788894Y-103869427D01*
X108773258Y-103867149D01*
X108720760Y-103859500D01*
X108720755Y-103859500D01*
X108159264Y-103859500D01*
X108117545Y-103842219D01*
X107984099Y-103708773D01*
X107967544Y-103676284D01*
X107965834Y-103665485D01*
X107959719Y-103626874D01*
X107959717Y-103626870D01*
X107958284Y-103622460D01*
X107960940Y-103621596D01*
X107958098Y-103585667D01*
X107987412Y-103551318D01*
X107988254Y-103550897D01*
X108034429Y-103528324D01*
X108118324Y-103444429D01*
X108126995Y-103426693D01*
X108160842Y-103396802D01*
X108205912Y-103399600D01*
G37*
%TD.AperFunction*%
%TA.AperFunction,Conductor*%
G36*
X100677733Y-100117781D02*
G01*
X100695014Y-100159500D01*
X100677733Y-100201219D01*
X100674445Y-100204267D01*
X100671107Y-100207132D01*
X100671105Y-100207134D01*
X100546551Y-100368043D01*
X100456939Y-100550730D01*
X100456938Y-100550732D01*
X100405936Y-100747715D01*
X100405936Y-100747718D01*
X100395630Y-100950933D01*
X100426444Y-101152073D01*
X100497111Y-101342880D01*
X100497115Y-101342889D01*
X100522116Y-101383000D01*
X100604748Y-101515571D01*
X100744941Y-101663053D01*
X100744942Y-101663054D01*
X100773164Y-101682697D01*
X100911951Y-101779295D01*
X101098942Y-101859540D01*
X101168104Y-101873752D01*
X101298252Y-101900499D01*
X101298259Y-101900500D01*
X103850740Y-101900500D01*
X103850742Y-101900500D01*
X103850744Y-101900499D01*
X103850757Y-101900499D01*
X104002429Y-101885075D01*
X104002430Y-101885074D01*
X104002438Y-101885074D01*
X104196588Y-101824159D01*
X104374502Y-101725409D01*
X104528895Y-101592866D01*
X104653448Y-101431958D01*
X104743060Y-101249271D01*
X104794063Y-101052285D01*
X104804369Y-100849064D01*
X104773556Y-100647929D01*
X104767335Y-100631133D01*
X104725858Y-100519141D01*
X104702886Y-100457113D01*
X104595252Y-100284429D01*
X104515136Y-100200148D01*
X104498919Y-100158005D01*
X104517251Y-100116737D01*
X104557900Y-100100500D01*
X107840500Y-100100500D01*
X107882219Y-100117781D01*
X107899500Y-100159500D01*
X107899500Y-101589391D01*
X107936671Y-101764270D01*
X107936672Y-101764271D01*
X108009383Y-101927584D01*
X108009386Y-101927590D01*
X108009387Y-101927592D01*
X108009388Y-101927593D01*
X108114474Y-102072230D01*
X108247335Y-102191859D01*
X108247338Y-102191861D01*
X108247341Y-102191863D01*
X108374322Y-102265175D01*
X108402165Y-102281250D01*
X108480025Y-102306548D01*
X108572196Y-102336497D01*
X108589106Y-102338274D01*
X108750000Y-102355185D01*
X108927803Y-102336497D01*
X109097835Y-102281250D01*
X109252665Y-102191859D01*
X109385526Y-102072230D01*
X109490612Y-101927593D01*
X109563329Y-101764267D01*
X109600500Y-101589391D01*
X109600500Y-101500000D01*
X109600500Y-101473071D01*
X109600500Y-100159500D01*
X109617781Y-100117781D01*
X109659500Y-100100500D01*
X129840500Y-100100500D01*
X129882219Y-100117781D01*
X129899500Y-100159500D01*
X129899500Y-113340500D01*
X129882219Y-113382219D01*
X129840500Y-113399500D01*
X109659500Y-113399500D01*
X109617781Y-113382219D01*
X109600500Y-113340500D01*
X109600500Y-111910608D01*
X109572073Y-111776869D01*
X109563329Y-111735733D01*
X109563328Y-111735732D01*
X109563328Y-111735729D01*
X109563327Y-111735728D01*
X109490616Y-111572416D01*
X109490610Y-111572405D01*
X109385528Y-111427771D01*
X109309032Y-111358894D01*
X109252665Y-111308141D01*
X109252662Y-111308139D01*
X109252658Y-111308136D01*
X109097843Y-111218754D01*
X109097838Y-111218752D01*
X109097835Y-111218750D01*
X109097830Y-111218748D01*
X109097827Y-111218747D01*
X108927803Y-111163502D01*
X108750000Y-111144815D01*
X108572196Y-111163502D01*
X108402172Y-111218747D01*
X108402156Y-111218754D01*
X108247341Y-111308136D01*
X108247336Y-111308140D01*
X108114471Y-111427771D01*
X108009389Y-111572405D01*
X108009383Y-111572416D01*
X107936672Y-111735728D01*
X107936671Y-111735729D01*
X107899500Y-111910608D01*
X107899500Y-113340500D01*
X107882219Y-113382219D01*
X107840500Y-113399500D01*
X104563986Y-113399500D01*
X104522267Y-113382219D01*
X104504986Y-113340500D01*
X104522267Y-113298781D01*
X104525555Y-113295733D01*
X104528895Y-113292866D01*
X104653448Y-113131958D01*
X104743060Y-112949271D01*
X104794063Y-112752285D01*
X104804369Y-112549064D01*
X104773556Y-112347929D01*
X104763107Y-112319717D01*
X104731346Y-112233958D01*
X104702886Y-112157113D01*
X104595252Y-111984429D01*
X104455059Y-111836947D01*
X104455058Y-111836946D01*
X104455057Y-111836945D01*
X104360442Y-111771092D01*
X104288049Y-111720705D01*
X104183505Y-111675841D01*
X104101061Y-111640461D01*
X104101051Y-111640458D01*
X103901747Y-111599500D01*
X103901741Y-111599500D01*
X101349258Y-111599500D01*
X101349242Y-111599500D01*
X101197570Y-111614924D01*
X101197558Y-111614926D01*
X101003409Y-111675842D01*
X101003402Y-111675845D01*
X100825497Y-111774591D01*
X100671107Y-111907132D01*
X100671105Y-111907134D01*
X100546551Y-112068043D01*
X100456939Y-112250730D01*
X100456938Y-112250732D01*
X100405936Y-112447715D01*
X100405936Y-112447718D01*
X100395630Y-112650933D01*
X100426444Y-112852073D01*
X100484389Y-113008529D01*
X100497114Y-113042887D01*
X100604748Y-113215571D01*
X100683846Y-113298781D01*
X100684863Y-113299851D01*
X100701081Y-113341995D01*
X100682749Y-113383263D01*
X100642100Y-113399500D01*
X100159500Y-113399500D01*
X100117781Y-113382219D01*
X100100500Y-113340500D01*
X100100500Y-110960636D01*
X103949500Y-110960636D01*
X103957095Y-111012771D01*
X103960134Y-111033627D01*
X104015172Y-111146208D01*
X104015173Y-111146210D01*
X104015174Y-111146211D01*
X104103789Y-111234826D01*
X104103790Y-111234826D01*
X104103791Y-111234827D01*
X104216372Y-111289865D01*
X104216373Y-111289865D01*
X104216375Y-111289866D01*
X104289364Y-111300500D01*
X104289369Y-111300500D01*
X105810631Y-111300500D01*
X105810636Y-111300500D01*
X105883625Y-111289866D01*
X105959587Y-111252729D01*
X106004657Y-111249932D01*
X106038505Y-111279822D01*
X106044500Y-111305735D01*
X106044500Y-111764502D01*
X106044388Y-111767057D01*
X106042433Y-111789409D01*
X106040736Y-111808806D01*
X106040736Y-111808807D01*
X106051579Y-111849279D01*
X106052136Y-111851790D01*
X106059411Y-111893040D01*
X106059413Y-111893047D01*
X106062797Y-111898908D01*
X106068690Y-111913133D01*
X106070445Y-111919683D01*
X106070446Y-111919685D01*
X106094472Y-111953997D01*
X106095855Y-111956169D01*
X106103673Y-111969709D01*
X106116806Y-111992455D01*
X106125798Y-112000000D01*
X106148910Y-112019394D01*
X106150796Y-112021122D01*
X106368536Y-112238862D01*
X106582219Y-112452545D01*
X106599500Y-112494264D01*
X106599500Y-112690760D01*
X106603926Y-112721137D01*
X106609427Y-112758894D01*
X106609427Y-112758895D01*
X106660800Y-112863980D01*
X106660801Y-112863982D01*
X106660802Y-112863983D01*
X106743517Y-112946698D01*
X106848607Y-112998073D01*
X106916740Y-113008000D01*
X106916745Y-113008000D01*
X107383255Y-113008000D01*
X107383260Y-113008000D01*
X107451393Y-112998073D01*
X107556483Y-112946698D01*
X107639198Y-112863983D01*
X107690573Y-112758893D01*
X107700500Y-112690760D01*
X107700500Y-112324240D01*
X107690573Y-112256107D01*
X107687945Y-112250732D01*
X107639199Y-112151019D01*
X107639198Y-112151018D01*
X107639198Y-112151017D01*
X107556483Y-112068302D01*
X107556482Y-112068301D01*
X107556480Y-112068300D01*
X107451394Y-112016927D01*
X107440037Y-112015272D01*
X107383260Y-112007000D01*
X107383255Y-112007000D01*
X107081765Y-112007000D01*
X107040046Y-111989719D01*
X106712781Y-111662454D01*
X106695500Y-111620735D01*
X106695500Y-111617740D01*
X106712781Y-111576021D01*
X106754500Y-111558740D01*
X106780412Y-111564734D01*
X106848607Y-111598073D01*
X106916740Y-111608000D01*
X106916745Y-111608000D01*
X107383255Y-111608000D01*
X107383260Y-111608000D01*
X107451393Y-111598073D01*
X107556483Y-111546698D01*
X107639198Y-111463983D01*
X107690573Y-111358893D01*
X107700500Y-111290760D01*
X107700500Y-110924240D01*
X107690573Y-110856107D01*
X107689920Y-110854772D01*
X107639199Y-110751019D01*
X107639198Y-110751018D01*
X107639198Y-110751017D01*
X107556483Y-110668302D01*
X107556482Y-110668301D01*
X107556480Y-110668300D01*
X107508587Y-110644887D01*
X107478697Y-110611039D01*
X107475500Y-110591882D01*
X107475500Y-110495497D01*
X107475611Y-110492941D01*
X107479264Y-110451193D01*
X107468417Y-110410715D01*
X107467862Y-110408211D01*
X107460588Y-110366955D01*
X107460586Y-110366951D01*
X107458456Y-110363261D01*
X107451277Y-110342991D01*
X107450803Y-110340002D01*
X107450804Y-110340000D01*
X107432135Y-110222132D01*
X107442677Y-110178227D01*
X107481179Y-110154632D01*
X107516321Y-110159900D01*
X107558607Y-110180573D01*
X107626740Y-110190500D01*
X107626745Y-110190500D01*
X108718255Y-110190500D01*
X108718260Y-110190500D01*
X108786393Y-110180573D01*
X108891483Y-110129198D01*
X108974198Y-110046483D01*
X108999516Y-109994691D01*
X109033362Y-109964803D01*
X109041010Y-109962740D01*
X109107491Y-109949516D01*
X109107491Y-109949515D01*
X109107495Y-109949515D01*
X109159422Y-109914818D01*
X109175622Y-109903994D01*
X109175622Y-109903993D01*
X109182010Y-109899725D01*
X109182011Y-109899723D01*
X109198624Y-109888624D01*
X109210767Y-109870449D01*
X109218096Y-109861518D01*
X109481519Y-109598095D01*
X109490458Y-109590761D01*
X109492734Y-109589240D01*
X109537024Y-109580441D01*
X109574564Y-109605538D01*
X109584500Y-109638305D01*
X109584500Y-109873260D01*
X109588355Y-109899716D01*
X109594427Y-109941392D01*
X109594427Y-109941395D01*
X109645800Y-110046480D01*
X109645801Y-110046482D01*
X109645802Y-110046483D01*
X109728517Y-110129198D01*
X109728518Y-110129198D01*
X109728519Y-110129199D01*
X109763312Y-110146208D01*
X109833607Y-110180573D01*
X109901740Y-110190500D01*
X109901745Y-110190500D01*
X110993255Y-110190500D01*
X110993260Y-110190500D01*
X111061393Y-110180573D01*
X111166483Y-110129198D01*
X111249198Y-110046483D01*
X111277209Y-109989182D01*
X111311055Y-109959294D01*
X111318698Y-109957231D01*
X111357495Y-109949515D01*
X111409422Y-109914818D01*
X111425622Y-109903994D01*
X111425622Y-109903993D01*
X111432010Y-109899725D01*
X111432011Y-109899723D01*
X111448624Y-109888624D01*
X111460767Y-109870449D01*
X111468096Y-109861518D01*
X111469465Y-109860149D01*
X111511183Y-109842869D01*
X111545433Y-109857056D01*
X111546544Y-109855395D01*
X111551375Y-109858623D01*
X111551376Y-109858624D01*
X111569546Y-109870765D01*
X111578485Y-109878101D01*
X111964777Y-110264393D01*
X111982058Y-110306112D01*
X111964777Y-110347831D01*
X111942545Y-110361801D01*
X111809992Y-110408183D01*
X111809990Y-110408184D01*
X111699632Y-110489632D01*
X111652339Y-110553712D01*
X111613661Y-110577017D01*
X111569832Y-110566147D01*
X111563149Y-110560396D01*
X111547608Y-110544855D01*
X111524429Y-110521676D01*
X111524427Y-110521675D01*
X111524426Y-110521674D01*
X111457122Y-110488771D01*
X111417840Y-110469567D01*
X111348742Y-110459500D01*
X110856258Y-110459500D01*
X110787160Y-110469567D01*
X110680573Y-110521674D01*
X110680571Y-110521675D01*
X110657391Y-110544855D01*
X110615671Y-110562134D01*
X110605292Y-110560491D01*
X110605211Y-110561008D01*
X110600628Y-110560282D01*
X110600626Y-110560281D01*
X110467500Y-110539196D01*
X110467499Y-110539196D01*
X110334374Y-110560281D01*
X110334369Y-110560282D01*
X110214282Y-110621470D01*
X110214275Y-110621475D01*
X110118975Y-110716775D01*
X110118970Y-110716782D01*
X110057782Y-110836869D01*
X110057781Y-110836874D01*
X110036696Y-110970000D01*
X110046773Y-111033627D01*
X110057781Y-111103125D01*
X110057782Y-111103130D01*
X110118970Y-111223217D01*
X110118975Y-111223224D01*
X110214275Y-111318524D01*
X110214278Y-111318526D01*
X110214280Y-111318528D01*
X110214282Y-111318529D01*
X110334369Y-111379717D01*
X110334370Y-111379717D01*
X110334374Y-111379719D01*
X110467500Y-111400804D01*
X110600626Y-111379719D01*
X110600627Y-111379718D01*
X110605212Y-111378992D01*
X110605593Y-111381401D01*
X110642432Y-111384282D01*
X110657393Y-111395146D01*
X110680571Y-111418324D01*
X110787160Y-111470433D01*
X110856258Y-111480500D01*
X110856264Y-111480500D01*
X111348736Y-111480500D01*
X111348742Y-111480500D01*
X111417840Y-111470433D01*
X111524429Y-111418324D01*
X111563151Y-111379601D01*
X111604867Y-111362322D01*
X111646587Y-111379602D01*
X111652339Y-111386287D01*
X111699631Y-111450365D01*
X111809990Y-111531815D01*
X111809993Y-111531817D01*
X111939453Y-111577117D01*
X111970197Y-111579999D01*
X112087499Y-111579999D01*
X112087500Y-111579998D01*
X112087500Y-110879000D01*
X112104781Y-110837281D01*
X112146500Y-110820000D01*
X112328500Y-110820000D01*
X112370219Y-110837281D01*
X112387500Y-110879000D01*
X112387500Y-111579999D01*
X112504803Y-111579999D01*
X112535540Y-111577117D01*
X112535550Y-111577115D01*
X112646014Y-111538463D01*
X112691099Y-111540995D01*
X112721189Y-111574666D01*
X112724500Y-111594152D01*
X112724500Y-112425925D01*
X112718069Y-112452710D01*
X112680282Y-112526869D01*
X112680281Y-112526874D01*
X112659196Y-112660000D01*
X112673812Y-112752285D01*
X112680281Y-112793125D01*
X112680282Y-112793130D01*
X112741470Y-112913217D01*
X112741475Y-112913224D01*
X112836775Y-113008524D01*
X112836778Y-113008526D01*
X112836780Y-113008528D01*
X112836782Y-113008529D01*
X112956869Y-113069717D01*
X112956870Y-113069717D01*
X112956874Y-113069719D01*
X113090000Y-113090804D01*
X113223126Y-113069719D01*
X113343220Y-113008528D01*
X113438528Y-112913220D01*
X113499719Y-112793126D01*
X113520804Y-112660000D01*
X113499719Y-112526874D01*
X113499717Y-112526870D01*
X113499717Y-112526869D01*
X113438529Y-112406782D01*
X113438524Y-112406775D01*
X113343224Y-112311475D01*
X113343219Y-112311471D01*
X113307714Y-112293380D01*
X113278387Y-112259042D01*
X113275500Y-112240811D01*
X113275500Y-111974154D01*
X113292781Y-111932435D01*
X113334500Y-111915154D01*
X113361282Y-111921584D01*
X113396874Y-111939719D01*
X113530000Y-111960804D01*
X113663126Y-111939719D01*
X113783220Y-111878528D01*
X113827234Y-111834514D01*
X113873781Y-111787968D01*
X113915500Y-111770687D01*
X113957219Y-111787968D01*
X113974500Y-111829687D01*
X113974500Y-111837057D01*
X113973366Y-111848568D01*
X113969103Y-111869999D01*
X113969103Y-111870001D01*
X113974090Y-111895071D01*
X113974095Y-111895100D01*
X113990483Y-111977491D01*
X113990485Y-111977495D01*
X114010200Y-112007001D01*
X114034917Y-112043994D01*
X114051376Y-112068625D01*
X114069544Y-112080764D01*
X114078486Y-112088102D01*
X114821897Y-112831513D01*
X114829235Y-112840454D01*
X114841376Y-112858624D01*
X114855667Y-112868173D01*
X114861969Y-112872384D01*
X114864377Y-112873993D01*
X114864378Y-112873994D01*
X114890534Y-112891471D01*
X114932505Y-112919515D01*
X114932506Y-112919515D01*
X114932508Y-112919516D01*
X115015701Y-112936064D01*
X115015707Y-112936064D01*
X115040000Y-112940897D01*
X115061432Y-112936633D01*
X115072942Y-112935500D01*
X115269314Y-112935500D01*
X115311033Y-112952781D01*
X115348542Y-112990290D01*
X115366779Y-113008527D01*
X115366782Y-113008529D01*
X115486869Y-113069717D01*
X115486870Y-113069717D01*
X115486874Y-113069719D01*
X115620000Y-113090804D01*
X115753126Y-113069719D01*
X115873220Y-113008528D01*
X115968528Y-112913220D01*
X116029719Y-112793126D01*
X116050804Y-112660000D01*
X116029719Y-112526874D01*
X116029717Y-112526870D01*
X116029717Y-112526869D01*
X115968529Y-112406782D01*
X115968524Y-112406775D01*
X115873224Y-112311475D01*
X115873217Y-112311470D01*
X115753130Y-112250282D01*
X115753126Y-112250281D01*
X115620000Y-112229196D01*
X115486874Y-112250281D01*
X115486869Y-112250282D01*
X115366782Y-112311470D01*
X115366779Y-112311472D01*
X115342198Y-112336054D01*
X115311032Y-112367219D01*
X115269314Y-112384500D01*
X115178554Y-112384500D01*
X115136835Y-112367219D01*
X114720834Y-111951218D01*
X114703553Y-111909499D01*
X114720834Y-111867780D01*
X114762551Y-111850499D01*
X114852132Y-111850499D01*
X114852133Y-111850499D01*
X114852133Y-111850498D01*
X114932495Y-111834515D01*
X114967222Y-111811310D01*
X115011510Y-111802502D01*
X115032776Y-111811310D01*
X115067505Y-111834515D01*
X115067507Y-111834515D01*
X115067508Y-111834516D01*
X115107686Y-111842507D01*
X115147867Y-111850500D01*
X115352132Y-111850499D01*
X115352133Y-111850499D01*
X115352133Y-111850498D01*
X115432495Y-111834515D01*
X115467222Y-111811310D01*
X115511510Y-111802502D01*
X115532776Y-111811310D01*
X115567505Y-111834515D01*
X115567507Y-111834515D01*
X115567508Y-111834516D01*
X115607686Y-111842507D01*
X115647867Y-111850500D01*
X115852132Y-111850499D01*
X115852133Y-111850499D01*
X115852133Y-111850498D01*
X115932495Y-111834515D01*
X115967222Y-111811310D01*
X116011510Y-111802502D01*
X116032776Y-111811310D01*
X116067505Y-111834515D01*
X116067507Y-111834515D01*
X116067508Y-111834516D01*
X116107686Y-111842507D01*
X116147867Y-111850500D01*
X116352132Y-111850499D01*
X116352133Y-111850499D01*
X116352133Y-111850498D01*
X116432495Y-111834515D01*
X116467222Y-111811310D01*
X116511510Y-111802502D01*
X116532776Y-111811310D01*
X116567505Y-111834515D01*
X116567507Y-111834515D01*
X116567508Y-111834516D01*
X116607686Y-111842507D01*
X116647867Y-111850500D01*
X116852132Y-111850499D01*
X116852133Y-111850499D01*
X116852133Y-111850498D01*
X116932495Y-111834515D01*
X116967222Y-111811310D01*
X117011510Y-111802502D01*
X117032776Y-111811310D01*
X117067505Y-111834515D01*
X117067507Y-111834515D01*
X117067508Y-111834516D01*
X117107686Y-111842507D01*
X117147867Y-111850500D01*
X117352132Y-111850499D01*
X117352133Y-111850499D01*
X117352133Y-111850498D01*
X117432495Y-111834515D01*
X117467222Y-111811310D01*
X117511510Y-111802502D01*
X117532776Y-111811310D01*
X117567505Y-111834515D01*
X117567507Y-111834515D01*
X117567508Y-111834516D01*
X117607686Y-111842507D01*
X117647867Y-111850500D01*
X117852132Y-111850499D01*
X117852133Y-111850499D01*
X117852133Y-111850498D01*
X117932495Y-111834515D01*
X117967222Y-111811310D01*
X118011510Y-111802502D01*
X118032776Y-111811310D01*
X118067505Y-111834515D01*
X118067507Y-111834515D01*
X118067508Y-111834516D01*
X118107686Y-111842507D01*
X118147867Y-111850500D01*
X118352132Y-111850499D01*
X118352133Y-111850499D01*
X118352133Y-111850498D01*
X118432495Y-111834515D01*
X118467222Y-111811310D01*
X118511510Y-111802502D01*
X118532776Y-111811310D01*
X118567505Y-111834515D01*
X118567507Y-111834515D01*
X118567508Y-111834516D01*
X118607686Y-111842507D01*
X118647867Y-111850500D01*
X118750195Y-111850499D01*
X118791915Y-111867779D01*
X118807563Y-111905557D01*
X118808470Y-111905414D01*
X118809067Y-111909188D01*
X118809196Y-111909498D01*
X118809196Y-111909997D01*
X118809196Y-111910000D01*
X118829141Y-112035930D01*
X118830281Y-112043125D01*
X118830282Y-112043130D01*
X118891470Y-112163217D01*
X118891475Y-112163224D01*
X118986775Y-112258524D01*
X118986778Y-112258526D01*
X118986780Y-112258528D01*
X118986782Y-112258529D01*
X119106869Y-112319717D01*
X119106870Y-112319717D01*
X119106874Y-112319719D01*
X119240000Y-112340804D01*
X119373126Y-112319719D01*
X119493220Y-112258528D01*
X119588528Y-112163220D01*
X119649719Y-112043126D01*
X119670804Y-111910000D01*
X119649719Y-111776874D01*
X119649717Y-111776870D01*
X119649717Y-111776869D01*
X119606431Y-111691916D01*
X119600000Y-111665131D01*
X119600000Y-111608665D01*
X119600142Y-111605773D01*
X119600499Y-111602137D01*
X119600500Y-111602133D01*
X119600499Y-110821498D01*
X119617780Y-110779781D01*
X119659499Y-110762500D01*
X119841000Y-110762500D01*
X119882719Y-110779781D01*
X119900000Y-110821500D01*
X119900000Y-111944255D01*
X119933482Y-111939379D01*
X119933483Y-111939379D01*
X120029138Y-111892615D01*
X120074208Y-111889817D01*
X120108056Y-111919707D01*
X120112917Y-111934108D01*
X120116590Y-111952570D01*
X120116596Y-111952606D01*
X120132983Y-112034991D01*
X120132985Y-112034996D01*
X120193875Y-112126123D01*
X120193876Y-112126124D01*
X120212046Y-112138265D01*
X120220985Y-112145601D01*
X120369719Y-112294335D01*
X120387000Y-112336054D01*
X120387000Y-112674209D01*
X120397209Y-112744287D01*
X120450049Y-112852372D01*
X120450050Y-112852374D01*
X120450051Y-112852375D01*
X120535125Y-112937449D01*
X120643214Y-112990291D01*
X120713285Y-113000500D01*
X121176714Y-113000499D01*
X121246786Y-112990291D01*
X121354875Y-112937449D01*
X121439949Y-112852375D01*
X121489495Y-112751026D01*
X121523341Y-112721137D01*
X121568411Y-112723935D01*
X121595504Y-112751027D01*
X121645049Y-112852372D01*
X121645050Y-112852374D01*
X121645051Y-112852375D01*
X121730125Y-112937449D01*
X121838214Y-112990291D01*
X121908285Y-113000500D01*
X122371714Y-113000499D01*
X122441786Y-112990291D01*
X122549875Y-112937449D01*
X122634949Y-112852375D01*
X122687791Y-112744286D01*
X122698000Y-112674215D01*
X122697999Y-112285786D01*
X122687791Y-112215714D01*
X122634949Y-112107625D01*
X122552443Y-112025119D01*
X122535162Y-111983400D01*
X122535887Y-111974182D01*
X122550804Y-111880000D01*
X122533554Y-111771090D01*
X122544096Y-111727183D01*
X122550097Y-111720155D01*
X122625824Y-111644429D01*
X122677933Y-111537840D01*
X122688000Y-111468742D01*
X122688000Y-111091258D01*
X122677933Y-111022160D01*
X122625824Y-110915571D01*
X122541929Y-110831676D01*
X122541928Y-110831675D01*
X122541926Y-110831674D01*
X122476383Y-110799632D01*
X122435340Y-110779567D01*
X122366242Y-110769500D01*
X121873758Y-110769500D01*
X121804660Y-110779567D01*
X121698073Y-110831674D01*
X121698068Y-110831678D01*
X121659349Y-110870396D01*
X121617630Y-110887676D01*
X121575911Y-110870394D01*
X121570160Y-110863712D01*
X121522867Y-110799632D01*
X121412509Y-110718184D01*
X121412506Y-110718182D01*
X121283046Y-110672882D01*
X121252303Y-110670000D01*
X121135000Y-110670000D01*
X121135000Y-111371000D01*
X121117719Y-111412719D01*
X121076000Y-111430000D01*
X120894000Y-111430000D01*
X120852281Y-111412719D01*
X120835000Y-111371000D01*
X120835000Y-110670000D01*
X120727000Y-110670000D01*
X120685281Y-110652719D01*
X120668000Y-110611000D01*
X120668000Y-110360442D01*
X120669134Y-110348931D01*
X120670117Y-110343992D01*
X120673397Y-110327500D01*
X120673397Y-110327497D01*
X120652017Y-110220010D01*
X120652016Y-110220009D01*
X120652016Y-110220006D01*
X120606494Y-110151878D01*
X120606492Y-110151876D01*
X120604883Y-110149467D01*
X120598200Y-110139466D01*
X120591124Y-110128876D01*
X120572954Y-110116735D01*
X120564013Y-110109397D01*
X120505335Y-110050719D01*
X120488054Y-110009000D01*
X120505335Y-109967281D01*
X120547054Y-109950000D01*
X121012500Y-109950000D01*
X121012500Y-109650000D01*
X121312500Y-109650000D01*
X121312500Y-109950000D01*
X121860582Y-109950000D01*
X121933481Y-109939379D01*
X122045912Y-109884415D01*
X122045918Y-109884411D01*
X122134411Y-109795918D01*
X122134415Y-109795912D01*
X122189379Y-109683481D01*
X122194257Y-109650000D01*
X121312500Y-109650000D01*
X121012500Y-109650000D01*
X120130742Y-109650000D01*
X120122116Y-109659973D01*
X120081754Y-109680223D01*
X120065981Y-109679243D01*
X120040100Y-109674095D01*
X120040071Y-109674090D01*
X120015002Y-109669103D01*
X120014999Y-109669103D01*
X119993569Y-109673366D01*
X119982058Y-109674500D01*
X118007939Y-109674500D01*
X117996429Y-109673366D01*
X117981542Y-109670405D01*
X117975002Y-109669104D01*
X117975001Y-109669104D01*
X117968460Y-109670405D01*
X117949936Y-109674089D01*
X117949906Y-109674094D01*
X117884358Y-109687133D01*
X117867507Y-109690484D01*
X117867503Y-109690486D01*
X117799379Y-109736005D01*
X117776376Y-109751376D01*
X117764233Y-109769548D01*
X117756897Y-109778486D01*
X117578486Y-109956897D01*
X117569548Y-109964233D01*
X117551379Y-109976374D01*
X117551376Y-109976376D01*
X117550658Y-109977451D01*
X117541949Y-109990486D01*
X117540943Y-109991991D01*
X117503396Y-110017078D01*
X117459109Y-110008268D01*
X117432495Y-109990485D01*
X117432492Y-109990484D01*
X117432491Y-109990483D01*
X117352135Y-109974500D01*
X117147866Y-109974500D01*
X117147864Y-109974501D01*
X117067509Y-109990483D01*
X117067502Y-109990486D01*
X117032778Y-110013688D01*
X116988489Y-110022497D01*
X116967222Y-110013688D01*
X116932495Y-109990485D01*
X116932491Y-109990483D01*
X116852135Y-109974500D01*
X116647866Y-109974500D01*
X116647864Y-109974501D01*
X116567509Y-109990483D01*
X116567502Y-109990486D01*
X116532778Y-110013688D01*
X116488489Y-110022497D01*
X116467222Y-110013688D01*
X116432495Y-109990485D01*
X116432491Y-109990483D01*
X116352135Y-109974500D01*
X116147866Y-109974500D01*
X116147864Y-109974501D01*
X116067509Y-109990483D01*
X116067502Y-109990486D01*
X116032778Y-110013688D01*
X115988489Y-110022497D01*
X115967222Y-110013688D01*
X115932495Y-109990485D01*
X115932491Y-109990483D01*
X115852135Y-109974500D01*
X115647866Y-109974500D01*
X115647864Y-109974501D01*
X115567509Y-109990483D01*
X115567502Y-109990486D01*
X115532778Y-110013688D01*
X115488489Y-110022497D01*
X115467222Y-110013688D01*
X115432495Y-109990485D01*
X115432491Y-109990483D01*
X115352135Y-109974500D01*
X115147866Y-109974500D01*
X115147864Y-109974501D01*
X115067509Y-109990483D01*
X115067502Y-109990486D01*
X115032778Y-110013688D01*
X114988489Y-110022497D01*
X114967222Y-110013688D01*
X114932495Y-109990485D01*
X114932491Y-109990483D01*
X114886322Y-109981300D01*
X114856113Y-109965153D01*
X114669445Y-109778485D01*
X114662107Y-109769544D01*
X114649968Y-109751376D01*
X114649966Y-109751374D01*
X114641052Y-109745418D01*
X114626967Y-109736007D01*
X114626966Y-109736006D01*
X114594353Y-109714215D01*
X114558839Y-109690485D01*
X114558835Y-109690483D01*
X114476444Y-109674095D01*
X114476415Y-109674090D01*
X114451346Y-109669103D01*
X114451343Y-109669103D01*
X114429913Y-109673366D01*
X114418402Y-109674500D01*
X114081598Y-109674500D01*
X114070087Y-109673366D01*
X114048657Y-109669103D01*
X114048654Y-109669103D01*
X113942975Y-109690123D01*
X113898686Y-109681313D01*
X113889752Y-109667942D01*
X113886905Y-109670405D01*
X113869257Y-109650000D01*
X112746500Y-109650000D01*
X112704781Y-109632719D01*
X112687500Y-109591000D01*
X112687500Y-109409499D01*
X112704781Y-109367780D01*
X112746498Y-109350499D01*
X113527132Y-109350499D01*
X113527132Y-109350498D01*
X113530756Y-109350142D01*
X113533649Y-109350000D01*
X113585506Y-109350000D01*
X113612289Y-109356430D01*
X113716874Y-109409719D01*
X113850000Y-109430804D01*
X113983126Y-109409719D01*
X114103220Y-109348528D01*
X114198528Y-109253220D01*
X114259719Y-109133126D01*
X114280804Y-109000000D01*
X114259719Y-108866874D01*
X114259717Y-108866870D01*
X114259717Y-108866869D01*
X114198529Y-108746782D01*
X114198524Y-108746775D01*
X114103224Y-108651475D01*
X114103217Y-108651470D01*
X113983130Y-108590282D01*
X113983126Y-108590281D01*
X113850000Y-108569196D01*
X113849998Y-108569196D01*
X113849997Y-108569196D01*
X113843725Y-108570189D01*
X113799817Y-108559645D01*
X113776225Y-108521141D01*
X113775499Y-108511915D01*
X113775499Y-108397866D01*
X113775498Y-108397864D01*
X113773436Y-108387499D01*
X113759515Y-108317505D01*
X113736310Y-108282777D01*
X113727502Y-108238490D01*
X113736311Y-108217222D01*
X113759515Y-108182495D01*
X113775500Y-108102133D01*
X113775499Y-107897868D01*
X113759515Y-107817505D01*
X113736310Y-107782777D01*
X113727502Y-107738490D01*
X113736310Y-107717223D01*
X113759515Y-107682495D01*
X113775500Y-107602133D01*
X113775499Y-107397868D01*
X113763283Y-107336448D01*
X113759516Y-107317509D01*
X113759515Y-107317508D01*
X113759515Y-107317505D01*
X113736310Y-107282777D01*
X113727502Y-107238490D01*
X113736310Y-107217223D01*
X113759515Y-107182495D01*
X113775500Y-107102133D01*
X113775499Y-106897868D01*
X113759515Y-106817505D01*
X113736310Y-106782777D01*
X113727502Y-106738490D01*
X113736310Y-106717223D01*
X113759515Y-106682495D01*
X113759922Y-106680452D01*
X113772645Y-106616484D01*
X113775500Y-106602133D01*
X113775499Y-106397868D01*
X113765190Y-106346036D01*
X113759516Y-106317509D01*
X113759515Y-106317508D01*
X113759515Y-106317505D01*
X113736310Y-106282777D01*
X113727502Y-106238490D01*
X113736310Y-106217223D01*
X113759515Y-106182495D01*
X113760907Y-106175500D01*
X113766733Y-106146208D01*
X113775500Y-106102133D01*
X113775499Y-105897868D01*
X113760171Y-105820802D01*
X113759516Y-105817509D01*
X113759515Y-105817508D01*
X113759515Y-105817505D01*
X113736310Y-105782777D01*
X113727502Y-105738490D01*
X113736310Y-105717223D01*
X113759515Y-105682495D01*
X113775500Y-105602133D01*
X113775499Y-105582485D01*
X113792778Y-105540768D01*
X113834496Y-105523485D01*
X113876216Y-105540764D01*
X113887068Y-105555699D01*
X113921471Y-105623219D01*
X113921475Y-105623224D01*
X114016775Y-105718524D01*
X114016778Y-105718526D01*
X114016780Y-105718528D01*
X114016782Y-105718529D01*
X114136869Y-105779717D01*
X114136870Y-105779717D01*
X114136874Y-105779719D01*
X114270000Y-105800804D01*
X114403126Y-105779719D01*
X114523220Y-105718528D01*
X114618528Y-105623220D01*
X114679719Y-105503126D01*
X114700804Y-105370000D01*
X114679719Y-105236874D01*
X114679717Y-105236870D01*
X114679717Y-105236869D01*
X114618529Y-105116782D01*
X114618524Y-105116775D01*
X114523224Y-105021475D01*
X114523217Y-105021470D01*
X114403130Y-104960282D01*
X114403126Y-104960281D01*
X114270000Y-104939196D01*
X114269998Y-104939196D01*
X114269997Y-104939196D01*
X114246866Y-104942859D01*
X114202958Y-104932316D01*
X114195920Y-104926304D01*
X114145835Y-104876219D01*
X114128554Y-104834500D01*
X114145835Y-104792781D01*
X114187554Y-104775500D01*
X118909314Y-104775500D01*
X118951033Y-104792781D01*
X118982628Y-104824376D01*
X119006779Y-104848527D01*
X119006782Y-104848529D01*
X119126869Y-104909717D01*
X119126870Y-104909717D01*
X119126874Y-104909719D01*
X119260000Y-104930804D01*
X119393126Y-104909719D01*
X119513220Y-104848528D01*
X119608528Y-104753220D01*
X119669719Y-104633126D01*
X119690804Y-104500000D01*
X119669719Y-104366874D01*
X119669717Y-104366870D01*
X119669717Y-104366869D01*
X119608529Y-104246782D01*
X119608524Y-104246775D01*
X119513224Y-104151475D01*
X119513217Y-104151470D01*
X119393130Y-104090282D01*
X119393126Y-104090281D01*
X119260000Y-104069196D01*
X119126874Y-104090281D01*
X119126870Y-104090282D01*
X119121541Y-104092998D01*
X119076524Y-104096538D01*
X119042188Y-104067209D01*
X119038648Y-104022192D01*
X119053038Y-103998709D01*
X119098528Y-103953220D01*
X119159719Y-103833126D01*
X119180804Y-103700000D01*
X119163971Y-103593725D01*
X119174513Y-103549820D01*
X119213015Y-103526225D01*
X119222236Y-103525499D01*
X119352132Y-103525499D01*
X119352133Y-103525499D01*
X119352133Y-103525498D01*
X119432495Y-103509515D01*
X119467222Y-103486310D01*
X119511510Y-103477502D01*
X119532776Y-103486310D01*
X119567505Y-103509515D01*
X119567507Y-103509515D01*
X119567508Y-103509516D01*
X119607686Y-103517507D01*
X119647867Y-103525500D01*
X119852132Y-103525499D01*
X119852133Y-103525499D01*
X119852133Y-103525498D01*
X119932495Y-103509515D01*
X120023624Y-103448624D01*
X120084515Y-103357495D01*
X120100499Y-103277136D01*
X120100500Y-103277136D01*
X120100500Y-102922000D01*
X120117781Y-102880281D01*
X120159500Y-102863000D01*
X121767446Y-102863000D01*
X121809165Y-102880281D01*
X121826446Y-102922000D01*
X121809165Y-102963719D01*
X121140663Y-103632219D01*
X121098944Y-103649500D01*
X120472866Y-103649500D01*
X120472864Y-103649501D01*
X120392509Y-103665483D01*
X120392502Y-103665486D01*
X120301376Y-103726375D01*
X120301375Y-103726376D01*
X120240485Y-103817503D01*
X120240483Y-103817508D01*
X120224500Y-103897863D01*
X120224500Y-104102133D01*
X120224501Y-104102135D01*
X120240483Y-104182490D01*
X120240486Y-104182497D01*
X120263688Y-104217222D01*
X120272497Y-104261511D01*
X120263688Y-104282778D01*
X120240485Y-104317504D01*
X120240483Y-104317508D01*
X120224500Y-104397863D01*
X120224500Y-104602133D01*
X120224501Y-104602135D01*
X120240483Y-104682490D01*
X120240486Y-104682497D01*
X120263688Y-104717222D01*
X120272497Y-104761511D01*
X120263688Y-104782778D01*
X120240485Y-104817504D01*
X120240483Y-104817508D01*
X120224500Y-104897863D01*
X120224500Y-105102131D01*
X120229636Y-105127952D01*
X120220825Y-105172240D01*
X120213490Y-105181178D01*
X120190588Y-105204081D01*
X120190584Y-105204086D01*
X120135620Y-105316518D01*
X120130742Y-105349999D01*
X120130742Y-105350000D01*
X120466340Y-105350000D01*
X120469233Y-105350142D01*
X120472856Y-105350497D01*
X120472867Y-105350500D01*
X121852132Y-105350499D01*
X121852132Y-105350498D01*
X121855756Y-105350142D01*
X121858649Y-105350000D01*
X122194258Y-105350000D01*
X122194257Y-105349999D01*
X122193239Y-105343005D01*
X122204325Y-105299231D01*
X122243118Y-105276116D01*
X122251623Y-105275500D01*
X122498000Y-105275500D01*
X122539719Y-105292781D01*
X122557000Y-105334500D01*
X122557000Y-105688742D01*
X122564946Y-105743281D01*
X122567067Y-105757839D01*
X122619174Y-105864426D01*
X122619175Y-105864428D01*
X122619176Y-105864429D01*
X122703071Y-105948324D01*
X122703073Y-105948325D01*
X122707053Y-105951167D01*
X122706191Y-105952373D01*
X122732162Y-105981776D01*
X122729369Y-106026846D01*
X122708027Y-106048196D01*
X122709107Y-106049708D01*
X122705123Y-106052552D01*
X122620052Y-106137623D01*
X122620049Y-106137627D01*
X122588866Y-106201413D01*
X122555018Y-106231303D01*
X122535861Y-106234500D01*
X122146063Y-106234500D01*
X122104344Y-106217219D01*
X122087063Y-106175500D01*
X122088197Y-106163990D01*
X122100499Y-106102136D01*
X122100500Y-106102133D01*
X122100499Y-105897868D01*
X122095363Y-105872047D01*
X122104172Y-105827760D01*
X122111511Y-105818817D01*
X122134413Y-105795916D01*
X122134414Y-105795914D01*
X122189379Y-105683481D01*
X122194257Y-105650000D01*
X121858660Y-105650000D01*
X121855767Y-105649858D01*
X121852134Y-105649500D01*
X121852133Y-105649500D01*
X121852131Y-105649500D01*
X120472868Y-105649500D01*
X120469244Y-105649858D01*
X120466351Y-105650000D01*
X120434494Y-105650000D01*
X120407710Y-105643569D01*
X120303126Y-105590281D01*
X120170000Y-105569196D01*
X120036874Y-105590281D01*
X120036869Y-105590282D01*
X119916782Y-105651470D01*
X119916775Y-105651475D01*
X119821475Y-105746775D01*
X119821470Y-105746782D01*
X119760282Y-105866869D01*
X119760281Y-105866874D01*
X119739196Y-106000000D01*
X119754587Y-106097178D01*
X119760281Y-106133125D01*
X119760282Y-106133130D01*
X119821470Y-106253217D01*
X119821475Y-106253224D01*
X119916775Y-106348524D01*
X119916778Y-106348526D01*
X119916780Y-106348528D01*
X119916782Y-106348529D01*
X120036869Y-106409717D01*
X120036871Y-106409717D01*
X120036874Y-106409719D01*
X120041115Y-106410390D01*
X120079618Y-106433982D01*
X120090162Y-106477890D01*
X120066570Y-106516394D01*
X120041118Y-106526938D01*
X119956874Y-106540281D01*
X119956869Y-106540282D01*
X119836782Y-106601470D01*
X119836775Y-106601475D01*
X119741475Y-106696775D01*
X119741470Y-106696782D01*
X119680282Y-106816869D01*
X119680281Y-106816874D01*
X119659196Y-106950000D01*
X119668630Y-107009567D01*
X119680281Y-107083125D01*
X119680282Y-107083130D01*
X119741470Y-107203217D01*
X119741475Y-107203224D01*
X119771532Y-107233281D01*
X119788813Y-107275000D01*
X119771532Y-107316719D01*
X119741475Y-107346775D01*
X119741470Y-107346782D01*
X119680282Y-107466869D01*
X119680281Y-107466874D01*
X119659196Y-107600000D01*
X119680281Y-107733125D01*
X119680282Y-107733130D01*
X119741470Y-107853217D01*
X119741475Y-107853224D01*
X119836775Y-107948524D01*
X119836778Y-107948526D01*
X119836780Y-107948528D01*
X119836782Y-107948529D01*
X119956869Y-108009717D01*
X119956870Y-108009717D01*
X119956874Y-108009719D01*
X120090000Y-108030804D01*
X120156272Y-108020307D01*
X120200179Y-108030849D01*
X120223774Y-108069351D01*
X120224500Y-108078579D01*
X120224500Y-108102131D01*
X120224501Y-108102136D01*
X120240483Y-108182490D01*
X120240486Y-108182497D01*
X120263688Y-108217222D01*
X120272497Y-108261511D01*
X120263688Y-108282778D01*
X120240485Y-108317504D01*
X120240483Y-108317508D01*
X120224500Y-108397863D01*
X120224500Y-108602133D01*
X120224501Y-108602135D01*
X120240483Y-108682490D01*
X120240486Y-108682497D01*
X120263688Y-108717222D01*
X120272497Y-108761511D01*
X120263688Y-108782778D01*
X120240485Y-108817504D01*
X120240483Y-108817508D01*
X120224500Y-108897863D01*
X120224500Y-109102131D01*
X120229636Y-109127952D01*
X120220825Y-109172240D01*
X120213490Y-109181178D01*
X120190588Y-109204081D01*
X120190584Y-109204086D01*
X120135620Y-109316518D01*
X120130742Y-109349999D01*
X120130742Y-109350000D01*
X120466340Y-109350000D01*
X120469233Y-109350142D01*
X120472856Y-109350497D01*
X120472867Y-109350500D01*
X121852132Y-109350499D01*
X121852132Y-109350498D01*
X121855756Y-109350142D01*
X121858649Y-109350000D01*
X122194258Y-109350000D01*
X122194257Y-109349999D01*
X122193239Y-109343005D01*
X122204325Y-109299231D01*
X122243118Y-109276116D01*
X122251623Y-109275500D01*
X122461446Y-109275500D01*
X122503165Y-109292781D01*
X122544719Y-109334335D01*
X122562000Y-109376054D01*
X122562000Y-109714209D01*
X122572209Y-109784287D01*
X122625049Y-109892372D01*
X122625050Y-109892374D01*
X122625051Y-109892375D01*
X122710125Y-109977449D01*
X122818214Y-110030291D01*
X122888285Y-110040500D01*
X123351714Y-110040499D01*
X123421786Y-110030291D01*
X123529875Y-109977449D01*
X123614949Y-109892375D01*
X123664495Y-109791026D01*
X123698341Y-109761137D01*
X123743411Y-109763935D01*
X123770504Y-109791027D01*
X123820049Y-109892372D01*
X123820050Y-109892374D01*
X123820051Y-109892375D01*
X123905125Y-109977449D01*
X124013214Y-110030291D01*
X124083285Y-110040500D01*
X124546714Y-110040499D01*
X124616786Y-110030291D01*
X124724875Y-109977449D01*
X124767362Y-109934960D01*
X124809081Y-109917679D01*
X124835866Y-109924110D01*
X124846874Y-109929719D01*
X124980000Y-109950804D01*
X125113126Y-109929719D01*
X125233220Y-109868528D01*
X125328528Y-109773220D01*
X125389719Y-109653126D01*
X125410804Y-109520000D01*
X125389719Y-109386874D01*
X125389717Y-109386870D01*
X125389717Y-109386869D01*
X125328529Y-109266782D01*
X125328524Y-109266775D01*
X125233224Y-109171475D01*
X125233217Y-109171470D01*
X125113130Y-109110282D01*
X125113126Y-109110281D01*
X124980000Y-109089196D01*
X124846874Y-109110281D01*
X124846872Y-109110281D01*
X124846870Y-109110282D01*
X124835863Y-109115890D01*
X124790845Y-109119430D01*
X124767362Y-109105038D01*
X124724043Y-109061719D01*
X124706762Y-109020000D01*
X124724043Y-108978281D01*
X124752012Y-108950312D01*
X124809949Y-108892375D01*
X124862791Y-108784286D01*
X124873000Y-108714215D01*
X124872999Y-108325786D01*
X124862791Y-108255714D01*
X124809949Y-108147625D01*
X124724875Y-108062551D01*
X124706979Y-108053802D01*
X124677089Y-108019953D01*
X124679888Y-107974883D01*
X124691174Y-107959077D01*
X124691925Y-107958325D01*
X124691929Y-107958324D01*
X124775824Y-107874429D01*
X124827933Y-107767840D01*
X124838000Y-107698742D01*
X124838000Y-107321258D01*
X124827933Y-107252160D01*
X124775824Y-107145571D01*
X124765679Y-107135426D01*
X124748398Y-107093707D01*
X124765679Y-107051988D01*
X124772363Y-107046235D01*
X124836445Y-106998941D01*
X124918784Y-106887374D01*
X124918788Y-106887367D01*
X124964586Y-106756485D01*
X124967500Y-106725412D01*
X124967500Y-106660000D01*
X124219000Y-106660000D01*
X124177281Y-106642719D01*
X124160000Y-106601000D01*
X124160000Y-106149999D01*
X124153637Y-106143636D01*
X124127281Y-106132719D01*
X124110000Y-106091000D01*
X124110000Y-105650000D01*
X124410000Y-105650000D01*
X124410000Y-105850001D01*
X124416362Y-105856363D01*
X124442719Y-105867281D01*
X124460000Y-105909000D01*
X124460000Y-106360000D01*
X124967500Y-106360000D01*
X124967500Y-106294587D01*
X124964586Y-106263514D01*
X124918788Y-106132632D01*
X124918784Y-106132625D01*
X124836443Y-106021056D01*
X124833317Y-106017930D01*
X124835148Y-106016098D01*
X124816191Y-105984616D01*
X124827064Y-105940805D01*
X124879316Y-105870008D01*
X124879317Y-105870006D01*
X124924617Y-105740546D01*
X124927500Y-105709802D01*
X124927500Y-105650000D01*
X124410000Y-105650000D01*
X124110000Y-105650000D01*
X124110000Y-105409000D01*
X124127281Y-105367281D01*
X124169000Y-105350000D01*
X124927499Y-105350000D01*
X124927499Y-105290196D01*
X124924617Y-105259459D01*
X124924615Y-105259449D01*
X124906638Y-105208072D01*
X124909170Y-105162986D01*
X124942841Y-105132897D01*
X124953083Y-105130315D01*
X125083126Y-105109719D01*
X125203220Y-105048528D01*
X125298528Y-104953220D01*
X125359719Y-104833126D01*
X125380804Y-104700000D01*
X125359719Y-104566874D01*
X125359717Y-104566870D01*
X125359717Y-104566869D01*
X125298529Y-104446782D01*
X125298524Y-104446775D01*
X125203224Y-104351475D01*
X125203217Y-104351470D01*
X125083130Y-104290282D01*
X125083126Y-104290281D01*
X124950000Y-104269196D01*
X124949998Y-104269196D01*
X124949997Y-104269196D01*
X124932760Y-104271925D01*
X124890757Y-104262709D01*
X124876556Y-104253221D01*
X124852664Y-104237257D01*
X124854312Y-104234789D01*
X124832178Y-104214005D01*
X124828860Y-104207219D01*
X124789949Y-104127625D01*
X124766254Y-104103930D01*
X124748973Y-104062211D01*
X124766254Y-104020492D01*
X124772939Y-104014739D01*
X124821444Y-103978942D01*
X124903784Y-103867374D01*
X124903788Y-103867367D01*
X124949586Y-103736485D01*
X124952500Y-103705412D01*
X124952500Y-103640000D01*
X124204000Y-103640000D01*
X124162281Y-103622719D01*
X124145000Y-103581000D01*
X124145000Y-103399000D01*
X124162281Y-103357281D01*
X124204000Y-103340000D01*
X124952500Y-103340000D01*
X124952500Y-103274587D01*
X124949586Y-103243515D01*
X124948875Y-103241482D01*
X124948929Y-103240507D01*
X124948820Y-103240005D01*
X124948959Y-103239974D01*
X124951411Y-103196397D01*
X124985084Y-103166309D01*
X125004566Y-103163000D01*
X125010418Y-103163000D01*
X125052137Y-103180281D01*
X125777219Y-103905363D01*
X125794500Y-103947082D01*
X125794500Y-109287057D01*
X125793366Y-109298568D01*
X125789103Y-109319999D01*
X125789103Y-109320001D01*
X125794090Y-109345071D01*
X125794095Y-109345100D01*
X125810483Y-109427491D01*
X125810485Y-109427496D01*
X125863435Y-109506740D01*
X125871376Y-109518624D01*
X125889546Y-109530765D01*
X125898485Y-109538101D01*
X127637104Y-111276720D01*
X127654385Y-111318439D01*
X127647418Y-111346251D01*
X127604772Y-111426036D01*
X127604770Y-111426041D01*
X127604769Y-111426043D01*
X127604768Y-111426046D01*
X127570856Y-111537840D01*
X127544699Y-111624069D01*
X127524417Y-111830000D01*
X127544699Y-112035930D01*
X127544699Y-112035932D01*
X127544700Y-112035934D01*
X127604768Y-112233954D01*
X127604769Y-112233957D01*
X127604770Y-112233958D01*
X127702313Y-112416448D01*
X127833589Y-112576410D01*
X127993551Y-112707686D01*
X128089354Y-112758894D01*
X128176046Y-112805232D01*
X128374066Y-112865300D01*
X128580000Y-112885583D01*
X128785934Y-112865300D01*
X128983954Y-112805232D01*
X129166450Y-112707685D01*
X129326410Y-112576410D01*
X129457685Y-112416450D01*
X129555232Y-112233954D01*
X129615300Y-112035934D01*
X129635583Y-111830000D01*
X129615300Y-111624066D01*
X129555232Y-111426046D01*
X129506261Y-111334429D01*
X129457686Y-111243551D01*
X129326410Y-111083589D01*
X129166448Y-110952313D01*
X128983958Y-110854770D01*
X128983957Y-110854769D01*
X128983954Y-110854768D01*
X128785934Y-110794700D01*
X128785932Y-110794699D01*
X128785930Y-110794699D01*
X128580000Y-110774417D01*
X128374069Y-110794699D01*
X128374066Y-110794700D01*
X128176046Y-110854768D01*
X128176043Y-110854769D01*
X128176041Y-110854770D01*
X128176036Y-110854772D01*
X128096251Y-110897418D01*
X128051312Y-110901844D01*
X128026720Y-110887104D01*
X126362781Y-109223165D01*
X126345500Y-109181446D01*
X126345500Y-107587554D01*
X126362781Y-107545835D01*
X126404500Y-107528554D01*
X126446219Y-107545835D01*
X127637104Y-108736720D01*
X127654385Y-108778439D01*
X127647418Y-108806251D01*
X127604772Y-108886036D01*
X127604770Y-108886041D01*
X127604769Y-108886043D01*
X127604768Y-108886046D01*
X127577191Y-108976957D01*
X127544699Y-109084069D01*
X127524417Y-109290000D01*
X127544699Y-109495930D01*
X127544699Y-109495932D01*
X127544700Y-109495934D01*
X127604768Y-109693954D01*
X127604769Y-109693957D01*
X127604770Y-109693958D01*
X127702313Y-109876448D01*
X127833589Y-110036410D01*
X127993551Y-110167686D01*
X128066867Y-110206874D01*
X128176046Y-110265232D01*
X128374066Y-110325300D01*
X128580000Y-110345583D01*
X128785934Y-110325300D01*
X128983954Y-110265232D01*
X129166450Y-110167685D01*
X129326410Y-110036410D01*
X129457685Y-109876450D01*
X129555232Y-109693954D01*
X129615300Y-109495934D01*
X129635583Y-109290000D01*
X129615300Y-109084066D01*
X129555232Y-108886046D01*
X129488466Y-108761137D01*
X129457686Y-108703551D01*
X129326410Y-108543589D01*
X129166448Y-108412313D01*
X128983958Y-108314770D01*
X128983957Y-108314769D01*
X128983954Y-108314768D01*
X128785934Y-108254700D01*
X128785932Y-108254699D01*
X128785930Y-108254699D01*
X128580000Y-108234417D01*
X128374069Y-108254699D01*
X128374066Y-108254700D01*
X128176046Y-108314768D01*
X128176043Y-108314769D01*
X128176041Y-108314770D01*
X128176036Y-108314772D01*
X128096251Y-108357418D01*
X128051312Y-108361844D01*
X128026720Y-108347104D01*
X126672781Y-106993165D01*
X126655500Y-106951446D01*
X126655500Y-105357554D01*
X126672781Y-105315835D01*
X126714500Y-105298554D01*
X126756219Y-105315835D01*
X127637104Y-106196720D01*
X127654385Y-106238439D01*
X127647418Y-106266251D01*
X127604772Y-106346036D01*
X127604770Y-106346041D01*
X127604769Y-106346043D01*
X127604768Y-106346046D01*
X127564101Y-106480110D01*
X127544699Y-106544069D01*
X127524417Y-106750000D01*
X127544699Y-106955930D01*
X127544699Y-106955932D01*
X127544700Y-106955934D01*
X127604768Y-107153954D01*
X127604769Y-107153957D01*
X127604770Y-107153958D01*
X127702313Y-107336448D01*
X127833589Y-107496410D01*
X127993551Y-107627686D01*
X128096084Y-107682491D01*
X128176046Y-107725232D01*
X128374066Y-107785300D01*
X128580000Y-107805583D01*
X128785934Y-107785300D01*
X128983954Y-107725232D01*
X129166450Y-107627685D01*
X129326410Y-107496410D01*
X129457685Y-107336450D01*
X129555232Y-107153954D01*
X129615300Y-106955934D01*
X129635583Y-106750000D01*
X129615300Y-106544066D01*
X129555232Y-106346046D01*
X129505615Y-106253220D01*
X129457686Y-106163551D01*
X129326410Y-106003589D01*
X129166448Y-105872313D01*
X128983958Y-105774770D01*
X128983957Y-105774769D01*
X128983954Y-105774768D01*
X128785934Y-105714700D01*
X128785932Y-105714699D01*
X128785930Y-105714699D01*
X128580000Y-105694417D01*
X128374069Y-105714699D01*
X128361443Y-105718529D01*
X128176046Y-105774768D01*
X128176043Y-105774769D01*
X128176041Y-105774770D01*
X128176036Y-105774772D01*
X128096251Y-105817418D01*
X128051312Y-105821844D01*
X128026720Y-105807104D01*
X126972781Y-104753165D01*
X126955500Y-104711446D01*
X126955500Y-104210000D01*
X127524417Y-104210000D01*
X127544699Y-104415930D01*
X127544699Y-104415932D01*
X127544700Y-104415934D01*
X127604768Y-104613954D01*
X127604769Y-104613957D01*
X127604770Y-104613958D01*
X127702313Y-104796448D01*
X127833589Y-104956410D01*
X127993551Y-105087686D01*
X128073299Y-105130312D01*
X128176046Y-105185232D01*
X128374066Y-105245300D01*
X128580000Y-105265583D01*
X128785934Y-105245300D01*
X128983954Y-105185232D01*
X129166450Y-105087685D01*
X129326410Y-104956410D01*
X129457685Y-104796450D01*
X129555232Y-104613954D01*
X129615300Y-104415934D01*
X129635583Y-104210000D01*
X129615300Y-104004066D01*
X129555232Y-103806046D01*
X129491663Y-103687117D01*
X129457686Y-103623551D01*
X129326410Y-103463589D01*
X129166448Y-103332313D01*
X128983958Y-103234770D01*
X128983957Y-103234769D01*
X128983954Y-103234768D01*
X128785934Y-103174700D01*
X128785932Y-103174699D01*
X128785930Y-103174699D01*
X128580000Y-103154417D01*
X128374069Y-103174699D01*
X128374066Y-103174700D01*
X128176046Y-103234768D01*
X128176043Y-103234769D01*
X128176041Y-103234770D01*
X127993551Y-103332313D01*
X127833589Y-103463589D01*
X127702313Y-103623551D01*
X127604770Y-103806041D01*
X127604769Y-103806043D01*
X127604768Y-103806046D01*
X127568553Y-103925432D01*
X127544699Y-104004069D01*
X127524417Y-104210000D01*
X126955500Y-104210000D01*
X126955500Y-103602942D01*
X126956634Y-103591431D01*
X126960897Y-103570000D01*
X126960897Y-103569997D01*
X126939517Y-103462510D01*
X126939516Y-103462509D01*
X126939516Y-103462506D01*
X126893994Y-103394378D01*
X126893992Y-103394376D01*
X126892383Y-103391967D01*
X126885700Y-103381966D01*
X126878624Y-103371376D01*
X126860454Y-103359235D01*
X126851513Y-103351897D01*
X126039367Y-102539751D01*
X127529500Y-102539751D01*
X127541131Y-102598227D01*
X127541133Y-102598232D01*
X127585447Y-102664551D01*
X127585448Y-102664552D01*
X127651767Y-102708866D01*
X127651768Y-102708866D01*
X127651769Y-102708867D01*
X127651772Y-102708868D01*
X127685462Y-102715569D01*
X127710248Y-102720499D01*
X127710249Y-102720500D01*
X127710252Y-102720500D01*
X129449751Y-102720500D01*
X129449751Y-102720499D01*
X129488560Y-102712779D01*
X129508227Y-102708868D01*
X129508228Y-102708867D01*
X129508231Y-102708867D01*
X129574552Y-102664552D01*
X129618867Y-102598231D01*
X129630499Y-102539751D01*
X129630500Y-102539751D01*
X129630500Y-100800249D01*
X129630499Y-100800248D01*
X129618868Y-100741772D01*
X129618866Y-100741767D01*
X129574552Y-100675448D01*
X129574551Y-100675447D01*
X129508232Y-100631133D01*
X129508227Y-100631131D01*
X129449751Y-100619500D01*
X129449748Y-100619500D01*
X127710252Y-100619500D01*
X127710249Y-100619500D01*
X127651772Y-100631131D01*
X127651767Y-100631133D01*
X127585448Y-100675447D01*
X127585447Y-100675448D01*
X127541133Y-100741767D01*
X127541131Y-100741772D01*
X127529500Y-100800248D01*
X127529500Y-102539751D01*
X126039367Y-102539751D01*
X125598101Y-102098485D01*
X125590763Y-102089544D01*
X125578624Y-102071376D01*
X125578622Y-102071374D01*
X125568013Y-102064286D01*
X125558033Y-102057617D01*
X125558027Y-102057612D01*
X125533942Y-102041519D01*
X125508854Y-102003972D01*
X125517665Y-101959684D01*
X125532041Y-101944731D01*
X125575871Y-101912888D01*
X125702533Y-101772216D01*
X125797179Y-101608284D01*
X125855674Y-101428256D01*
X125875460Y-101240000D01*
X125855731Y-101052284D01*
X125855674Y-101051742D01*
X125797181Y-100871723D01*
X125797179Y-100871716D01*
X125702533Y-100707784D01*
X125702530Y-100707781D01*
X125702529Y-100707779D01*
X125601887Y-100596006D01*
X125575871Y-100567112D01*
X125575870Y-100567111D01*
X125575869Y-100567110D01*
X125422735Y-100455852D01*
X125422728Y-100455848D01*
X125249804Y-100378856D01*
X125064646Y-100339500D01*
X124875354Y-100339500D01*
X124690195Y-100378856D01*
X124517271Y-100455848D01*
X124517264Y-100455852D01*
X124364130Y-100567110D01*
X124237470Y-100707779D01*
X124237466Y-100707785D01*
X124142825Y-100871707D01*
X124142818Y-100871723D01*
X124084325Y-101051742D01*
X124064540Y-101240000D01*
X124084325Y-101428257D01*
X124142818Y-101608276D01*
X124142825Y-101608292D01*
X124194328Y-101697497D01*
X124232879Y-101764270D01*
X124237466Y-101772214D01*
X124237470Y-101772220D01*
X124348942Y-101896021D01*
X124364016Y-101938587D01*
X124344576Y-101979345D01*
X124305097Y-101994500D01*
X123094903Y-101994500D01*
X123053184Y-101977219D01*
X123035903Y-101935500D01*
X123051058Y-101896021D01*
X123083906Y-101859540D01*
X123162533Y-101772216D01*
X123257179Y-101608284D01*
X123315674Y-101428256D01*
X123335460Y-101240000D01*
X123315731Y-101052284D01*
X123315674Y-101051742D01*
X123257181Y-100871723D01*
X123257179Y-100871716D01*
X123162533Y-100707784D01*
X123162530Y-100707781D01*
X123162529Y-100707779D01*
X123061887Y-100596006D01*
X123035871Y-100567112D01*
X123035870Y-100567111D01*
X123035869Y-100567110D01*
X122882735Y-100455852D01*
X122882728Y-100455848D01*
X122709804Y-100378856D01*
X122524646Y-100339500D01*
X122335354Y-100339500D01*
X122150195Y-100378856D01*
X121977271Y-100455848D01*
X121977264Y-100455852D01*
X121824130Y-100567110D01*
X121697470Y-100707779D01*
X121697466Y-100707785D01*
X121602825Y-100871707D01*
X121602818Y-100871723D01*
X121544325Y-101051742D01*
X121524540Y-101240000D01*
X121544325Y-101428257D01*
X121602818Y-101608276D01*
X121602825Y-101608292D01*
X121654328Y-101697497D01*
X121692879Y-101764270D01*
X121697466Y-101772214D01*
X121697470Y-101772220D01*
X121808942Y-101896021D01*
X121824016Y-101938587D01*
X121804576Y-101979345D01*
X121765097Y-101994500D01*
X121138554Y-101994500D01*
X121096835Y-101977219D01*
X120428101Y-101308485D01*
X120420763Y-101299544D01*
X120420659Y-101299388D01*
X120408624Y-101281376D01*
X120408622Y-101281374D01*
X120395348Y-101272505D01*
X120388033Y-101267617D01*
X120388027Y-101267612D01*
X120342105Y-101236929D01*
X120317495Y-101220485D01*
X120317491Y-101220483D01*
X120235100Y-101204095D01*
X120235071Y-101204090D01*
X120210002Y-101199103D01*
X120209999Y-101199103D01*
X120188569Y-101203366D01*
X120177058Y-101204500D01*
X117542943Y-101204500D01*
X117531433Y-101203366D01*
X117522662Y-101201621D01*
X117510001Y-101199103D01*
X117509998Y-101199103D01*
X117402510Y-101220482D01*
X117402504Y-101220485D01*
X117334378Y-101266005D01*
X117311375Y-101281376D01*
X117299232Y-101299548D01*
X117291896Y-101308486D01*
X117078486Y-101521896D01*
X117069548Y-101529232D01*
X117051377Y-101541374D01*
X117051376Y-101541376D01*
X117041096Y-101556761D01*
X117036006Y-101564378D01*
X117020561Y-101587494D01*
X116987256Y-101637337D01*
X116985032Y-101635851D01*
X116960022Y-101660838D01*
X116925960Y-101664184D01*
X116852135Y-101649500D01*
X116647866Y-101649500D01*
X116647864Y-101649501D01*
X116567509Y-101665483D01*
X116567502Y-101665486D01*
X116532778Y-101688688D01*
X116488489Y-101697497D01*
X116467222Y-101688688D01*
X116432495Y-101665485D01*
X116432491Y-101665483D01*
X116352135Y-101649500D01*
X116147866Y-101649500D01*
X116147864Y-101649501D01*
X116067509Y-101665483D01*
X116067502Y-101665486D01*
X116032778Y-101688688D01*
X115988489Y-101697497D01*
X115967222Y-101688688D01*
X115932495Y-101665485D01*
X115932491Y-101665483D01*
X115852135Y-101649500D01*
X115647866Y-101649500D01*
X115647864Y-101649501D01*
X115567509Y-101665483D01*
X115567502Y-101665486D01*
X115532778Y-101688688D01*
X115488489Y-101697497D01*
X115467222Y-101688688D01*
X115432495Y-101665485D01*
X115432491Y-101665483D01*
X115352135Y-101649500D01*
X115147869Y-101649500D01*
X115096009Y-101659815D01*
X115051720Y-101651004D01*
X115026633Y-101613457D01*
X115025500Y-101601948D01*
X115025500Y-101352942D01*
X115026634Y-101341431D01*
X115030897Y-101320000D01*
X115030897Y-101319998D01*
X115010649Y-101218206D01*
X115010362Y-101215301D01*
X115009516Y-101212513D01*
X115009515Y-101212506D01*
X115009515Y-101212505D01*
X114977685Y-101164869D01*
X114963994Y-101144378D01*
X114963992Y-101144376D01*
X114948624Y-101121376D01*
X114930454Y-101109235D01*
X114921513Y-101101897D01*
X114458101Y-100638485D01*
X114450763Y-100629544D01*
X114444052Y-100619500D01*
X114438624Y-100611376D01*
X114438622Y-100611374D01*
X114429708Y-100605418D01*
X114416731Y-100596747D01*
X114416728Y-100596745D01*
X114374843Y-100568758D01*
X114347495Y-100550485D01*
X114347491Y-100550483D01*
X114271098Y-100535288D01*
X114240890Y-100519142D01*
X114183220Y-100461472D01*
X114183217Y-100461470D01*
X114063130Y-100400282D01*
X114063126Y-100400281D01*
X113930000Y-100379196D01*
X113929999Y-100379196D01*
X113816775Y-100397129D01*
X113772867Y-100386587D01*
X113765827Y-100380574D01*
X113694430Y-100309177D01*
X113694426Y-100309174D01*
X113633727Y-100279500D01*
X113587840Y-100257067D01*
X113518742Y-100247000D01*
X113141258Y-100247000D01*
X113072160Y-100257067D01*
X112965573Y-100309174D01*
X112965569Y-100309177D01*
X112881677Y-100393069D01*
X112881674Y-100393073D01*
X112850367Y-100457113D01*
X112829567Y-100499660D01*
X112819500Y-100568758D01*
X112819500Y-101061242D01*
X112829567Y-101130340D01*
X112881676Y-101236929D01*
X112901132Y-101256385D01*
X112920396Y-101275649D01*
X112937676Y-101317369D01*
X112920395Y-101359088D01*
X112913712Y-101364839D01*
X112849632Y-101412132D01*
X112768184Y-101522490D01*
X112768182Y-101522493D01*
X112722882Y-101651953D01*
X112720000Y-101682697D01*
X112720000Y-101800000D01*
X113421000Y-101800000D01*
X113462719Y-101817281D01*
X113480000Y-101859000D01*
X113480000Y-102617499D01*
X113539803Y-102617499D01*
X113570540Y-102614617D01*
X113570550Y-102614615D01*
X113700007Y-102569317D01*
X113759999Y-102525039D01*
X113760000Y-102525038D01*
X113760000Y-102496500D01*
X113777281Y-102454781D01*
X113819000Y-102437500D01*
X114100000Y-102437500D01*
X114100000Y-101555742D01*
X114099999Y-101555742D01*
X114066518Y-101560620D01*
X113988394Y-101598812D01*
X113943324Y-101601610D01*
X113909477Y-101571719D01*
X113906793Y-101565293D01*
X113891817Y-101522493D01*
X113891815Y-101522490D01*
X113810365Y-101412131D01*
X113746287Y-101364839D01*
X113722981Y-101326162D01*
X113733851Y-101282333D01*
X113739596Y-101275656D01*
X113774461Y-101240791D01*
X113816179Y-101223511D01*
X113825390Y-101224235D01*
X113930000Y-101240804D01*
X114063126Y-101219719D01*
X114063130Y-101219717D01*
X114155422Y-101172692D01*
X114200439Y-101169149D01*
X114223926Y-101183542D01*
X114457219Y-101416835D01*
X114474500Y-101458554D01*
X114474500Y-101498377D01*
X114457219Y-101540096D01*
X114415500Y-101557377D01*
X114406995Y-101556761D01*
X114400000Y-101555742D01*
X114400000Y-101891339D01*
X114399858Y-101894231D01*
X114399500Y-101897866D01*
X114399500Y-101897867D01*
X114399500Y-102579567D01*
X114399501Y-102678500D01*
X114382220Y-102720219D01*
X114340501Y-102737500D01*
X113800000Y-102737500D01*
X113800000Y-103285582D01*
X113810620Y-103358481D01*
X113865584Y-103470912D01*
X113865588Y-103470918D01*
X113954081Y-103559411D01*
X113954087Y-103559415D01*
X114062664Y-103612495D01*
X114092555Y-103646342D01*
X114089757Y-103691412D01*
X114055910Y-103721303D01*
X114036752Y-103724500D01*
X113713714Y-103724500D01*
X113680935Y-103714557D01*
X113667249Y-103705412D01*
X113607495Y-103665485D01*
X113607492Y-103665484D01*
X113607491Y-103665483D01*
X113527136Y-103649500D01*
X113527133Y-103649500D01*
X113525706Y-103649500D01*
X112144970Y-103649501D01*
X112144970Y-103647661D01*
X112107043Y-103636132D01*
X112085781Y-103596294D01*
X112085500Y-103590547D01*
X112085500Y-102748553D01*
X112102780Y-102706835D01*
X112341519Y-102468095D01*
X112350442Y-102460771D01*
X112368624Y-102448624D01*
X112429515Y-102357495D01*
X112429516Y-102357491D01*
X112446064Y-102274299D01*
X112446064Y-102274293D01*
X112450897Y-102250000D01*
X112446634Y-102228568D01*
X112445500Y-102217057D01*
X112445500Y-102100000D01*
X112720001Y-102100000D01*
X112720001Y-102217303D01*
X112722882Y-102248040D01*
X112722884Y-102248050D01*
X112768182Y-102377506D01*
X112768184Y-102377509D01*
X112849632Y-102487867D01*
X112959990Y-102569315D01*
X112959993Y-102569317D01*
X113089453Y-102614617D01*
X113120197Y-102617499D01*
X113179999Y-102617499D01*
X113180000Y-102617498D01*
X113180000Y-102100000D01*
X112720001Y-102100000D01*
X112445500Y-102100000D01*
X112445500Y-101412942D01*
X112446634Y-101401431D01*
X112450897Y-101380000D01*
X112450897Y-101379998D01*
X112439062Y-101320500D01*
X112429516Y-101272508D01*
X112429515Y-101272507D01*
X112429515Y-101272505D01*
X112394756Y-101220485D01*
X112383994Y-101204378D01*
X112383992Y-101204376D01*
X112383373Y-101203449D01*
X112383369Y-101203444D01*
X112368624Y-101181376D01*
X112350454Y-101169235D01*
X112341513Y-101161897D01*
X112165280Y-100985664D01*
X112147999Y-100943945D01*
X112147999Y-100605790D01*
X112147999Y-100605789D01*
X112147999Y-100605786D01*
X112137791Y-100535714D01*
X112084949Y-100427625D01*
X111999875Y-100342551D01*
X111999873Y-100342550D01*
X111999870Y-100342548D01*
X111891786Y-100289709D01*
X111821715Y-100279500D01*
X111821710Y-100279500D01*
X111358290Y-100279500D01*
X111288212Y-100289709D01*
X111180127Y-100342549D01*
X111180123Y-100342552D01*
X111095052Y-100427623D01*
X111095049Y-100427627D01*
X111045505Y-100528972D01*
X111011657Y-100558862D01*
X110966587Y-100556064D01*
X110939495Y-100528972D01*
X110889950Y-100427627D01*
X110889949Y-100427626D01*
X110889949Y-100427625D01*
X110804875Y-100342551D01*
X110804873Y-100342550D01*
X110804870Y-100342548D01*
X110696786Y-100289709D01*
X110626715Y-100279500D01*
X110626710Y-100279500D01*
X110163290Y-100279500D01*
X110093212Y-100289709D01*
X109985127Y-100342549D01*
X109985123Y-100342552D01*
X109900052Y-100427623D01*
X109900048Y-100427629D01*
X109847209Y-100535713D01*
X109847209Y-100535714D01*
X109837000Y-100605785D01*
X109837000Y-100605786D01*
X109837000Y-100605789D01*
X109837000Y-100994209D01*
X109847209Y-101064287D01*
X109900049Y-101172372D01*
X109900052Y-101172376D01*
X109984707Y-101257031D01*
X110001988Y-101298750D01*
X109984707Y-101340469D01*
X109897552Y-101427623D01*
X109897548Y-101427629D01*
X109844709Y-101535713D01*
X109843884Y-101541374D01*
X109834500Y-101605785D01*
X109834500Y-101605788D01*
X109834500Y-101605789D01*
X109834500Y-101994209D01*
X109844709Y-102064287D01*
X109897549Y-102172372D01*
X109897550Y-102172374D01*
X109897551Y-102172375D01*
X109982625Y-102257449D01*
X110090714Y-102310291D01*
X110160785Y-102320500D01*
X110674214Y-102320499D01*
X110744286Y-102310291D01*
X110852375Y-102257449D01*
X110932234Y-102177589D01*
X110973951Y-102160310D01*
X111015670Y-102177590D01*
X111032951Y-102219310D01*
X111030899Y-102232270D01*
X111031008Y-102232288D01*
X111030281Y-102236872D01*
X111030281Y-102236874D01*
X111009196Y-102370000D01*
X111024733Y-102468100D01*
X111030281Y-102503125D01*
X111030282Y-102503130D01*
X111088556Y-102617498D01*
X111091472Y-102623220D01*
X111102718Y-102634466D01*
X111120000Y-102676184D01*
X111120000Y-103171000D01*
X111102719Y-103212719D01*
X111061000Y-103230000D01*
X110879000Y-103230000D01*
X110837281Y-103212719D01*
X110820000Y-103171000D01*
X110820000Y-102470000D01*
X110702697Y-102470000D01*
X110671959Y-102472882D01*
X110671949Y-102472884D01*
X110542493Y-102518182D01*
X110542490Y-102518184D01*
X110432132Y-102599632D01*
X110384839Y-102663712D01*
X110346161Y-102687017D01*
X110302332Y-102676147D01*
X110295649Y-102670396D01*
X110279906Y-102654653D01*
X110256929Y-102631676D01*
X110256927Y-102631675D01*
X110256926Y-102631674D01*
X110188509Y-102598227D01*
X110150340Y-102579567D01*
X110081242Y-102569500D01*
X109588758Y-102569500D01*
X109519660Y-102579567D01*
X109413072Y-102631675D01*
X109413068Y-102631678D01*
X109411005Y-102633741D01*
X109369284Y-102651018D01*
X109360060Y-102650292D01*
X109309540Y-102642290D01*
X109290000Y-102639196D01*
X109289999Y-102639196D01*
X109222096Y-102649950D01*
X109178187Y-102639407D01*
X109171148Y-102633395D01*
X109169430Y-102631677D01*
X109169426Y-102631674D01*
X109101009Y-102598227D01*
X109062840Y-102579567D01*
X108993742Y-102569500D01*
X108501258Y-102569500D01*
X108432160Y-102579567D01*
X108325573Y-102631674D01*
X108325569Y-102631677D01*
X108241677Y-102715569D01*
X108241674Y-102715573D01*
X108233005Y-102733307D01*
X108199157Y-102763197D01*
X108154087Y-102760399D01*
X108126995Y-102733307D01*
X108118325Y-102715573D01*
X108118324Y-102715572D01*
X108118324Y-102715571D01*
X108034429Y-102631676D01*
X108034428Y-102631675D01*
X108034426Y-102631674D01*
X107966009Y-102598227D01*
X107927840Y-102579567D01*
X107858742Y-102569500D01*
X107366258Y-102569500D01*
X107297160Y-102579567D01*
X107190573Y-102631674D01*
X107190569Y-102631677D01*
X107106677Y-102715569D01*
X107106674Y-102715573D01*
X107075315Y-102779719D01*
X107054567Y-102822160D01*
X107044500Y-102891258D01*
X107044500Y-103268742D01*
X107054567Y-103337840D01*
X107079486Y-103388813D01*
X107106674Y-103444426D01*
X107106677Y-103444430D01*
X107160208Y-103497961D01*
X107177489Y-103539680D01*
X107171059Y-103566464D01*
X107140282Y-103626869D01*
X107140282Y-103626871D01*
X107140281Y-103626872D01*
X107140281Y-103626874D01*
X107119196Y-103760000D01*
X107136527Y-103869427D01*
X107140281Y-103893125D01*
X107140282Y-103893130D01*
X107201470Y-104013217D01*
X107201475Y-104013224D01*
X107297806Y-104109555D01*
X107315087Y-104151274D01*
X107314471Y-104159778D01*
X107312000Y-104176740D01*
X107312000Y-104543260D01*
X107312903Y-104549456D01*
X107321927Y-104611394D01*
X107321927Y-104611395D01*
X107373300Y-104716480D01*
X107373303Y-104716484D01*
X107450100Y-104793281D01*
X107467381Y-104835000D01*
X107450100Y-104876719D01*
X107373303Y-104953515D01*
X107373300Y-104953519D01*
X107321927Y-105058604D01*
X107321927Y-105058605D01*
X107321927Y-105058607D01*
X107312000Y-105126740D01*
X107312000Y-105493260D01*
X107318718Y-105539368D01*
X107321927Y-105561394D01*
X107321927Y-105561395D01*
X107373300Y-105666480D01*
X107373303Y-105666484D01*
X107450100Y-105743281D01*
X107467381Y-105785000D01*
X107450100Y-105826719D01*
X107373303Y-105903515D01*
X107373300Y-105903519D01*
X107321927Y-106008604D01*
X107321927Y-106008605D01*
X107320113Y-106021056D01*
X107312000Y-106076740D01*
X107312000Y-106443260D01*
X107320234Y-106499775D01*
X107321927Y-106511394D01*
X107321927Y-106511395D01*
X107373300Y-106616480D01*
X107373303Y-106616484D01*
X107400600Y-106643781D01*
X107417881Y-106685500D01*
X107400600Y-106727219D01*
X107358881Y-106744500D01*
X107058554Y-106744500D01*
X107016835Y-106727219D01*
X106167781Y-105878165D01*
X106150500Y-105836446D01*
X106150500Y-105539368D01*
X106150500Y-105539364D01*
X106139866Y-105466375D01*
X106084826Y-105353789D01*
X106022756Y-105291719D01*
X106005475Y-105250000D01*
X106022756Y-105208281D01*
X106049859Y-105181178D01*
X106084826Y-105146211D01*
X106139866Y-105033625D01*
X106150500Y-104960636D01*
X106150500Y-104539364D01*
X106139866Y-104466375D01*
X106136177Y-104458830D01*
X106084827Y-104353791D01*
X106084826Y-104353790D01*
X106084826Y-104353789D01*
X106022756Y-104291719D01*
X106005475Y-104250000D01*
X106022755Y-104208282D01*
X106046717Y-104184319D01*
X106088436Y-104167037D01*
X106097657Y-104167762D01*
X106180000Y-104180804D01*
X106313126Y-104159719D01*
X106433220Y-104098528D01*
X106528528Y-104003220D01*
X106589719Y-103883126D01*
X106610804Y-103750000D01*
X106589719Y-103616874D01*
X106589717Y-103616870D01*
X106589717Y-103616869D01*
X106528529Y-103496782D01*
X106528524Y-103496775D01*
X106433224Y-103401475D01*
X106433217Y-103401470D01*
X106313130Y-103340282D01*
X106313126Y-103340281D01*
X106180000Y-103319196D01*
X106179999Y-103319196D01*
X106097664Y-103332235D01*
X106053756Y-103321692D01*
X106046717Y-103315680D01*
X106022756Y-103291719D01*
X106005475Y-103250000D01*
X106022756Y-103208281D01*
X106050756Y-103180281D01*
X106084826Y-103146211D01*
X106139866Y-103033625D01*
X106150500Y-102960636D01*
X106150500Y-102539364D01*
X106139866Y-102466375D01*
X106084826Y-102353789D01*
X105996211Y-102265174D01*
X105996210Y-102265173D01*
X105996208Y-102265172D01*
X105883627Y-102210134D01*
X105862771Y-102207095D01*
X105810636Y-102199500D01*
X104289364Y-102199500D01*
X104243745Y-102206146D01*
X104216372Y-102210134D01*
X104103791Y-102265172D01*
X104103787Y-102265175D01*
X104015175Y-102353787D01*
X104015172Y-102353791D01*
X103960134Y-102466372D01*
X103957003Y-102487867D01*
X103949500Y-102539364D01*
X103949500Y-102960636D01*
X103957095Y-103012771D01*
X103960134Y-103033627D01*
X104015172Y-103146208D01*
X104015175Y-103146212D01*
X104077244Y-103208281D01*
X104094525Y-103250000D01*
X104077244Y-103291719D01*
X104015175Y-103353787D01*
X104015172Y-103353791D01*
X103960134Y-103466372D01*
X103955776Y-103496287D01*
X103949500Y-103539364D01*
X103949500Y-103960636D01*
X103955828Y-104004069D01*
X103960134Y-104033627D01*
X104015172Y-104146208D01*
X104015175Y-104146212D01*
X104077244Y-104208281D01*
X104094525Y-104250000D01*
X104077244Y-104291719D01*
X104015175Y-104353787D01*
X104015172Y-104353791D01*
X103960134Y-104466372D01*
X103960134Y-104466375D01*
X103949500Y-104539364D01*
X103949500Y-104960636D01*
X103953780Y-104990012D01*
X103960134Y-105033627D01*
X104015172Y-105146208D01*
X104015175Y-105146212D01*
X104077244Y-105208281D01*
X104094525Y-105250000D01*
X104077244Y-105291719D01*
X104015175Y-105353787D01*
X104015172Y-105353791D01*
X103960134Y-105466372D01*
X103960134Y-105466375D01*
X103949500Y-105539364D01*
X103949500Y-105960636D01*
X103955235Y-106000000D01*
X103960134Y-106033627D01*
X104015172Y-106146208D01*
X104015175Y-106146212D01*
X104077244Y-106208281D01*
X104094525Y-106250000D01*
X104077244Y-106291719D01*
X104015175Y-106353787D01*
X104015172Y-106353791D01*
X103960134Y-106466372D01*
X103955576Y-106497656D01*
X103949500Y-106539364D01*
X103949500Y-106960636D01*
X103955081Y-106998941D01*
X103960134Y-107033627D01*
X104015172Y-107146208D01*
X104015175Y-107146212D01*
X104077244Y-107208281D01*
X104094525Y-107250000D01*
X104077244Y-107291719D01*
X104015175Y-107353787D01*
X104015172Y-107353791D01*
X103960134Y-107466372D01*
X103957943Y-107481413D01*
X103949500Y-107539364D01*
X103949500Y-107960636D01*
X103956522Y-108008836D01*
X103960134Y-108033627D01*
X104015172Y-108146208D01*
X104015175Y-108146212D01*
X104077244Y-108208281D01*
X104094525Y-108250000D01*
X104077244Y-108291719D01*
X104015175Y-108353787D01*
X104015172Y-108353791D01*
X103960134Y-108466372D01*
X103957157Y-108486806D01*
X103949500Y-108539364D01*
X103949500Y-108960636D01*
X103951022Y-108971082D01*
X103960134Y-109033627D01*
X104015172Y-109146208D01*
X104015175Y-109146212D01*
X104077244Y-109208281D01*
X104094525Y-109250000D01*
X104077244Y-109291719D01*
X104015175Y-109353787D01*
X104015172Y-109353791D01*
X103960134Y-109466372D01*
X103957057Y-109487495D01*
X103949500Y-109539364D01*
X103949500Y-109960636D01*
X103954462Y-109994694D01*
X103960134Y-110033627D01*
X104015172Y-110146208D01*
X104015175Y-110146212D01*
X104077244Y-110208281D01*
X104094525Y-110250000D01*
X104077244Y-110291719D01*
X104015175Y-110353787D01*
X104015172Y-110353791D01*
X103960134Y-110466372D01*
X103960134Y-110466375D01*
X103949500Y-110539364D01*
X103949500Y-110960636D01*
X100100500Y-110960636D01*
X100100500Y-108958830D01*
X101945624Y-108958830D01*
X101955944Y-109122860D01*
X101955945Y-109122863D01*
X102006730Y-109279167D01*
X102006731Y-109279169D01*
X102006732Y-109279171D01*
X102094798Y-109417940D01*
X102214607Y-109530448D01*
X102358632Y-109609627D01*
X102438227Y-109630063D01*
X102517821Y-109650500D01*
X102517823Y-109650500D01*
X102640923Y-109650500D01*
X102640925Y-109650500D01*
X102763058Y-109635071D01*
X102915871Y-109574568D01*
X103048837Y-109477963D01*
X103153600Y-109351326D01*
X103223579Y-109202613D01*
X103254376Y-109041170D01*
X103244056Y-108877140D01*
X103193268Y-108720829D01*
X103105202Y-108582060D01*
X103064234Y-108543589D01*
X103003767Y-108486806D01*
X102985393Y-108469552D01*
X102841368Y-108390373D01*
X102841365Y-108390372D01*
X102682180Y-108349500D01*
X102682177Y-108349500D01*
X102559075Y-108349500D01*
X102528219Y-108353398D01*
X102436944Y-108364928D01*
X102379937Y-108387499D01*
X102284129Y-108425432D01*
X102284127Y-108425432D01*
X102284123Y-108425435D01*
X102151162Y-108522037D01*
X102046402Y-108648670D01*
X102046399Y-108648675D01*
X102030487Y-108682490D01*
X101976421Y-108797387D01*
X101945624Y-108958830D01*
X100100500Y-108958830D01*
X100100500Y-104458831D01*
X101945624Y-104458831D01*
X101946099Y-104466375D01*
X101955944Y-104622860D01*
X101955945Y-104622863D01*
X102006730Y-104779167D01*
X102006731Y-104779169D01*
X102006732Y-104779171D01*
X102094798Y-104917940D01*
X102214607Y-105030448D01*
X102358632Y-105109627D01*
X102425299Y-105126744D01*
X102517821Y-105150500D01*
X102517823Y-105150500D01*
X102640923Y-105150500D01*
X102640925Y-105150500D01*
X102763058Y-105135071D01*
X102915871Y-105074568D01*
X103048837Y-104977963D01*
X103153600Y-104851326D01*
X103223579Y-104702613D01*
X103254376Y-104541170D01*
X103244056Y-104377140D01*
X103193268Y-104220829D01*
X103105202Y-104082060D01*
X102985393Y-103969552D01*
X102841368Y-103890373D01*
X102841365Y-103890372D01*
X102682180Y-103849500D01*
X102682177Y-103849500D01*
X102559075Y-103849500D01*
X102528219Y-103853398D01*
X102436944Y-103864928D01*
X102372680Y-103890372D01*
X102284129Y-103925432D01*
X102284127Y-103925432D01*
X102284123Y-103925435D01*
X102151162Y-104022037D01*
X102046402Y-104148670D01*
X102046399Y-104148675D01*
X102014144Y-104217221D01*
X101976421Y-104297387D01*
X101952596Y-104422285D01*
X101945624Y-104458831D01*
X100100500Y-104458831D01*
X100100500Y-100159500D01*
X100117781Y-100117781D01*
X100159500Y-100100500D01*
X100636014Y-100100500D01*
X100677733Y-100117781D01*
G37*
%TD.AperFunction*%
%TD*%
M02*
